<svg id="Layer_1" data-name="Layer 1" xmlns="http://www.w3.org/2000/svg" viewBox="0 0 301 601"><defs><style>.cls-1{stroke:#000;}.cls-1,.cls-2,.cls-4{stroke-miterlimit:10;}.cls-2,.cls-4{fill:none;}.cls-2{stroke:#fff;}.cls-3{fill:#fff;}.cls-4{stroke:#edd91b;}</style></defs><rect class="cls-1" x="0.5" y="0.5" width="300" height="600"/><rect class="cls-2" x="38.33" y="481.5" width="228.17" height="52.5"/><path class="cls-3" d="M80.28,527.65H69.47l-.77-4.91H61.65l-.85,4.91H50L59.3,489H72.08Zm-12.81-13-.68-4.52a3.72,3.72,0,0,1-.1-.67c0-.37-.21-1.82-.52-4.36,0-.29-.08-.68-.13-1.17s-.12-1.11-.2-1.87l-.33-3.66c0,.36-.08.75-.13,1.18s-.13.91-.19,1.43c-.12,1-.2,1.76-.25,2.16s-.09.64-.1.72l-.73,4.69-1,6.07Z"/><path class="cls-3" d="M83.31,527.65V489H95.46q6.83,0,10.1,3a10.36,10.36,0,0,1,3.34,8q0,7.27-7.22,7.87a9.83,9.83,0,0,1,6,2.71,8.7,8.7,0,0,1,1.91,6.07,10.48,10.48,0,0,1-3.23,8,11.76,11.76,0,0,1-8.45,3Zm10.45-24h.7a4.65,4.65,0,0,0,3-.87,3,3,0,0,0,1.09-2.46q0-3.36-3.68-3.36H94.4l-.64,0Zm0,15.77.53,0,.37,0a4.44,4.44,0,0,0,3.12-1.06A3.61,3.61,0,0,0,99,515.62a3.47,3.47,0,0,0-1.17-2.78,4.71,4.71,0,0,0-3.19-1h-.83Z"/><path class="cls-3" d="M113.26,526.08V514.17c2,2.81,4.28,4.21,6.67,4.21a3.39,3.39,0,0,0,2.2-.69A2.12,2.12,0,0,0,123,516a3.88,3.88,0,0,0-1.85-2.92l-1.71-1.28a23.4,23.4,0,0,1-2.9-2.46,12.32,12.32,0,0,1-2-2.51,10.54,10.54,0,0,1-1.1-2.67,11.49,11.49,0,0,1-.35-2.91,13.64,13.64,0,0,1,1.25-5.46,13.82,13.82,0,0,1,1.45-2.43,11.09,11.09,0,0,1,9-4.36,16.5,16.5,0,0,1,7.52,1.92v11.61a11,11,0,0,0-2.91-3.12,5.56,5.56,0,0,0-3.2-1.14,2.88,2.88,0,0,0-2,.68,1.94,1.94,0,0,0-.81,1.57c0,1,.71,2,2.13,3l1.66,1.18a16,16,0,0,1,4.74,4.71,10.84,10.84,0,0,1,1.45,5.65,12.5,12.5,0,0,1-3.48,9.09,11.83,11.83,0,0,1-8.83,3.57A22.6,22.6,0,0,1,113.26,526.08Z"/><path class="cls-3" d="M166,508.44q0,8.54-4,13.89a12.5,12.5,0,0,1-10.46,5.32,13.36,13.36,0,0,1-9.8-4.09q-5.13-5.17-5.13-15.53,0-9.93,5.36-15.18a13.09,13.09,0,0,1,9.45-3.89A12.62,12.62,0,0,1,162,494.23Q166,499.51,166,508.44Zm-10.85.09q0-10.3-3.71-10.3c-1.24,0-2.22.9-3,2.7a19.44,19.44,0,0,0-1.08,7.37,21.41,21.41,0,0,0,1,7.44q1,2.64,2.82,2.64c1.23,0,2.19-.87,2.86-2.61A19.94,19.94,0,0,0,155.14,508.53Z"/><path class="cls-3" d="M188.75,527.65h-18.3V489H180.9v29.42h7.85Z"/><path class="cls-3" d="M207.69,489h10.46v26.89a11.93,11.93,0,0,1-1.08,5.47,10.65,10.65,0,0,1-3.51,4,13.53,13.53,0,0,1-8.05,2.36,15,15,0,0,1-9-2.61q-4.62-3.31-4.61-10.64V489h10.45v24.81a7.46,7.46,0,0,0,.61,3.56,2.64,2.64,0,0,0,4.15.08,8.06,8.06,0,0,0,.57-3.61Z"/><path class="cls-3" d="M237.07,527.65H226.62V498.23h-5.77V489h22.21v9.27h-6Z"/><path class="cls-3" d="M255.59,521.9a5.47,5.47,0,0,1-1.73,4.06,5.6,5.6,0,0,1-4.12,1.69,5.87,5.87,0,0,1-4.2-1.71,5.78,5.78,0,0,1-1.73-4.21,5.86,5.86,0,0,1,5.83-5.86,5.7,5.7,0,0,1,4.22,1.77A5.82,5.82,0,0,1,255.59,521.9Z"/><path class="cls-3" d="M107.75,541.67h9.91v13.25a24.89,24.89,0,0,1-.46,5.91,4.36,4.36,0,0,1-2.08,2.58,7.55,7.55,0,0,1-3.94,1,9.83,9.83,0,0,1-5.4-1.5,7.29,7.29,0,0,1-3.15-4.06,10.27,10.27,0,0,0,2.14.18,3.48,3.48,0,0,0,2.44-.58,3.54,3.54,0,0,0,.54-2.33Z"/><path class="cls-3" d="M128.85,564H119l7.76-22.35h14.11L148.58,564h-9.89l-1.29-3.78h-7.26Zm3.09-9h3.66l-1.83-5.55Z"/><path class="cls-3" d="M172.59,558.41V564H149.05l10.28-16.74h-9.45v-5.61H173.1l-10.28,16.74Z"/><path class="cls-3" d="M197.29,558.41V564H173.75L184,547.28h-9.45v-5.61H197.8l-10.28,16.74Z"/><path class="cls-4" d="M122,463.62,247.5,330.38s-1.94-18.69-9.62-35.82-43.21-88.89-54.55-106.89S167,163.33,167,163.33s34.67-39,33.33-41.33-13.5-12-15.58-10.67-15.75,12-15.75,12L173,95s-18-4-20.17-2.83-8,44.16-12.5,41.5-28.66-20.84-30.83-20.5-15.5,6-18.83,6.16-13.34,1.34-13.34,1.34L76,162.33s25.33,33.5,32.17,33.67,29.33-3,29.66-2.33-6.83,39.5-6.83,39.5L184.25,319l-4.33,5.08,4.41,2.09-4.08,5.08,4.83,1.67s-82.92,128.46-81.2,128.7S122,463.62,122,463.62Z"/><path class="cls-4" d="M109.08,468.42s-27.75,7.58,3,8.08,59.25-2.83,51.84-4S113.67,466.17,109.08,468.42Z"/><path class="cls-2" d="M47.5,80.15S39.65,84,38.07,89.31s-4.87,16.67-1.71,21S40,114.86,40,114.86s3.69,1.61,4.76.67,2.63-2.13-1.5-4.89S38.41,104,42.15,103a53.61,53.61,0,0,1,9-1.24s-.07,1.13,1.76,1.06l1.63-.07,0-1.8,10-.21s4.18,5,6.15,3.48c4.33-3.46,11.09-5.95,9.78-10.13-.73-2.37-3.51-3.54-4.9-4a23.94,23.94,0,0,0-9.32-8.51s-.41-.21-.83-.4A25.43,25.43,0,0,0,47.5,80.15Z"/><path class="cls-2" d="M78.2,88.11s0-3.92.72-3.84,2.93,1.47,3.75.46,2-4.1-.63-4.91S93.12,53.38,95.63,54.11s58.14,23.45,58.22,23.2l27.6,10.13.87.33"/><path class="cls-2" d="M75,85S86.49,57.28,86.39,55.61s5.33-9.22,12.36-6.87S124.1,60,124.35,59.38s1.93-1.91,2.19-1.76l.1.07a26,26,0,0,1,2.83,2.89s11.91,3.87,12.12,3.46,1.88-1.47-1.23-2.69-5.7-2.84-1.33-3,8.92,3.31,7.63,4.52S145,65.8,147,66s15.22,4.38,15.22,4.38,4.59-.07,5-1.54S143.59,58.27,150.42,58s29.08,4.29,26.37,8.8a23.06,23.06,0,0,1-5.39,6.43s6.81,5.75,7.2,4.2.19-2.92,1.23-3.08,4.5-.14,4.38.11a9.34,9.34,0,0,0,0,1.88s-2.92-.08-2.79.13-.74,1.9-.17,1.92a24.64,24.64,0,0,1,3.52,1.46"/><path class="cls-2" d="M254.36,100.87a1.64,1.64,0,0,0-1.16-2l-42.6-16c-4.22-1.59-8.64-.59-10.8,2.2a1,1,0,0,0-1.26.41l-.09.15-10.6-4,.11-.27a.38.38,0,0,0-.27-.45l-4-1.49s-1.17,3.13-1.18,3.14l-1.74,4.63,4,1.48a.37.37,0,0,0,.5-.16l.1-.27,10.6,4,0,.16a1,1,0,0,0,.67,1.14c-.2,3.53,2.47,7.19,6.69,8.78l42.61,16a1.63,1.63,0,0,0,2.17-.71Z"/><path class="cls-2" d="M139.27,74.59c.1-.3.34,1.33-4-.23-2-.71-3.44-1.77-3.23-2.36s2-.48,4,.23S139.48,74,139.27,74.59Z"/><path class="cls-2" d="M155.88,81.89c.11-.3.35,1.33-4-.23-2-.71-3.43-1.77-3.22-2.36s2-.48,4,.23S156.09,81.31,155.88,81.89Z"/><path class="cls-2" d="M156.51,74.45c.11-.3.16,1.27-3,.11-1.48-.53-2.5-1.44-2.29-2s1.58-.64,3.05-.11S156.72,73.87,156.51,74.45Z"/><path class="cls-2" d="M163.56,77.33c.11-.3.16,1.26-3.05.11-1.48-.53-2.5-1.44-2.29-2s1.58-.63,3.05-.1S163.77,76.74,163.56,77.33Z"/><path class="cls-2" d="M249.92,113.82s14.83,3.24,17.58,0,6.83-10.82.83-15.74-33.25-23.41-32.5-32.58.92-8.92-3.66-11.92-14.59-7.16-19.92-3.5c-2.61,1.79-4.54,3.13-5.34,5.16-1.37,3.46.2,7.08,1.67,10,4.68,9.28,11.53,17.66,16.38,23"/><path class="cls-2" d="M219.31,70.1l-.31-.29c-1.63-1.51-9-8.52-8.06-10.25,1.06-1.94,1.91-4,4.14-3.12s2.42,2.18,3.8,2.44a22.13,22.13,0,0,0,5.68.06c.38-.25-.25-4.5,1.75-4.44s6.38,2.44,4.44,4.25-2.44,1.56-1.44,2.37,4,4.44,1.63,3.69-6.26-4.12-9.6-3.43-3.78,1.43-1.9,4.68S219.31,70.1,219.31,70.1Z"/><path class="cls-2" d="M237,80.25s-5.38-4.44-5.81-5.75-1.81-4.81,0-6.12,4.06,1.62,4.25,2.68-1.32,2.69.12,4.35,4.74,4.3,3.4,4.23a6.2,6.2,0,0,0-2.52.61"/><line class="cls-2" x1="236.51" y1="80.03" x2="236.52" y2="80.03"/><rect class="cls-2" x="236.43" y="80.1" width="0.57" height="0.15"/></svg>