<svg width="46" height="46" viewBox="0 0 46 46" fill="none" xmlns="http://www.w3.org/2000/svg">
<path d="M0.65181 23.0012C0.65181 17.0741 3.00635 11.3897 7.19745 7.19861C11.3886 3.00751 17.0729 0.652969 23 0.652969C28.9272 0.652969 34.6115 3.00751 38.8026 7.19861C42.9937 11.3897 45.3483 17.0741 45.3483 23.0012C45.3483 28.9283 42.9937 34.6127 38.8026 38.8038C34.6115 42.9949 28.9272 45.3494 23 45.3494C17.0729 45.3494 11.3886 42.9949 7.19745 38.8038C3.00635 34.6127 0.65181 28.9283 0.65181 23.0012V23.0012ZM21.6033 32.7785C21.6033 33.149 21.7504 33.5043 22.0124 33.7662C22.2743 34.0282 22.6296 34.1753 23 34.1753C23.3705 34.1753 23.7258 34.0282 23.9877 33.7662C24.2496 33.5043 24.3968 33.149 24.3968 32.7785L24.3968 16.5956L30.3917 22.5933C30.654 22.8556 31.0097 23.003 31.3806 23.003C31.7515 23.003 32.1073 22.8556 32.3695 22.5933C32.6318 22.3311 32.7792 21.9753 32.7792 21.6044C32.7792 21.2335 32.6318 20.8778 32.3695 20.6155L23.9889 12.2349C23.8592 12.1049 23.7051 12.0017 23.5354 11.9312C23.3657 11.8608 23.1838 11.8246 23 11.8246C22.8163 11.8246 22.6344 11.8608 22.4647 11.9312C22.295 12.0017 22.1409 12.1049 22.0111 12.2349L13.6305 20.6155C13.3683 20.8778 13.2209 21.2335 13.2209 21.6044C13.2209 21.9753 13.3683 22.3311 13.6305 22.5933C13.8928 22.8556 14.2485 23.003 14.6195 23.003C14.9904 23.003 15.3461 22.8556 15.6084 22.5933L21.6033 16.5956L21.6033 32.7785Z" fill="#63C261"/>
</svg>
