<svg width="46" height="46" viewBox="0 0 46 46" fill="none" xmlns="http://www.w3.org/2000/svg">
<path d="M45.0798 23.0012C45.0798 28.9283 42.7252 34.6127 38.5341 38.8038C34.343 42.9949 28.6586 45.3494 22.7315 45.3494C16.8044 45.3494 11.1201 42.9949 6.92895 38.8038C2.73784 34.6127 0.383301 28.9283 0.383301 23.0012C0.383301 17.0741 2.73784 11.3897 6.92895 7.1986C11.1201 3.00749 16.8044 0.652954 22.7315 0.652954C28.6586 0.652954 34.343 3.00749 38.5341 7.1986C42.7252 11.3897 45.0798 17.0741 45.0798 23.0012V23.0012ZM24.1283 13.2238C24.1283 12.8534 23.9811 12.4981 23.7192 12.2362C23.4572 11.9742 23.102 11.8271 22.7315 11.8271C22.3611 11.8271 22.0058 11.9742 21.7439 12.2362C21.4819 12.4981 21.3348 12.8534 21.3348 13.2238V29.4067L15.3399 23.409C15.0776 23.1468 14.7219 22.9994 14.3509 22.9994C13.98 22.9994 13.6243 23.1468 13.362 23.409C13.0998 23.6713 12.9524 24.027 12.9524 24.3979C12.9524 24.7689 13.0998 25.1246 13.362 25.3869L21.7426 33.7674C21.8724 33.8975 22.0265 34.0007 22.1962 34.0711C22.3659 34.1415 22.5478 34.1778 22.7315 34.1778C22.9153 34.1778 23.0972 34.1415 23.2669 34.0711C23.4366 34.0007 23.5907 33.8975 23.7204 33.7674L32.101 25.3869C32.3633 25.1246 32.5106 24.7689 32.5106 24.3979C32.5106 24.027 32.3633 23.6713 32.101 23.409C31.8387 23.1468 31.483 22.9994 31.1121 22.9994C30.7412 22.9994 30.3855 23.1468 30.1232 23.409L24.1283 29.4067V13.2238Z" fill="#FF2E00"/>
</svg>
