<svg xmlns="http://www.w3.org/2000/svg" viewBox="0 0 220 200"><defs><style>.cls-1{fill:#fff;}.cls-2{fill:#0858a2;}</style></defs><g id="Layer_9" data-name="Layer 9"><rect class="cls-1" width="220" height="200"/><path class="cls-2" d="M123.35,83.5a1.73,1.73,0,0,1,.54,1.15v30.5a1.74,1.74,0,0,1-.54,1.16H139.9v-8s-.15.76-1.2.75h-5.5V84.65a1.73,1.73,0,0,1,.54-1.15Zm55.61,0H164.91v8.16s.15-.77,1.2-.75h4.18v24.24a1.74,1.74,0,0,1-.54,1.16h10.39a1.74,1.74,0,0,1-.54-1.16V87.4Z"/><path class="cls-2" d="M184.82,83.5v8.16s-.15-.77-1.2-.75h-7.06c0-2.47-.09-5-.33-7.41Z"/><ellipse class="cls-2" cx="187.63" cy="111.82" rx="5.1" ry="5.21"/><path class="cls-2" d="M190.6,86.13a1.27,1.27,0,0,0,.31-.2.81.81,0,0,0,.21-.3,1,1,0,0,0,.07-.41.92.92,0,0,0-.3-.74,1.47,1.47,0,0,0-1-.26h-1.48v3.62h.48V86.23h.8l1.09,1.61h.55l-1.15-1.61a2.36,2.36,0,0,0,.38-.1Zm-1-.28h-.63V84.6h.87a1.87,1.87,0,0,1,.34,0,.66.66,0,0,1,.29.09.55.55,0,0,1,.21.19.57.57,0,0,1,.08.31.64.64,0,0,1-.1.36.61.61,0,0,1-.26.19,1.22,1.22,0,0,1-.38.07Zm0-3A3.23,3.23,0,1,0,192.71,86,3.18,3.18,0,0,0,189.6,82.81Zm0,6.18A3,3,0,1,1,192.43,86,2.9,2.9,0,0,1,189.6,89ZM110,82.78c-9.24,0-12.37,7.73-12.37,17.2,0,9.66,3.34,17.19,12.33,17.19s12.42-7.37,12.42-17.19S118.93,82.78,110,82.78Zm2.78,18.91c0,6.39-1.24,8.16-2.78,8.16s-2.78-1.71-2.78-8.16V97.85c0-6,1.25-7.77,2.78-7.77s2.78,1.94,2.78,7.77Zm41.61,5c0,2-1,3-2.26,3s-2.26-1-2.26-3V84.65a1.73,1.73,0,0,1,.54-1.15H140a1.73,1.73,0,0,1,.54,1.15V106.9c0,7.34,5.19,10.3,11.57,10.3s11.54-3.39,11.54-10.31V84.65a1.73,1.73,0,0,1,.54-1.15H153.83a1.73,1.73,0,0,1,.54,1.15v22.07ZM70,99.33h0c3.21-.75,5.28-3.41,5.28-7.21,0-5.37-3.89-8.63-11.21-8.63H53.63a1.74,1.74,0,0,1,.54,1.16V115.1a1.73,1.73,0,0,1-.54,1.15H65.9c7.42,0,10.77-3.93,10.77-8.93C76.67,102.86,74.08,100.11,70,99.33Zm-6.65-9.11h.84a3,3,0,0,1,3.1,3.23,3.17,3.17,0,0,1-3.1,3.23h-.84Zm1,19.37h-1v-7.13h.82a3.57,3.57,0,1,1,.14,7.13Zm-23.71,7.13h0Zm2.8-.45H53.59a9.37,9.37,0,0,1-.84-2.68L46.2,85.17s-.31-1.28.48-1.68H34.81c.79.4.48,1.68.48,1.68L28.72,113.5c-.49,2.2-1.45,2.77-1.45,2.77H37.86a1.07,1.07,0,0,1-.57-1l.63-4.24h5.44l.57,4a1.29,1.29,0,0,1-.51,1.22Zm-4.56-11.33,1.86-13,1.81,13Zm46.88,4.74A2.06,2.06,0,0,0,88,107.49a3.66,3.66,0,0,0-1.37-2.63L80.91,100l-.1-.09a9.88,9.88,0,0,1-3.1-7.28c0-5.26,3.74-9.72,10-9.72a12.86,12.86,0,0,1,5.59,1.23,1.27,1.27,0,0,0,1.55-.27V92.5s-3.49-2.45-6.36-2.45c0,0-2.13,0-2.13,2,0,0,0,1.09,1.7,2.4,0,0,5.8,4.24,7.77,7.5a10.86,10.86,0,0,1,1.44,5.81s-.3,9.49-10.3,9.49a16.22,16.22,0,0,1-7.32-1.91s-1.14-.71-1.87,0v-9.67s4.62,4.07,8,4.07Z"/></g></svg>