<?xml version="1.0" encoding="UTF-8"?><svg xmlns="http://www.w3.org/2000/svg" viewBox="0 0 220 200"><defs><style>.o{fill:#fff;}.p{fill:#e52219;}</style></defs><g id="a"/><g id="b"/><g id="c"/><g id="d"/><g id="e"/><g id="f"/><g id="g"/><g id="h"/><g id="i"/><g id="j"/><g id="k"/><g id="l"/><g id="m"><rect y=".35" width="220" height="200"/><g><g><path class="p" d="M99.72,37.34c.88,.03,1.77-.02,2.65,.1,2.13,.3,3.1,1,4.13,3.09,.59,1.2,.76,2.44,.89,3.72,.04,.41-.07,.78-.21,1.13-.25,.64-.3,1.33-.32,2.03-.01,.82,.3,1.08,1.02,.93,1.13-.24,2.25-.48,3.42-.47,.44,0,.83,.07,1.25,.25,.62,.26,1.29,.27,1.94,.34,1.61,.19,3.22,.3,4.73,1.1,.44,.23,.89,.2,1.32,.07,.57-.17,1.15-.22,1.75-.04,1.48,.44,2.82-.03,4.18-.43,.27-.08,.54-.16,.82-.23,.41-.1,.83-.16,.92-.73,.02-.15,.17-.31,.3-.38,1.5-.77,2.98-1.63,4.73-1.71,.78-.03,1.76,.8,1.87,1.6,.02,.18,.08,.35,.19,.48,.45,.51,.36,.96-.08,1.34-.31,.26-.41,.53-.31,1,.17,.87-.46,2.16-1.21,2.47-.43,.18-.31,.48-.25,.78,.82,4.35,1.63,8.7,2.47,13.05,1.24,6.46,2.5,12.91,3.76,19.37,.31,1.57,.66,3.13,1.02,4.7,.1,.44,.24,.85,.57,1.22,.56,.64,.54,1.23,.02,1.87-.27,.33-.3,.63-.16,1.05,.33,.98,.62,1.98,.91,2.97,.05,.18,.27,.43-.1,.49-.27,.04-.49,.06-.6-.34-.27-1.02-.61-2.02-.89-3.04-.09-.31-.17-.44-.5-.4-1.07,.13-1.59-.63-2.03-1.53-.16-.33-.08-.48,.2-.58,.46-.16,.91-.36,1.38-.46,.35-.07,.38-.2,.31-.56-1.17-6.02-2.32-12.05-3.48-18.08-1.24-6.46-2.5-12.91-3.73-19.37-.09-.45-.19-.57-.57-.35-.39,.22-.81,.37-1.19,.6-1.08,.65-2.34,.57-3.51,.81-2.53,.53-5.01,1.3-7.57,1.72-.86,.14-1.71,.03-2.56-.05-1.72-.17-3.3,.24-4.83,.92-.67,.3-1.39,.42-2.03,.79-.64,.38-1.06,.93-1.27,1.66-.38,1.31-.71,2.63-1.07,3.95-.13,.49-.09,.94,.24,1.36,.26,.32,.48,.43,.94,.32,1-.24,1.98-.61,3-.72,1.28-.14,2.41-.84,3.71-.86,.67,0,1.31-.26,2.04,.12,1.2,.62,1.55,1.66,1.66,2.89,.04,.48,.02,.95,.04,1.43,.02,.59-.07,1.07-.64,1.36-.89,.45-.68,1.51-.92,2.32-.07,.24,.18,.2,.3,.21,.52,.04,1-.11,1.49-.24,1.6-.41,3.08-.11,4.33,1.21,.56,.59,1.3,.92,1.83,1.56,.37,.45,.58,.86,.42,1.42-.1,.35-.19,.7-.32,1.03-.93,2.43-1.96,4.82-2.79,7.3-.78,2.35-1.35,4.8-2.02,7.21-.17,.59-.36,1.18-.59,1.75-.16,.39-.06,.49,.31,.6,4.67,1.41,9.34,2.84,14.01,4.27,.14,.04,.28,.08,.42,.13,3.24,1.29,6.58,1.54,9.94,1.68,4.85,.21,9.71,.49,14.57,.96,1.79,.17,3.33-.42,4.93-.99,1.4-.5,2.86-.79,4.42-.83-.25,.93-.58,1.76-1.08,2.51-.35,.53-.84,.8-1.46,.88-3.01,.4-6.07,.47-9.11,.61-.36,.02-.63,.12-.9,.38-.84,.81-1.73,1.55-2.81,1.99-.6,.25-1.21,.26-1.85,.07-3.24-.97-6.5-1.78-9.79-2.44-1.6-.32-3.26-.22-4.89-.29-6.49-.28-12.98-.66-19.46-.8-5.73-.13-11.44,0-17.16,.02-6.51,.03-13.03,.06-19.54,.1-.38,0-.6-.12-.77-.49-.2-.44-.45-.85-.7-1.31,.26-.16,.53-.09,.78-.09,8.28-.16,16.55-.32,24.83-.46,.36,0,.59-.12,.79-.43,.3-.47,.65-.91,1-1.34,.18-.22,.27-.46,.32-.74,.1-.55,.18-1.1,.31-1.64,.22-.92,.38-.98,1.18-.52,.37,.21,.74,.44,1.02,.77,.29,.35,.48,.24,.67-.04,.43-.64,.85-1.28,1.31-1.98-2.17-.56-4.27-1.1-6.38-1.65-11.56-3.01-23.15-5.82-34.73-8.73-.36-.09-.66-.11-.55-.68,.08-.41,.18-.5,.58-.41,8.46,1.8,16.92,3.58,25.38,5.39,.54,.12,.82,.1,.87-.56,.05-.64,.31-1.13,1-1.22,.25-.03,.48-.22,.73-.3,.29-.09,.3-.26,.28-.57-.1-1.24-.51-2.26-1.41-3.19-1.17-1.22-2.31-2.47-3.5-3.67-1.17-1.18-1.87-2.54-1.86-4.25,0-.67-.06-1.32-.64-1.83-.33-.29-.22-.69,.01-1,.29-.37,.29-.77,.09-1.21-.21-.48-.36-1-.59-1.47-.4-.81-.26-1.58-.02-2.34,.08-.24,.23-.42,.44-.57,.69-.48,.77-.81,.4-1.65-.18-.42-.24-1.11-.59-1.18-.46-.1-.93,.32-1.38,.54-.15,.07-.2,.2-.22,.35-.07,.71-.17,1.41-.11,2.13,.09,1.15-.48,2.01-1.26,2.59-.58,.43-1.23,.76-1.62,1.43-.14,.24-.29,.29-.54,.13-.34-.22-.73-.35-1.05-.59-.73-.54-1.48-.8-2.37-.43l-.09-1.01c-.06-.72-.38-1.02-1.04-.94-7.02,.84-14.04,1.68-21.06,2.53-7.62,.92-15.25,1.85-22.84,2.93-.66,.09-1.32,.21-1.98,.32-.39,.06-.6,.45-1.01,.5-.56,.07-.95-.06-1.16-.68-.04-.13-.06-.32-.26-.32l-.58-1.48c0-.56,.3-.96,.62-1.35,.26-.31,.53-.32,.86-.05,.41,.34,.71,.77,1.01,1.2,.27,.39,.59,.5,1.02,.45,5.59-.67,11.19-1.3,16.78-1.95,7.33-.85,14.66-1.69,21.99-2.55,1.9-.22,3.8-.4,5.69-.66,.41-.06,.66-.18,.77-.63,.18-.72,.64-1.27,1.05-1.84,.28-.39,.4-.79,.28-1.32-.17-.73,.02-1.38,.57-1.85,.45-.38,.84-.84,1.31-1.21,.81-.63,1.32-1.5,1.77-2.44,.95-1.99,2.33-3.64,4.06-4.83,1.25-.86,2.5-1.73,3.76-2.58,1.14-.76,1.87-1.81,2.01-3.3,.07-.69,.24-1.35,.4-2.02,.27-1.15,.49-2.31,.58-3.5,.02-.32,.09-.64,.14-.96,.16-1.02,.51-1.89,1.43-2.36l.68-.27Z"/><path d="M113.21,82.98c1.02-.3,1.94-.63,2.88-.82,.64-.13,1.24,.37,1.96,.5-.7,1.05-1.35,2.02-1.99,3.01-.15,.23-.26,.11-.38-.02-.79-.85-1.58-1.71-2.47-2.67Z"/><path d="M127.09,99.2l3.63,1.08v.17c-1.16-.03-2.31-.07-3.46-.1-.21,0-.24-.08-.22-.27,.03-.27,.04-.55,.06-.88Z"/><path d="M151.01,102.86c.99,.1,1.97,.21,2.96,.31,.19,.02,.35,.08,.22,.31-.12,.21,0,.72-.42,.58-.94-.31-1.87-.69-2.8-1.04l.04-.16Z"/></g><g><path class="o" d="M41.86,111.39l8.9,17.17h-3.87l-2.05-3.93h-11.44l-2.05,3.93h-3.87l8.9-17.17h5.49Zm1.21,9.8l-3.32-6.36h-1.27l-3.29,6.36h7.89Z"/><path class="o" d="M59.31,125.11h12.17v3.44h-15.6v-17.17h3.44v13.73Z"/><path class="o" d="M88.73,111.39v3.44h-6.91v13.73h-3.44v-13.73h-6.88v-3.44h17.22Z"/><path class="o" d="M94.16,128.55l-.06-17.17h3.47l.03,17.17h-3.44Z"/><path class="o" d="M120.23,111.39v3.44h-6.91v13.73h-3.44v-13.73h-6.88v-3.44h17.22Z"/><path class="o" d="M139.39,111.39h3.44v14.8l-2.8,2.37h-11.67l-2.8-2.37v-14.8h3.44v13.21l.61,.52h9.16l.64-.52v-13.21Z"/><path class="o" d="M149.36,111.39h14.45l2.83,2.57v12.22l-2.8,2.37h-14.48v-17.17Zm13.84,4.1l-.72-.66h-9.68v10.29h9.8l.61-.52v-9.1Z"/><path class="o" d="M176.67,125.11h12.17v3.44h-15.6v-17.17h15.52v3.44h-12.08v3.41h7.63v3.44h-7.63v3.44Z"/></g><g><g><path class="p" d="M67.9,137.02h1.99v8.71h-1.76v-5.2l-2.52,5.2h-2.02l-2.54-5.2v5.2h-1.74v-8.71h1.98l3.31,6.8,3.3-6.8Z"/><path class="p" d="M81.35,137.02v1.74h-3.5v6.96h-1.74v-6.96h-3.49v-1.74h8.74Z"/><path class="p" d="M83.86,145.74c0-.54,.37-.92,.88-.92s.87,.38,.87,.92-.34,.92-.88,.92c-.51,0-.86-.4-.86-.92Z"/><path class="p" d="M88.71,136.61h5.32v1.07h-4.05v3.29h3.74v1.06h-3.74v4.47h-1.28v-9.88Z"/><path class="p" d="M98.59,136.61v5.85c0,2.21,.98,3.15,2.3,3.15,1.47,0,2.4-.97,2.4-3.15v-5.85h1.29v5.76c0,3.04-1.6,4.28-3.74,4.28-2.02,0-3.55-1.16-3.55-4.22v-5.82h1.29Z"/><path class="p" d="M110.29,136.61h1.27v6.61c0,2.63-1.29,3.43-2.99,3.43-.47,0-1.04-.1-1.36-.24l.19-1.04c.26,.1,.65,.19,1.07,.19,1.14,0,1.82-.51,1.82-2.45v-6.51Z"/><path class="p" d="M116.43,136.61v9.88h-1.28v-9.88h1.28Z"/></g><g><path class="p" d="M130.86,136.87h4.46v2.15h-.76v-1.47h-8.14v1.47h-.74v-2.15h4.39v-1.15l1.03,.07c-.01,.08-.08,.14-.23,.15v.93Zm-4.34,9.56v-4.04h7.98v4h-.77v-.33h-6.47v.38h-.74Zm3.56-3.43h-2.82v.93h2.82v-.93Zm-2.82,2.44h2.82v-.97h-2.82v.97Zm6.44-7.18v.59h-6.42v-.59h6.42Zm-.16,3.39h-6.12v-2.15h6.12v2.15Zm-5.39-1.58v1h4.64v-1h-4.64Zm5.59,3.86v-.93h-2.89v.93h2.89Zm-2.89,1.51h2.89v-.97h-2.89v.97Z"/><path class="p" d="M148.39,140.26h-4.85v4.84h4.23v.77h-9.16v-.77h4.12v-4.84h-4.78v-.77h4.78v-3.73l1.05,.07c-.01,.08-.08,.14-.24,.16v3.5h4.85v.77Z"/><path class="p" d="M159.67,138.49l1.03,.07c-.01,.08-.08,.14-.23,.16v7.51h-.8v-.93h-7.64v.98h-.78v-7.77l1.01,.07c-.01,.08-.07,.14-.23,.16v5.78h3.35v-8.56l1.04,.07c-.01,.08-.08,.14-.23,.16v8.33h3.48v-6.02Z"/></g></g></g></g><g id="n"/></svg>