<svg xmlns="http://www.w3.org/2000/svg" viewBox="0 0 220 200"><defs><style>.cls-1{fill:#202223;}.cls-2{fill:#706968;}.cls-2,.cls-3{fill-rule:evenodd;}.cls-3{fill:#9d9695;}</style></defs><g id="Layer_7" data-name="Layer 7"><rect class="cls-1" width="220" height="200"/><path class="cls-2" d="M44.05,106.79a8.43,8.43,0,0,0,2.88-.5v5.89a13.76,13.76,0,0,1-3.66.5c-9.56,0-15.08-7.81-15.08-15.32,0-7,5.77-15.07,15-15.32h16V111.9h-6v-24H44.05a9.43,9.43,0,0,0,0,18.86Z"/><path class="cls-3" d="M64.34,107.57a19.59,19.59,0,0,0,13.1,5.11c8.83,0,12.32-5.53,12.32-9.8s-2.53-6.78-7.69-7.75l-6.31-1.2c-2.4-.42-3.79-1.32-3.79-3.06,0-2.34,2.65-3.67,5.35-3.67,2,0,4.75.67,7.81,3.25l3.54-4.39c-4-2.82-7.5-4-11.53-4-7.27,0-11.41,4.56-11.41,9.49,0,4.14,2.28,6.79,10.45,8.29l3.55.66c2.28.42,3.78,1.44,3.78,3.37,0,1.62-2.16,3.66-5.77,3.66a13.44,13.44,0,0,1-9.13-4.27Z"/><path class="cls-3" d="M110.06,106.79a8.53,8.53,0,0,1-2.89-.5v5.89a13.84,13.84,0,0,0,3.67.5c9.55,0,15.08-7.81,15.08-15.32,0-7-5.78-15.07-15-15.32h-16V130h6v-42h9.13a9.43,9.43,0,0,1,0,18.86Z"/><polygon class="cls-3" points="163.94 111.9 171.33 111.9 177.75 102.16 183.88 111.9 191.81 111.9 181.18 97.3 191.39 82.82 184.06 82.82 178.11 92.79 172.05 82.82 164.24 82.82 174.51 97.66 163.94 111.9"/><path class="cls-3" d="M154.27,102.64a10.34,10.34,0,0,1-8.41,4.51c-4.39,0-8.53-3.18-8.89-7.63h24.15V98.38C161.12,87,152.1,82,146,82c-10.16,0-16,7.63-16,15.32s5.88,15.32,16,15.32a17.61,17.61,0,0,0,13.51-7.09ZM137,94.35a8.25,8.25,0,0,1,8.22-6.79c4,0,7.27,2.35,8.6,6.79Z"/></g></svg>