<svg xmlns="http://www.w3.org/2000/svg" viewBox="0 0 220 200"><defs><style>.cls-1{fill:#fff;}.cls-2{fill:#c2d10c;}.cls-3{fill:#0a5e5f;}</style></defs><g id="Layer_6" data-name="Layer 6"><rect class="cls-1" width="220" height="200"/><path class="cls-2" d="M46.26,83.45c22.57-.56,44.39,1.81,63.12,16.18l-.09-.09c16.31,17.78,17.35,39.86,17.57,62.19,0,2.24-.91,2.9-3,2.88-9.3-.07-18.61-.12-27.92,0-3.31.05-2.8-2-2.85-4-.26-9.61.73-19.27-1-28.84a55.08,55.08,0,0,0-4.47-15c-3.31-2.74-4.89-6.81-7.76-10C71.52,97.74,61.05,92,50.23,86.64,48.75,85.91,46.37,86,46.26,83.45Z"/><path class="cls-2" d="M173.75,116.72c-15.12.42-29.95-1.12-44.42-5.83-7.5-2.44-13.53-7.27-20-11.35l.09.09C103,91,97.78,81.91,95.73,71.17A171.08,171.08,0,0,1,93,38.29c0-2.81,1.41-2.87,3.48-2.86,8.83,0,17.66.17,26.49-.06,3.21-.08,3.93,1,4,4,.07,9.31-.8,18.65.71,27.93.9,5.53,2,11,4.74,16a4.89,4.89,0,0,1,2.21,2c7.11,12.83,18.95,19.89,31.55,26.12C168.87,112.81,172.47,113.16,173.75,116.72Z"/><path class="cls-3" d="M46.26,83.45C58,89.1,69.81,94.74,79.18,104.21a36.31,36.31,0,0,1,8.42,12.57q-19.5.06-39,.12c-1.77,0-3.32.14-3.29-2.49.12-10,.07-19.92.13-29.87C45.44,84.17,46,83.81,46.26,83.45Z"/><path class="cls-3" d="M173.75,116.72c-9.61-4.82-19.41-9.32-27.84-16.17-5.82-4.72-10.94-10-13.54-17.24,13-.06,26-.13,39-.14,1.17,0,3.15-.68,3.09,1.46C174.15,95.33,175.57,106.06,173.75,116.72Z"/></g></svg>