<svg xmlns="http://www.w3.org/2000/svg" viewBox="0 0 220 200"><defs><style>.cls-1{fill:#f2af20;}.cls-2{fill:#daecfa;}.cls-3{fill:#4d7d9e;}.cls-4{fill:#4f7d9a;}.cls-5{fill:#f3db46;}.cls-6{fill:#eb685a;}.cls-7{fill:#fee678;}.cls-8{fill:#b6d9f4;}.cls-9{fill:#ef7d69;}.cls-10{fill:#f3d846;}.cls-11{fill:#fabd10;}.cls-12{fill:#436379;}.cls-13{fill:#3d617d;}.cls-14{fill:#94b3d3;}.cls-15{fill:#8bb2df;}</style></defs><g id="Layer_12" data-name="Layer 12"><rect class="cls-1" width="220" height="200"/><path class="cls-2" d="M137.92,82.63a57.43,57.43,0,0,1,17,4.94c3,1.48,5.94,3.24,5.66,7.35l0,.2a1.45,1.45,0,0,0-.23.54,20.3,20.3,0,0,1-9.88,6c-20.93,6.07-42.19,6.69-63.66,3.61a47.48,47.48,0,0,1-5.12-3.6C75.54,96,75.62,91,81.8,85.89,86,91.74,89,92.32,93.7,88.21c2.49-2,1.86-4.7,1.71-7.3a197.42,197.42,0,0,1,28.57,0c-.76,4.66,0,8.42,5.45,9.58C135.31,91.18,137.19,87.53,137.92,82.63Z"/><path class="cls-3" d="M86.83,105.24c21.46,3.08,42.72,2.46,63.65-3.61a20.3,20.3,0,0,0,9.88-6,29.23,29.23,0,0,1,0,8.76c-3.51-.81-4.33,1.86-5.4,4.2-8.94,3.75-18.39,5.2-27.92,6.29-1.94-2.44-3.73-2.71-5.3.36a174,174,0,0,1-24.06,0c-1.63-2.77-3.43-3-5.42-.36l-17-2.49a4.38,4.38,0,0,0-.19-.71l.24-8Z"/><path class="cls-4" d="M160.47,145.53c.55,8.7-.36,10.52-8.6,13.41-17.93,6.3-36.56,6.47-55.23,5.44A94.7,94.7,0,0,1,75.1,161.2c0-2,.08-4,.11-6,1.72.86,3.06.29,4.19-1.09A142.36,142.36,0,0,0,107,156.6c1.82,2.88,3.63,2.79,5.42,0A144.92,144.92,0,0,0,140,154.15c2.57,2.94,3.95.94,5.29-1.26C150.89,151.61,156.23,149.7,160.47,145.53Z"/><path class="cls-5" d="M129.43,90.51c-5.4-1.16-6.21-4.92-5.45-9.58.89-1.6,2.06-3.22,3.8-3.51,5.39-.89,7.78-5.07,10.54-8.93Q153.14,47.81,168,27.14c2.44-3.36,5.3-5.92,9.44-2.05a49.92,49.92,0,0,0-5,5.43c-7.56,10.7-15.29,21.28-22.91,31.94-1.42,2-3.27,3.83-3,6.59l0,0A3.3,3.3,0,0,0,144,71.29l-5.52,7.31C130,79.24,127.7,82.27,129.43,90.51Z"/><path class="cls-5" d="M93.7,88.21C89,92.32,86,91.74,81.8,85.89c-.1-1.1-.21-2.19-.31-3.29C81.55,79,79.1,76.9,77,74.53,65,61.27,53.09,48,41.29,34.67c-4.31-4.88-3.11-8.8,3-11.26-1.88,3.89-.82,7.05,2.06,10.11,4.48,4.77,8.58,9.91,13.1,14.64,8.55,9,16,18.89,25.25,27.23l0,0c.37.37.73.74,1.1,1.1v0C85.85,86,86.92,87.64,93.7,88.21Z"/><path class="cls-6" d="M58.54,145c-.34-13.15-.92-26.3.3-39.44.47,1.69.88,3.4,1.43,5.08q6.91,21.17,13.88,42.33C68.33,151.48,62.61,149.85,58.54,145Z"/><path class="cls-7" d="M86.82,78C77.15,69.24,69.29,58.8,60.3,49.4,55.54,44.43,51.24,39,46.53,34c-3-3.21-4.14-6.53-2.16-10.62,2.93-.51,5.08.82,6.7,3.06q17.58,24.42,35.08,48.9A7.71,7.71,0,0,1,86.82,78Z"/><path class="cls-8" d="M81.49,82.6c.1,1.1.21,2.19.31,3.29C75.62,91,75.54,96,81.7,101.64a47.48,47.48,0,0,0,5.12,3.6L75.3,103.76c-5.76-2.33-12.42-2.93-16.46-8.57C58.08,91,61,89.21,64,87.7A55.22,55.22,0,0,1,81.49,82.6Z"/><path class="cls-9" d="M160.47,145.53c-4.24,4.17-9.58,6.08-15.22,7.36,4.56-14.85,9.14-29.7,15.09-44.07Q160.4,127.18,160.47,145.53Z"/><path class="cls-7" d="M142.36,73.43c-.26-3,1.83-5.07,3.44-7.25,8.65-11.72,17.42-23.36,26-35.12,1.66-2.28,3.79-4,5.71-6,4.82,2.28,4.56,6.14,1.81,9.17C167.25,47.54,155.6,61.19,142.36,73.43Z"/><path class="cls-10" d="M160.34,108.82c-6,14.37-10.53,29.22-15.09,44.07-1.34,2.2-2.72,4.2-5.29,1.26,0-.32,0-.64.07-1l2.13-6.13L155,108.62c1.07-2.34,1.89-5,5.4-4.2Z"/><path class="cls-11" d="M74.15,152.94q-6.95-21.16-13.88-42.33c-.55-1.68-1-3.39-1.43-5.08.09-.4.19-.8.28-1.19,3.52-.78,4.07,2.12,5.23,4.24,3.12,10.55,6.31,21.07,10.64,31.19.74,2.41,1.48,4.81,2.21,7.22l-2.37,6.37A1.16,1.16,0,0,1,74.15,152.94Z"/><path class="cls-12" d="M74.15,152.94a1.23,1.23,0,0,0,.68.43c.13.61.26,1.23.38,1.84,0,2-.07,4-.11,6-2.36-.63-4.78-1.08-7.07-1.91-8.7-3.16-9.8-4.89-9.5-14.31C62.61,149.85,68.33,151.48,74.15,152.94Z"/><path class="cls-13" d="M64.35,108.58c-1.16-2.12-1.71-5-5.23-4.24-2.42-3-.45-6.09-.28-9.15,4,5.64,10.7,6.24,16.46,8.57l-.24,8C71.24,111.53,67.9,109.71,64.35,108.58Z"/><path class="cls-7" d="M93.7,88.21c-6.78-.57-7.85-2.17-7.92-11.8,4-.16,7.42.86,9.63,4.5C95.56,83.51,96.19,86.23,93.7,88.21Z"/><path class="cls-7" d="M129.43,90.51c-1.73-8.24.57-11.27,9-11.91-.18,1.35-.35,2.69-.52,4C137.19,87.53,135.31,91.18,129.43,90.51Z"/><path class="cls-14" d="M112.08,64.52c-.49,2.27.94,5.59-2.41,5.74-3,.14-2.43-3-2.31-4.91.13-2.18-1.28-5.76,2.49-5.75C112.77,59.6,111.54,62.86,112.08,64.52Z"/><path class="cls-15" d="M126.67,66c-1.59,2.46-1.9,6.25-5.49,7.42a1.7,1.7,0,0,1-2-2.32c1.27-2.76,2-6.15,5.15-7.48C125.72,63,126.57,64.19,126.67,66Z"/><path class="cls-15" d="M94.47,63.43c2.33.17,6.41,7.34,5.38,9a2.3,2.3,0,0,1-1.64,1c-2.77-.35-3.07-3-4.25-4.85-.82-1.25-2-2.61-.92-4.27C93.38,63.81,94.16,63.62,94.47,63.43Z"/><path class="cls-7" d="M85.78,76.45c-.37-.36-.73-.73-1.1-1.1C85.05,75.72,85.41,76.09,85.78,76.45Z"/><polygon class="cls-10" points="160.59 95.12 160.62 94.92 160.81 95.05 160.59 95.12"/><path class="cls-9" d="M155,108.62l-12.81,38.44c-5.85-10-9.76-21-15.14-31.24,0-.3,0-.6,0-.91C136.58,113.82,146,112.37,155,108.62Z"/><path class="cls-9" d="M97.69,115.28a174,174,0,0,0,24.06,0c-3.92,11.38-7.27,23-12.43,33.9q-6-16.63-12-33.25A4,4,0,0,0,97.69,115.28Z"/><path class="cls-9" d="M77.2,147c-.73-2.41-1.47-4.81-2.21-7.22q.12-13.67.26-27.34l17,2.49C87.62,125.79,82.88,136.61,77.2,147Z"/><path class="cls-10" d="M109.32,149.17c5.16-10.93,8.51-22.52,12.43-33.9,1.57-3.07,3.36-2.8,5.3-.36,0,.31,0,.61,0,.91a10.43,10.43,0,0,0-2.17,5.49c-4.77,11.54-8.67,23.39-12.47,35.27-1.79,2.81-3.6,2.9-5.43,0l.38-.5A13.57,13.57,0,0,0,109.32,149.17Z"/><path class="cls-10" d="M77.2,147c5.68-10.38,10.42-21.2,15.07-32.07,2-2.68,3.79-2.41,5.42.36a4,4,0,0,1-.36.64,15.39,15.39,0,0,0-3,5.69q-7.47,16.24-14.95,32.51c-1.13,1.38-2.47,1.95-4.19,1.09-.12-.61-.25-1.23-.38-1.84Z"/><path class="cls-6" d="M75.25,112.43q-.14,13.66-.26,27.34c-4.33-10.12-7.52-20.64-10.64-31.19,3.55,1.13,6.89,3,10.71,3.14A4.38,4.38,0,0,1,75.25,112.43Z"/><path class="cls-9" d="M112.38,156.58c3.8-11.88,7.7-23.73,12.47-35.27L140,153.19c0,.32,0,.64-.07,1A144.92,144.92,0,0,1,112.38,156.58Z"/><path class="cls-9" d="M79.4,154.12q7.48-16.26,14.95-32.51c.93,2.08,2,4.11,2.76,6.24,3.45,9.4,6.82,18.83,10.22,28.25l-.38.5A142.33,142.33,0,0,1,79.4,154.12Z"/><path class="cls-11" d="M140,153.19l-15.18-31.88a10.43,10.43,0,0,1,2.17-5.49c5.38,10.25,9.29,21.21,15.14,31.24Z"/><path class="cls-11" d="M107.33,156.1c-3.4-9.42-6.77-18.85-10.22-28.25-.78-2.13-1.83-4.16-2.76-6.24a15.39,15.39,0,0,1,3-5.69q6,16.62,12,33.25A13.57,13.57,0,0,1,107.33,156.1Z"/></g></svg>