<svg xmlns="http://www.w3.org/2000/svg" viewBox="0 0 220 200"><defs><style>.cls-1{fill:#fff;}.cls-2,.cls-3{fill:#006937;}.cls-3{font-size:6.84px;font-family:ArialRoundedMTBold, Arial Rounded MT Bold;}</style></defs><g id="Layer_5" data-name="Layer 5"><rect class="cls-1" width="220" height="200"/><path class="cls-2" d="M189.71,92.78A1.06,1.06,0,0,0,189,92c-.86-.26-2.18.43-3.81,2-1.39,1.34-4.07,3.82-5.85,5.36-1,.78-1.39.74-1.64.58-.57-.4-.36-1,.06-2a6.9,6.9,0,0,0,.3-.75c.45-1.59,1-3.14,1.51-4.64.3-.89.61-1.77.9-2.68l.07-.21c.23-.78.56-1.86-.92-2.59a1.86,1.86,0,0,0-1.5-.22,2.18,2.18,0,0,0-1.17,1.3c-.52,1.13-1.05,2.42-1.51,3.73-1.15,3.15-5.94,8.17-8.42,8.17h0a1,1,0,0,1-.93-.51c-.81-1.24-.43-4.44.87-7.45,1.44-3.32,1.87-5.06,1.47-6a1.42,1.42,0,0,0-.88-.79c-1.3-.51-2.53.34-3.38,2.33a34.21,34.21,0,0,0-1.86,5.49l-1.38,1.59c-2.39,2.76-5.1,5.89-6.12,5.91a.13.13,0,0,1-.12,0c-.47-.67,1-4.37,1.64-6.15.31-.8.55-1.43.66-1.8l.09-.3c.5-1.72,1.2-4.07.26-5.3a2.16,2.16,0,0,0-1.88-.76,14.24,14.24,0,0,0-5,1.31l5.63-5.76c4.66-4.78,5.71-6.5,8-13.12a13.52,13.52,0,0,0,.88-4.25,4,4,0,0,0-1.18-3.18,4.67,4.67,0,0,0-3.9-.69,9,9,0,0,0-5.31,3.28c-3.71,4.36-4.32,5.23-6.64,10.53a90.33,90.33,0,0,0-4,12.08L143,89.82c-.1.34-.38,1.53-.74,3-.05.24-.11.49-.17.75a21.8,21.8,0,0,0-1.53,1.83l-.31.41c-3.8,4.84-5.54,5.42-6.11,5.44a1.67,1.67,0,0,1-1.25-.54,2,2,0,0,1-.62-1.51c.13-1.65,1.53-5.44,2.28-7.48.13-.35.25-.65.33-.88.44-1.23.72-2.18.93-2.87.58-1.9.58-1.9,1.73-1.9.91-.06,1.43-.12,1.86-.18a11.87,11.87,0,0,1,2.58-.06,1.81,1.81,0,0,0,1.43-.48,2.15,2.15,0,0,0,.55-1.65,1.1,1.1,0,0,0-.37-.79,3.27,3.27,0,0,0-2.31-.34,26,26,0,0,1-2.68.26,13,13,0,0,1,1.08-2.44c.15-.28.27-.5.33-.64.65-1.53.15-2.22-.39-2.53a3,3,0,0,0-3,.28,14.28,14.28,0,0,0-1.42,2.82c-.23.55-.48,1.17-.87,2s-.35.72-1.56.62a11.3,11.3,0,0,0-4,.35,1.57,1.57,0,0,0-1,.84,1.62,1.62,0,0,0,0,1.34,1.87,1.87,0,0,0,2.08,1,24,24,0,0,1,2.51-.1c-.16.45-.6,1.4-1,2.32-.64,1.38-1.46,3.17-2.14,4.93-.25.24-.47.48-.65.67-.82,1.07-1.65,2.08-2.45,3.06-.65.8-1.3,1.59-2,2.42s-2.74,3.27-4.9,3.42a2.06,2.06,0,0,1-1.76-1.25,4.82,4.82,0,0,1,.17-5c3.06-4.32,6-8.76,8.28-12.14,3.71-5.53,4.24-7.89,5.64-14.22l.19-.88a14.14,14.14,0,0,0,.05-4.85,3.19,3.19,0,0,0-1.44-2.11,2.71,2.71,0,0,0-2.22,0,10.33,10.33,0,0,0-4.49,3.78,37.9,37.9,0,0,0-3,5.4c-.37.75-.73,1.5-1.11,2.24-3.28,6.56-4.49,9.2-6,16.5a28.38,28.38,0,0,0-.52,3.82,2.72,2.72,0,0,0-1.14,1l-1,1.38c-2.63,3.6-5.6,7.68-6.79,7.86a.84.84,0,0,1-.72-.28c-.24-.27-.59-.92-.24-2.37a57.78,57.78,0,0,1,1.92-5.68c.67-1.82,1.31-3.53,1.7-5,.06-.2.09-.7-.83-1s-2.72-.32-3,.57l-.1.24a6.43,6.43,0,0,1-.41.86l-.13.2a3.81,3.81,0,0,1-.22.34,5.42,5.42,0,0,0-5-1.77c-4.27.66-7.39,4.12-8.81,7.6a3.26,3.26,0,0,0-.71.79c-4,6.14-6.31,9.6-8.72,9.35a3.43,3.43,0,0,1-2-1.35,3.65,3.65,0,0,1-.78-2.74,7,7,0,0,1,1.71-1,17.64,17.64,0,0,0,4.45-2.74,6.76,6.76,0,0,0,2.34-5.34,3.81,3.81,0,0,0-1.62-3c-1.56-1.08-4.22-.48-5.78.68a4.26,4.26,0,0,0-1,.79c-2.76,3-4.44,5.08-4.26,10.58h0c.14,4.13,3.12,7.68,6.41,7.68h.12c4.77-.15,7.06-3,9.47-6.93.84,2.89,2.44,4.32,4.85,4.32a8.34,8.34,0,0,0,1.08-.08c2-.31,3.81-2.22,5-3.48.28-.3.52-.55.7-.72l0,0c.82,1.15,2.34,3.23,5,2.82,3.28-.5,5.84-4.3,8.1-7.64l.55-.82a10.59,10.59,0,0,0,2.12,5.4,4.36,4.36,0,0,0,3.4,1.58h.38c3.68-.27,5.81-2.27,9-6.16a8.28,8.28,0,0,0,.49,1.48,5,5,0,0,0,5.09,3.35h.42c1.88-.08,3.55-1.67,5.94-4.36-.05.15-.09.29-.13.4l0,.09c-.33,1-.67,2,.92,3a2.56,2.56,0,0,0,1.32.46,1.33,1.33,0,0,0,.49-.09,1.89,1.89,0,0,0,1-1.39c2.07-8.16,8.52-13.23,10.06-13.41a15.3,15.3,0,0,1-1.13,3.24c-1.38,3.31-3.25,7.85-1.81,10a3,3,0,0,0,2.75,1.14c2.8-.06,5.28-2.49,8-5.5a6.73,6.73,0,0,0,1,3.14,3.78,3.78,0,0,0,3.33,1.73h0c2.65,0,5.31-2,6.74-3.09-.13.42-.29.94-.44,1.53a5.53,5.53,0,0,1-2.23,2.71,25.28,25.28,0,0,0-8.72,6.2h0c-3.5,3.85-5.61,11.09-4.43,15.19a3.45,3.45,0,0,0,2.3,2.64,7.51,7.51,0,0,0,2.05.31c3.59,0,5.7-3.2,8.15-7.57a45.48,45.48,0,0,0,4.74-11.65c.6-2.74,2.18-4.4,4.53-6.19a97.42,97.42,0,0,0,8.64-7.27l1.24-1.13A3.17,3.17,0,0,0,189.71,92.78ZM125.2,71.65l.28-.55A12.92,12.92,0,0,1,128,67.27c.17-.2.26-.27.36-.27l.11,0c.23.08.26.15.26.72a24.77,24.77,0,0,1-1,5.53c-2,6.12-3.49,8.34-6.53,12.75-.43.63-.9,1.3-1.4,2h0a7.32,7.32,0,0,0-.39.7c-.54,1-1,1.79-1.68,1.56C116.87,89.5,122.13,77.44,125.2,71.65ZM76.32,100.41c.64-2.48,1.77-3.4,4-4.77a2.2,2.2,0,0,1,1-.34.26.26,0,0,1,.19.06c.13.14.1.73-.52,1.82h0c-.58,1-2,2-4.21,3.11l-.1,0-.31.11ZM100,97.61c-1.47,5.18-3.52,8-6.11,8.41-1.1.16-2-.87-2.3-2.53-.65-4.23,2.77-9,5.79-9.47a2.56,2.56,0,0,1,2.13.87A2.77,2.77,0,0,1,100,97.61Zm48.11-11.76c-.19-.8,1.08-4.79,2.44-7.62.37-.75.74-1.57,1.13-2.41,1.39-3,3-6.45,4.89-8.59.26-.28.49-.55.71-.82a5.21,5.21,0,0,1,2.34-1.88,2,2,0,0,1,.7-.15,1,1,0,0,1,.58.18,1.61,1.61,0,0,1,.51,1.39c0,1.06-2.43,5.72-3.7,8A116.94,116.94,0,0,1,148.08,85.85ZM170.22,109c-1.43,5.84-4.51,13.59-8.47,16.22-.43.28-.6.16-.66.12-.56-.41-.7-2.62,0-5.13,1.68-5.91,4.64-9.76,8.83-11.45a.49.49,0,0,1,.24-.07h0S170.26,108.79,170.22,109Z"/><path class="cls-2" d="M116.3,131.62h-1.37a.27.27,0,0,0-.3.3v4.77c0,.59-.28.92-.95.92s-1-.33-1-.92v-4.77a.28.28,0,0,0-.31-.3h-1.37a.27.27,0,0,0-.3.3V137c0,1.66,1.28,2.55,2.93,2.55s2.93-.89,2.93-2.55v-5.07A.28.28,0,0,0,116.3,131.62Z"/><path class="cls-2" d="M122.34,131.62h-4a.27.27,0,0,0-.3.3v7.15a.27.27,0,0,0,.3.3h1.37a.27.27,0,0,0,.3-.3v-2.25h2.31a.27.27,0,0,0,.3-.3v-1.31a.27.27,0,0,0-.3-.3H120v-1.38h2.37a.27.27,0,0,0,.3-.3v-1.31A.27.27,0,0,0,122.34,131.62Z"/><path class="cls-2" d="M101.77,134.67c-.69-.22-1.23-.4-1.23-.83,0-.28.23-.5.7-.5s.65.14.74.43.14.28.32.28h1.39a.28.28,0,0,0,.3-.32,2.49,2.49,0,0,0-2.75-2.28,2.4,2.4,0,0,0-2.67,2.38c0,1.63,1.37,2.17,2.45,2.52.67.21,1.22.38,1.22.78s-.24.53-.82.53-.84-.16-.93-.48-.14-.28-.32-.28H98.78a.27.27,0,0,0-.3.31c.15,1.64,1.42,2.33,2.93,2.33s2.8-.8,2.8-2.38S102.84,135,101.77,134.67Z"/><path class="cls-2" d="M109.59,131.62h-4.76a.27.27,0,0,0-.3.3v1.31a.27.27,0,0,0,.3.3h1.39v5.54a.27.27,0,0,0,.3.3h1.37a.28.28,0,0,0,.31-.3v-5.54h1.39a.27.27,0,0,0,.3-.3v-1.31A.27.27,0,0,0,109.59,131.62Z"/><path class="cls-2" d="M128.14,131.62h-4a.28.28,0,0,0-.31.3v7.15a.28.28,0,0,0,.31.3h1.37a.27.27,0,0,0,.3-.3v-2.25h2.31a.27.27,0,0,0,.3-.3v-1.31a.27.27,0,0,0-.3-.3h-2.31v-1.38h2.36a.28.28,0,0,0,.31-.3v-1.31A.28.28,0,0,0,128.14,131.62Z"/><path class="cls-2" d="M46.94,125.64a37.68,37.68,0,0,0,3-7l.13-.33c2-5.45,2.61-10,3.6-16.86l.44-2.88c.56-4.3.56-4.3,1.79-4.82l7.47-3.34c.78-.45.91-.35,1-.27a1.43,1.43,0,0,1-.07.36,6.89,6.89,0,0,0-.21,1,208.25,208.25,0,0,0-1.86,22.22l-.06.33a2.25,2.25,0,0,0,.67,1.9,2,2,0,0,0,1.87.24c1.79-.47,1.92-1,2.06-2.21,0-.13,0-.27,0-.41.14-.93.25-3.11.37-5.65.17-3.34.37-7.5.73-10.11.22-1.66.41-4.07.57-6.19.07-.89.14-1.73.2-2.44a1.72,1.72,0,0,1,1.17-1.58,36.6,36.6,0,0,0,7.52-4.14l.07,0c5-3.21,7.64-7,8.24-11.48a6.57,6.57,0,0,0-2-6.13A8.63,8.63,0,0,0,77.61,64a6.57,6.57,0,0,0-2.83.78,9,9,0,0,0-3.67,3.71c-2.6,4.71-4.5,8.79-5.37,13.4-.06.38-.12.71-.17,1-.33,2.05-.35,2.13-1.31,2.58L56.94,88.8c-.59.26-1.13.47-1.75.7l-.41.15h0l.1-1.12c0-.27,0-.55,0-.83,0-.74.09-1.52.21-2.25.67-4.47,1.71-9.66,4.31-14.26l.06-.2A3.14,3.14,0,0,0,60,68.67a2.13,2.13,0,0,0-1.16-1.29,2.44,2.44,0,0,0-1.5-.31c-.7.12-1.19.65-1.5,1.62a.54.54,0,0,1-.07.13.63.63,0,0,1-.1.17l0,.06a15.37,15.37,0,0,1-8.05,6.46c-.9.39-1.82.73-2.72,1.06l-1,.37c-1.4.49-3,1-4.5,1.71a10.44,10.44,0,0,0-6.31,6.6A4.78,4.78,0,0,0,33,87.61a2.26,2.26,0,0,0,2.3,1.9,1.5,1.5,0,0,0,1.18-.38A1.46,1.46,0,0,0,36.89,88c-.09-3.76,2.94-5.25,6.06-6.47.45-.19.93-.35,1.4-.51l.74-.25a37.91,37.91,0,0,0,7.3-3.27l-.54,2.78a56.87,56.87,0,0,0-1.34,9.62,3.07,3.07,0,0,1-2,3c-8.33,4.2-14,9.46-17.22,16.08a18.44,18.44,0,0,0-1.14,13.22c1,3.78,4.31,5.7,7.38,7.2a4.17,4.17,0,0,0,1.74.34c.25,0,.49,0,.73,0a14.25,14.25,0,0,0,2.46-.56A7.83,7.83,0,0,0,46.94,125.64ZM75.54,68.9l.16-.22c.13-.11.23-.23.33-.33a1.38,1.38,0,0,1,.3-.29,2.87,2.87,0,0,1,.68-.34,5,5,0,0,1,3.53.28h0A4.08,4.08,0,0,1,82,71.62a10.61,10.61,0,0,1-3.36,5.88,83,83,0,0,1-9.21,5.8C70.66,78.46,72.24,73.06,75.54,68.9ZM43.39,123.54a4.23,4.23,0,0,1-2.34,1.87,5.66,5.66,0,0,1-3.8-.35A6.41,6.41,0,0,1,34,121.92a10.76,10.76,0,0,1-.62-6.87,26.71,26.71,0,0,1,12-15.83c1.36-.85,2.71-1.67,4-2.43l.71-.42,0,0c0,.08,0,.13,0,.16l-.29,2.56c-.09.66-.17,1.32-.25,2-.17,1.37-.33,2.78-.6,4.13l-.34,1.94a68.79,68.79,0,0,1-2.43,10.16c-.71,1.9-1.6,3.74-2.46,5.52Z"/><path class="cls-2" d="M151.07,118.22A191.07,191.07,0,0,0,44.32,136.11c-1.78.86-.23,3.52,1.55,2.66a188.16,188.16,0,0,1,105.2-17.47C153,121.54,153,118.46,151.07,118.22Z"/><path class="cls-2" d="M144.74,131.45a4,4,0,1,0,4.06,4.05A4,4,0,0,0,144.74,131.45Zm0,6.15a2.11,2.11,0,1,1,2.09-2.1A2,2,0,0,1,144.74,137.6Z"/><path class="cls-2" d="M139.63,136.39h-1.47a.36.36,0,0,0-.35.24,1.78,1.78,0,0,1-1.68,1,2.11,2.11,0,0,1,0-4.21,1.8,1.8,0,0,1,1.68,1,.38.38,0,0,0,.35.24h1.46a.25.25,0,0,0,.27-.34,3.81,3.81,0,0,0-3.76-2.81,4,4,0,0,0,0,8.09h0a3.8,3.8,0,0,0,3.76-2.83C139.94,136.51,139.83,136.39,139.63,136.39Z"/><rect class="cls-2" x="149.45" y="137.39" width="1.98" height="1.98" rx="0.3"/><text class="cls-3" transform="translate(180.64 111.61)">TM</text></g></svg>