<svg xmlns="http://www.w3.org/2000/svg" viewBox="0 0 220 200"><defs><style>.cls-1{fill:#124492;}.cls-2{fill:#0354a0;}.cls-3{fill:#fff;}.cls-4{fill:#0555a0;}.cls-5{fill:#0755a1;}.cls-6{fill:#0c56a1;}.cls-7{fill:#0c57a1;}.cls-8{fill:#0c58a2;}.cls-9{fill:#0e59a3;}.cls-10{fill:#0e59a2;}.cls-11{fill:#2067ab;}.cls-12{fill:#fcbd17;}.cls-13{fill:#f9bd16;}.cls-14{fill:#fefeff;}.cls-15{fill:#fdfdfe;}.cls-16{fill:#f0f5f9;}.cls-17{fill:#fcfdfe;}.cls-18{fill:#f8fbfc;}.cls-19{fill:#feffff;}.cls-20{fill:#f9fbfd;}.cls-21{fill:#0e569d;}.cls-22{fill:#0f599d;}.cls-23{fill:#10599a;}.cls-24{fill:#10589a;}.cls-25{fill:#0f589b;}.cls-26{fill:#155c96;}.cls-27{fill:#115a99;}</style></defs><g id="Layer_10" data-name="Layer 10"><rect class="cls-1" width="220" height="200"/><path class="cls-2" d="M113.34,179.37h-6.68a79.5,79.5,0,0,1-76-75.7V96.33c2.25-41.48,34.66-73.75,76-75.7h6.68c41.35,1.92,73.78,34.22,76,75.7v7.34A79.49,79.49,0,0,1,113.34,179.37Z"/><path class="cls-3" d="M110,24.58A75.42,75.42,0,1,1,34.58,99.9,75.33,75.33,0,0,1,110,24.58Z"/><path class="cls-4" d="M109.82,172.48a72.49,72.49,0,1,1,72.67-72.22A72.55,72.55,0,0,1,109.82,172.48Z"/><path class="cls-3" d="M38.39,101.81a71.61,71.61,0,1,1,73.38,69.77A71.6,71.6,0,0,1,38.39,101.81Z"/><path class="cls-2" d="M141.9,69.23c-1.05,3.46-.59,7.24-2.47,10.54-.83,1.46-.55,3.25-.79,4.88a12,12,0,0,1-1.46,4.52c-1.11,1.88-.86,3.1.84,4.48a19.34,19.34,0,0,0,2.83,2c.91.51.83.93.28,1.64-.73,1-2,2-1.84,3,.47,2.31-1.27,2.78-2.43,3.83a6.47,6.47,0,0,0-2,3.56,12.36,12.36,0,0,1-6.52,8.68,24.91,24.91,0,0,0-8.16,7.83,2.81,2.81,0,0,0-.4,1.57,6.75,6.75,0,0,1-4.07,6c-1.18.58-2.32,1.25-3.56,1.75a3.43,3.43,0,0,1-3.72-.44,14.32,14.32,0,0,0-4.1-2.09c-2.15-.8-3-1.85-2.86-4.1a6.11,6.11,0,0,0-2.62-5.26c-2.81-2.29-5.41-4.85-8.67-6.6a7.42,7.42,0,0,1-3.86-5.53,8.35,8.35,0,0,0-3.92-5.75c-.63-.42-1.55-.8-.71-1.89.32-.42-.06-.94-.37-1.35-.44-.57-.87-1.14-1.26-1.74-1.09-1.7-1-2,.85-3a18,18,0,0,0,3.23-3.07c.31-.31.1-.6,0-.9a31.85,31.85,0,0,1-2.66-11,7.63,7.63,0,0,0-.74-2.52,18.68,18.68,0,0,1-1.58-11.61,4.72,4.72,0,0,1,.15-.65c.85-2.89,1.41-3.15,4.1-1.9a41.13,41.13,0,0,1,12.83,9,1.87,1.87,0,0,0,2.16.63c7.88-2.3,15.83-2,23.77-.36a2.09,2.09,0,0,0,2.07-.57c3.41-3.08,6.79-6.21,10.8-8.48,5.18-2.93,4-2.63,6.26,2A5.29,5.29,0,0,1,141.9,69.23Z"/><path class="cls-2" d="M80.53,138a35.84,35.84,0,0,1-7.87-7.48C63.57,118.82,59.8,105.71,62.55,91c.22-1.13.66-2.22.94-3.34.2-.82.56-.79,1.15-.38a6.2,6.2,0,0,1,2.6,4.42c.36,2.32-.1,4.63.18,7a10.82,10.82,0,0,0,10.4,9.33c1.43,0,2.86-.15,4.29-.27.6-.06,1.09,0,1.3.66s-.39.8-.8,1a20.57,20.57,0,0,0-4.42,2.9,9.83,9.83,0,0,0-3.13,10.91,26.07,26.07,0,0,0,2.59,5.53,36.21,36.21,0,0,1,3,6.22A3.31,3.31,0,0,1,80.53,138Z"/><path class="cls-2" d="M83.84,140.18c1.88-2,4.23-2,6.61-1.52,2.83.49,5.59,1.34,8.51,1.23,3.11-.12,5.9-.87,7.84-3.54a.86.86,0,0,1,1.11-.4,7.13,7.13,0,0,0,4.86-.24c.61-.22,1-.23,1.42.32,3.41,4.44,7.94,5.18,13.08,4,2.2-.51,4.36-1.26,6.66-1.19a5.93,5.93,0,0,1,2.88.65C123.19,149.91,98.91,151.62,83.84,140.18Z"/><path class="cls-2" d="M140.59,136.77a7.92,7.92,0,0,1,.8-5.29c.82-1.68,1.78-3.3,2.68-4.95,3.62-6.65,2.22-11.91-4.25-15.9q-.85-.51-1.74-1c-.63-.31-1.39-.47-1.18-1.48a2,2,0,0,1,1.71-1.76,11.37,11.37,0,0,1,3.44.34c5.47.85,11.26-3.82,11.46-9.34.08-2.15,0-4.31,0-6.46a6.82,6.82,0,0,1,1.82-4.86C160.14,99.79,158.33,121.52,140.59,136.77Z"/><path class="cls-2" d="M81.67,61.71c.17-.61.66-.83,1-1.1a42.76,42.76,0,0,1,24.2-8.2c1.46,0,1.6.42,1,1.58a6.51,6.51,0,0,1-3.08,3.11c-1.77.88-3.6,1.65-5.4,2.48-3.23,1.49-5.85,3.57-6.72,7.23-.27,1.12-.8.58-1.3.3C88.22,65.27,85.15,63.1,81.67,61.71Z"/><path class="cls-2" d="M137.24,60.91,128,67c-1.34-5.59-5.81-7.59-10.43-9.41-1.74-.68-3.58-1.19-4.64-2.94-.34-.57-.82-1.17-.46-1.83s1-.28,1.53-.24A45.35,45.35,0,0,1,137.24,60.91Z"/><path class="cls-5" d="M174.37,121.47a62.21,62.21,0,0,0-12.62-3c.73-2.86,1.49-6,2.35-9.11a3.06,3.06,0,0,1,3-2.48c1.66-.08,2.38,1,2.86,2.41,1.56-2.11,2.6-2.58,4.23-2s2.56,2.36,2.14,4.71C175.7,115.29,175,118.46,174.37,121.47Z"/><path class="cls-5" d="M85.81,149.45c2.89,1,5.75,2,8.6,3A4.66,4.66,0,0,1,96.53,154c1.39,1.81.33,3.89-2.4,4.56,1,.8,2.14,1.48,2,3a3.32,3.32,0,0,1-3.05,3.16,7.68,7.68,0,0,1-3.26-.41l-8.16-2.7C82.93,160.05,85.73,151.93,85.81,149.45Z"/><path class="cls-5" d="M133.53,36.44c2.57,1.25,5.35,2.57,8.11,4,2.06,1,2.76,2.43,2.31,4.41-.38,1.71-1.54,2.52-3.85,2.68-.26,0-.52.06-.87.11.93,2.07.75,4.27,1.38,6.4a6.91,6.91,0,0,1-2.21-.88c-1.15-.45-2-.77-1.62-2.57.52-2.32-.8-4-2.84-5-.66-.33-1-.24-1.27.39a7.53,7.53,0,0,0-1.1,3.9c-.77-.36-1.4-.65-2-1s-1.26-.66-1.73-.9A53.05,53.05,0,0,0,133.53,36.44Z"/><path class="cls-5" d="M71.87,141.55A6.75,6.75,0,0,1,65,148.14c-3.86,0-8.08-4.26-8.07-8,0-3.39,3.48-6.68,7-6.63C67.9,133.53,71.89,137.59,71.87,141.55Z"/><path class="cls-5" d="M62.38,128.39A6.82,6.82,0,0,1,55.52,135c-3.86,0-7.51-4.28-7.46-8.68,0-3.39,3.29-6.34,7-6.37S62.4,124.13,62.38,128.39Z"/><path class="cls-5" d="M56.79,67.7c1.3,1.22,1.63,2.47.61,4-.46.68-.69,1.51-1.13,2.2-.69,1.05-.36,1.53.69,2.12,1.26.72,1.79.43,2.29-.82,1-2.62,3-4.91,2.71-8.32,1,.88,1.46,1.87,2.34,2.42.37.23.15.55,0,.86-1.83,3.58-3.65,7.17-5.4,10.62A56,56,0,0,0,47.31,74.9c1.77-3.44,3.66-7.08,5.52-10.74.26-.5.55-.4.94-.25.56.23,1.14.41,1.85.65-2.59,2-3.29,5.06-4.77,7.65-.13.24-.35.56,0,.72A8.26,8.26,0,0,0,53.36,74c.59.09.7-.87,1-1.39C55.16,71,56,69.38,56.79,67.7Z"/><path class="cls-5" d="M86,39.92c-3,.51-5.4,2.1-8,3.27-1.14.53-.76,1.07-.34,1.75s.52,1.8,1.85,1c1.62-1,3.35-1.88,5.07-2.84a2.42,2.42,0,0,1-1.54,3.39c-.61.25-1.18.58-1.77.88-1.91,1-1.84.94-.91,2.8.51,1,1,1,1.85.5,2.51-1.56,5.44-2.49,7.3-5.2.35,1,0,2,.42,2.85.32.63-.3.73-.64.92L79.08,54.73A50.74,50.74,0,0,0,73,43.46c3.32-1.77,7-3.69,10.56-5.63.36-.2.56-.18.82.15C84.83,38.58,85.35,39.14,86,39.92Z"/><path class="cls-5" d="M125.39,39.38a2.75,2.75,0,0,1-3.55,1.86,13.32,13.32,0,0,1-1.94-.39c-1.68-.72-2.06.14-2.26,1.58-.14,1,0,1.48,1.16,1.6,2.8.31,5.5,1.79,8.6.42-.44,1-.84,1.8-1.09,2.61-.18.61-.52.42-.89.35l-11.83-2.23A49.81,49.81,0,0,0,116,32.59l8.46,1.48,1.13.23c2.7.44,2.7.44,2.71,3.49-2.54-1.61-5.42-1.78-8.18-2.41-.92-.22-1.23.15-1.24.94s-1,1.81.55,2.1A27.65,27.65,0,0,0,125.39,39.38Z"/><path class="cls-5" d="M99.62,166.79l-4.09-1a112.92,112.92,0,0,0,6.66-10.91c.38-.66.68-.7,1.33-.74,2.82-.17,4.2,1,4.89,3.83a39.58,39.58,0,0,0,3.48,9.52h-3.48c-.44,0-.72,0-.57-.63.37-1.6-.34-2.31-2-2.33-1.37,0-2.75-.22-4.12-.37-1.93-.21-2.11-.07-2.11,1.84Z"/><path class="cls-5" d="M90.53,45.28a14.23,14.23,0,0,0,5.89,0,12.47,12.47,0,0,0,1.86-.66,1.37,1.37,0,0,0,.77-1.66,1.29,1.29,0,0,0-1.43-1.1c-1.49,0-3,.13-4.48.14-2.22,0-3.51-.84-3.93-2.54a4,4,0,0,1,2.36-4.33c2.28-1.08,4.8-1.17,7.23-1.66.65-.14.58.3.59.67,0,.77,0,1.54,0,2.38a12.79,12.79,0,0,0-5.65.1c-.79.23-1.5.56-1.34,1.57s1,1.07,1.8,1a21.65,21.65,0,0,1,5-.06,3.22,3.22,0,0,1,3.12,2.7,4,4,0,0,1-1.89,4.1c-2.43,1.45-5.22,1.72-7.89,2.36-.51.12-.67-.22-.84-.59C91.32,46.91,91,46.18,90.53,45.28Z"/><path class="cls-5" d="M161.31,120a5.84,5.84,0,0,0,2.44,2.22c1,.56,2,1.16,3,1.71,2,1.08,4,2.27,3.83,4.89a9.18,9.18,0,0,1-4.11,7.06c-1.47,1-3.08.63-4.56-.17s-3.09-1.71-4.59-2.63a3.87,3.87,0,0,0-2.92-.56l2.13-3.88a32.91,32.91,0,0,0,7,4.44c1.38.75,2.6.18,3.44-1s1.62-2.6.41-3.76a21.61,21.61,0,0,0-8.18-4.55C159.87,122.63,160.54,121.39,161.31,120Z"/><path class="cls-5" d="M69.77,46a12.34,12.34,0,0,1,1.17,2.73,8.86,8.86,0,0,0-4.5,3c-1.44,1.78-1.22,3.61.65,5.59,1.63,1.71,3.32,1.93,5.14.59a10.61,10.61,0,0,0,3.6-4.63c.16.06.28.06.34.12.64.68,1.61,1.31,1.77,2.09.09.49-1.09,1.2-1.64,1.85a15.27,15.27,0,0,1-3.5,3.26c-2.85,1.77-5.92,1.52-8-.68-2.6-2.75-3-6-.94-8.88a15.08,15.08,0,0,1,4-3.71Z"/><path class="cls-5" d="M147.09,140.78l.86,2.92a7.39,7.39,0,0,0-4.74,2.18,4.27,4.27,0,0,0,.09,6.22c1.64,1.79,3.69,1.9,5.74.34a12.62,12.62,0,0,0,3.15-3.74l2,2.49c-1.53,1.26-2.95,2.62-4.56,3.7-3.58,2.4-6.9,2-9.23-1.07s-1.94-6.59,1-9.49C143,142.74,145.15,142.11,147.09,140.78Z"/><path class="cls-5" d="M154.73,63a1,1,0,0,1-.07.27c-1.73,2-1.71,2-3.76.52a15.23,15.23,0,0,1-3.5-3.25c-2.09-2.87-2-5.56.23-8.13A6.59,6.59,0,0,1,156,50.79c2.34,1.23,3.62,3.51,5.3,5.38a.64.64,0,0,1,.14.41,12,12,0,0,1-2.31,1.19c-.55.17-.48-.6-.63-.94a7.44,7.44,0,0,0-2.12-2.92,4.18,4.18,0,0,0-6.18.51q-2.78,3,.23,5.95A12.94,12.94,0,0,0,154.73,63Z"/><path class="cls-5" d="M77.24,65.42a16.1,16.1,0,0,0-.9,8.08.85.85,0,0,1-.34.87c-2.16,1.55-3.46,3.84-5.12,5.81-1.3,1.56-2.76,2.87-4.88,3.12-.6.08-1.06.1-.83-.84C66.28,78,73.16,68.1,77.24,65.42Z"/><path class="cls-4" d="M82.51,138.47c1-3.3-.39-6-1.86-8.72s-3.33-4.92-3.91-8c-.85-4.58,1.84-8.9,6.76-10.85.37-.15.77-.35.89.25s.31,1.08-.38,1.44a21.82,21.82,0,0,0-2.14,1.26c-3.48,2.41-4.52,5.71-3.11,9.7a33.76,33.76,0,0,0,2.48,5c1.24,2.23,2.36,4.5,2.25,7.16,0,.8.33,1.24,1.09.88,1.91-.92,3.91-.54,5.88-.56a54.79,54.79,0,0,0,9.58-.56,6.79,6.79,0,0,0,3.33-1.37,1.06,1.06,0,0,1,1.61,0c.58.62-.19,1-.49,1.33-2.14,2.49-4.95,2.94-8,2.48-2.29-.36-4.56-.83-6.84-1.23A8.5,8.5,0,0,0,82.51,138.47Z"/><path class="cls-5" d="M52.54,118.22c-1.68-.17-2.87-.7-3-2.51a2.88,2.88,0,0,0-.17-.64c-.29-1-.06-2.72-1-3-1.29-.4-2.77.3-4,1.07-.23.14-.44.3-.71.48-.11-.33-.22-.59-.28-.85-.23-1.07-.44-2.14-.67-3.23,2,.26,10.28-1.79,12.38-3,.7,3,1.28,6,2.15,9,.49,1.64.32,2.64-1.4,3.15a4.7,4.7,0,0,0-.9.49c.58-2.71-.24-5.11-.76-7.55-.33-1.58-1.31-.69-2-.61s-1.61.1-1.25,1.34C51.5,114.22,51.67,116.26,52.54,118.22Z"/><path class="cls-5" d="M170.2,87.61c2.13.36,3.76,2.25,6.14,1.89.31,0,.29.27.33.47.25,1.18.49,2.36.79,3.84-2.67-1.27-5.17-2.31-7.53-3.63a4.83,4.83,0,0,0-6.15.72c-.32-1.48-.62-2.87-1-4.42,2.72.72,4.7-.26,6.37-2.31s3.3-3.71,5-5.56c0,0,.18.07.19.13.39,2.05,1.8,4.27-1.36,5.59a15.67,15.67,0,0,0-3.26,2.52Z"/><path class="cls-5" d="M160.09,78.38l-2-4c1.85.32,3.13-.77,4.55-1.39s2.75-1.41,4.18-2c1.17-.47,1.1-1,.53-1.94a12.92,12.92,0,0,0-2.34-2.94c.95-.51,2-.1,2.78-.6.27-.17.47.34.62.64,1.53,3.17,3.06,6.35,4.6,9.51.24.5.39.83-.32,1.14a8.42,8.42,0,0,0-1.61,1.29,16.86,16.86,0,0,0-1.17-4c-.22-.44-.4-1-1.07-.63C166,75.05,162.62,75.86,160.09,78.38Z"/><path class="cls-5" d="M83.49,151.68a12.62,12.62,0,0,0-2.95-3.08c-.62-.46-1-.45-1.42.26C77.78,150.94,76.37,153,75,155a5.08,5.08,0,0,0-.6,2.33L70.87,155c2.29-2.44,3.83-5.35,5.75-8,.48-.66.2-.93-.35-1.26a12.62,12.62,0,0,0-4-1.59c.38-1,1.43-1.1,1.9-1.83.36-.55.68,0,.95.13,3,1.92,5.9,3.87,8.85,5.79.52.34.83.55.32,1.24A8.48,8.48,0,0,0,83.49,151.68Z"/><path class="cls-5" d="M110.05,45.34l-4,.22c.26-3.4-.12-6.69-.19-10,0-.8-.61-.64-1.07-.62a10.29,10.29,0,0,0-4,1c-.13-1,.48-1.7.34-2.55-.1-.63.46-.5.8-.51,3.53-.12,7.07-.22,10.61-.35.64,0,1,.11,1.13.83a11.43,11.43,0,0,0,.65,2c-1.49-.22-2.87-.45-4.27-.63-.47-.06-1.07-.13-1,.66.14,3,.28,6,.47,8.94C109.47,44.58,109.76,44.85,110.05,45.34Z"/><path class="cls-5" d="M143.82,66.58a30.78,30.78,0,0,1,5,5.6,35.57,35.57,0,0,1,4.76,8.65c.15.4.52.89.2,1.22s-.94,0-1.38-.11a8,8,0,0,1-2.71-1.84c-2.09-2-3.62-4.61-6.15-6.21a.69.69,0,0,1-.28-.86A20.93,20.93,0,0,0,143.82,66.58Z"/><path class="cls-5" d="M56,93.39a50.45,50.45,0,0,0-12.63-2.86l.93-4.26a4.16,4.16,0,0,0,2.76,1.55c2.17.39,4.32.91,6.46,1.44.76.19,1.09,0,1.25-.74C55.27,86,56,83.6,55.26,81c1.08.38,1.64,1.33,2.65,1.58.55.13.38.62.3,1C57.48,86.84,56.73,90.17,56,93.39Z"/><path class="cls-5" d="M147.64,139.93l2.38-2.68c2.07,2.71,4.9,4.46,7.31,6.68.47.43.77.2,1.09-.17,1.68-2,3.59-3.78,4.1-6.52.85.77.87,2,1.74,2.65.32.25,0,.5-.15.68l-6.88,7.94C154.5,145.11,151.1,142.67,147.64,139.93Z"/><path class="cls-5" d="M112.3,154.76l3.8-.46c-.26,3.42.69,6.6,1,9.85,0,.73.63.64,1.12.58,2.45-.29,5-.42,7.17-2.19-.16,1.19-.32,2.1-.4,3,0,.36-.19.47-.49.51l-10.52,1.45C114.13,163,113.17,159,112.3,154.76Z"/><path class="cls-5" d="M137.65,158.26a16,16,0,0,0,0,2.84c.13.6-.17.66-.52.78l-9.61,3.28a52.93,52.93,0,0,0-4.26-12l4-1.45a3.64,3.64,0,0,0,.19,3c.76,2.07,1.46,4.15,2.15,6.24.26.81.57,1.19,1.5.79C133.28,160.84,135.66,160.37,137.65,158.26Z"/><path class="cls-6" d="M66.5,85.69c3,3.21,2.84,7.45,4,11.26s2.94,6.8,7,7.93c1.13.32,2.41-.08,3.57.72-6.25,1.51-11-2.24-11.91-7.26-.3-1.74-.39-3.51-.61-5.27-.51-4.19-1-5.24-3.85-8,3.08.15,5.16-1.44,7-3.58a32.47,32.47,0,0,1,4.66-4.93c.33-.26.65-.66,1.09-.09s.06.66-.18,1A22.69,22.69,0,0,1,66.5,85.69Z"/><path class="cls-7" d="M129.57,136.8a14.75,14.75,0,0,1,6.49-.74c.62.07,1.29.29,1.2-.74-.16-1.94.77-3.52,1.67-5.1a41.63,41.63,0,0,0,2.39-4.71c2.31-5.77.81-9.65-4.81-12.31-.89-.42-1.85-.73-1-2,.21-.31.34-.45.76-.37,4.49.75,8.44,6.34,7.56,10.79a12,12,0,0,1-1.48,3.66c-.92,1.63-1.9,3.23-2.77,4.89-1.49,2.83-1.68,4.06-1.24,7.39-2.91-1.51-5.83-.95-8.74-.44q-.18-.1-.12-.21C129.49,136.84,129.53,136.8,129.57,136.8Z"/><path class="cls-7" d="M142.71,76.07c3.89,2.78,6.32,7.77,12.32,7.81-3.4,2.68-3.44,6.23-3.48,9.78a28.56,28.56,0,0,1-.19,4.14c-.66,4.07-2.85,6.19-6.91,6.93a12.65,12.65,0,0,1-4,.13c.46-1.06,1.35-1,2.1-1.18,5.12-.89,7.55-3.59,8-8.78.32-3.33.17-6.79,2.34-9.68.34-.46.14-.65-.33-.81C148.64,83.1,146,80,142.9,77.54A.94.94,0,0,1,142.71,76.07Z"/><path class="cls-5" d="M155.75,70.22l-2.15-3.09a51.12,51.12,0,0,0,10.52-7.35l2.08,3A70.49,70.49,0,0,0,155.75,70.22Z"/><path class="cls-5" d="M68.51,64.92l-2.35,2.9a48,48,0,0,0-10.16-8l2.36-2.93A57.29,57.29,0,0,0,68.51,64.92Z"/><path class="cls-6" d="M112.6,58c-.93-.57-1.33-1.6-2.1-2.44-1.23,2.35-3.32,3.63-5.53,4.78-1.32.69-2.65,1.36-4,2.08-3.08,1.69-5.29,4-5.21,7.9-1.45-.59-1.87-1.37-1.34-2.77a11.19,11.19,0,0,1,5.93-6.37,51.42,51.42,0,0,0,6.22-3.09c1.59-1,3.34-2,3.54-4.53l2.5,4A.28.28,0,0,1,112.6,58Z"/><path class="cls-7" d="M112.6,58l.05-.46c2.25,1.3,4.75,2,7.09,3.15,2.79,1.33,5.35,2.88,6.36,6.09.35,1.12.24,2-1,2.35a1.84,1.84,0,0,1-.44-1.19A7.14,7.14,0,0,0,121,62.87c-2-1.13-4.12-2.1-6.16-3.2A6.1,6.1,0,0,1,112.6,58Z"/><path class="cls-7" d="M129.57,136.8c0,.1,0,.21,0,.32a26.15,26.15,0,0,1-7.79,1.38,7.48,7.48,0,0,1-5.79-3.09c-.36-.43-.52-.83,0-1.29a1,1,0,0,1,1.35-.14,2.11,2.11,0,0,1,.5.44c2.67,3.1,6.06,3.56,9.82,2.7C128.26,137,128.92,136.9,129.57,136.8Z"/><path class="cls-8" d="M130.29,124.84c.4,1.58.8,3.16,1.18,4.75.24,1-.83.83-1.22,1.27s-.86-.44-1.39-.57-.25-.61-.11-.95C129.32,127.9,129.76,126.43,130.29,124.84Z"/><path class="cls-9" d="M77,89.73c.38,1.6.6,3,1.05,4.31.35,1-.14,1.43-.83,2-.84.66-1-.56-1.69-.44-.32,0-.3-.37-.18-.64A45,45,0,0,0,77,89.73Z"/><path class="cls-10" d="M91.61,125.06a28.5,28.5,0,0,0,.92,3.83c.42,1.08-.22,1.38-.83,1.93-.83.75-1-.58-1.61-.43-.29.07-.39-.34-.27-.62C90.51,128.24,90.91,126.61,91.61,125.06Z"/><path class="cls-8" d="M144.36,89.14c.4,1.62.69,3.14,1.16,4.61.33,1-.52,1.18-1,1.62-.75.72-1.08-.36-1.65-.5s0-.8.11-1.2C143.39,92.2,143.87,90.74,144.36,89.14Z"/><path class="cls-11" d="M110.49,65.83c.19,1.3.36,2.32.48,3.35,0,.39.41.94-.22,1.13a2.11,2.11,0,0,1-1.29,0c-.61-.25-.19-.79-.08-1.14A12.12,12.12,0,0,1,110.49,65.83Z"/><path class="cls-12" d="M113.9,124c-2.52-1.4-5.12-1.21-7.74-.36-.56.06-.9-.11-.77-.75.43-.3,1.35-.29.74-1.22a1,1,0,0,1,0-.94c1.77-4.46,2.06-9.21,2.62-13.9a2.18,2.18,0,0,0-1.5-2.6c-.37-.13-1-.06-.66.41,1.62,2.07.23,4.13,0,6.14-.23,2.2-.24,4.5-1.27,6.56-1,.19-1.31-.43-1.61-1.15a1.14,1.14,0,0,1-.06-.65c1.35-3.32-.31-6.2-1.12-8.63,1,2.5,2.1,5.55.12,8.7-1.09,0-1.81-.76-2.58-1.3-1.47-1-3.37-1.35-4.56-2.81C94,109.63,92,109,89.77,108.07a9.44,9.44,0,0,1-5.4-5.54,8.72,8.72,0,0,0-1.22-2.14c-1.39-2.06-1.14-3.46.86-5,2.49-1.87,2.45-2.22,1.63-5.14-1.3-4.55-3-9-3.68-13.71a25.93,25.93,0,0,0-1.82-6.35c-.77-1.83.49-3,1.1-4.44.25-.57.79-.15,1.16,0a28.28,28.28,0,0,1,5,3.15c4.07,3,7.89,6.21,11.71,9.53.07-.17.16-.27.13-.34-.77-2.45-.76-2.44,1.73-3.22,6-1.86,11.91-1.26,17.85,0,2.07.44,2.4,1.1,2.11,3.16A14.39,14.39,0,0,0,124.83,75c3.43-4.42,8-7.14,13.11-9.24.79-.33,1-.1,1.3.6.82,2.13,1.32,4.21-.05,6.33a6,6,0,0,0-.88,3c-.11,3.68-2.17,6.94-2.23,10.63a4,4,0,0,1-.53,1.39c-1.64,3.55-1.2,5.83,1.89,8.09,1.26.93,1.36,1.58.33,2.66a4.54,4.54,0,0,0-1.47,3.88c.09.58-.37.89-.72,1.24a13.66,13.66,0,0,1-3.56,2.68,17.35,17.35,0,0,0-5.94,4.33c-.24.59-.81.69-1.3.92-2.07,1-4.14,2-6.14,3.12-.46.27-.92.62-1.52.43-1.14-2.63-.24-5.19.2-7.79.29-1.71.75-2.62,2.83-2.8a6,6,0,0,0,5.29-4,1.28,1.28,0,0,1,1.06-.88,4.65,4.65,0,0,0,2.81-1.72c-3.83,1-7.38-.33-10.85.23-2,.33-3.17,2.3-4.45,3.91-2.55,3.19-1.76,6.84-1.57,10.29.21,3.67,1.7,7.13,2.82,10.63C115.25,123.9,114.65,124.06,113.9,124Z"/><path class="cls-3" d="M117.12,115.06a53.5,53.5,0,0,1,9-4.47c.42.64.78,1.21,1.45.13.87-1.41,2.7-.85,3.91-1.72.31-.22.44.47.4.85a4.27,4.27,0,0,1-2.19,3.48c-1.76,1-3.78,1.93-4.86,3.61-1.51,2.36-3.72,4-5.31,6.28-.15.21-.35.4-.62.72a6.11,6.11,0,0,1-1-2.55,2.08,2.08,0,0,0-1.41-1.83c-1.43-.59-.81-2-1-3.17,0-.39.29-.45.6-.44.64,1.23,1.63,2.3,1.71,3.86a2.61,2.61,0,0,0,.14-3C117.59,116.26,117.1,115.77,117.12,115.06Z"/><path class="cls-3" d="M103.9,116.41l1.41,1c-.22.85-.43,1.7-.65,2.55,0,.1-.07.29-.12.29-2.2.1-1.14,2.43-2.38,3.36-1.67-3.09-5.29-4.36-6.92-7.59-.55-1.1-2.08-1.14-3.16-1.68a4.58,4.58,0,0,1-2.94-4.73c1.81.67,3.53,1.33,5.26,1.94.33.11.73.7,1.1,0a47.56,47.56,0,0,1,7,3.88c.6,1-.37,1.79-.49,2.73C102.84,117.75,102.76,116.41,103.9,116.41Z"/><path class="cls-13" d="M116,116l-.6.44c-.67-3.12-1.34-6.25-2-9.38a1,1,0,0,1,0-.65,16.63,16.63,0,0,1,5.27-6.42c-.59,1.14-.57,2.11.55,2.79a1.58,1.58,0,0,0,2.21-.45c.91-1.15.2-2-.78-2.92a18,18,0,0,1,4,.7c-1.63,1.92-3.06,3.76-5.77,3.54a1.49,1.49,0,0,0-1.69,1.22C116.07,108.44,115,112.07,116,116Z"/><path class="cls-14" d="M113.9,124l1.36-1.07c.62-.66,1.16-1.06,1.53.23s1.11,2.69.75,4.18a4.81,4.81,0,0,1-6.24,3.35,1.24,1.24,0,0,1-1-1.14c-.06-.73.49-.8.92-1A4,4,0,0,0,113.9,124Z"/><path class="cls-15" d="M105.39,122.93l.77.75a4.55,4.55,0,0,0,2.67,5.08c.43.21,1,.17.86.91a1.15,1.15,0,0,1-1,1,5.54,5.54,0,0,1-4.61-1.27,3.34,3.34,0,0,1-.85-3.63,18.09,18.09,0,0,1,1.09-2.75C104.66,122.38,105,122.66,105.39,122.93Z"/><path class="cls-16" d="M108.64,131.94a9.86,9.86,0,0,1,3.75,0C111.1,133.29,110,133,108.64,131.94Z"/><path class="cls-17" d="M68.69,113.63c2-1.82,3.71-3.34,6.12-3.68.59-.08,1.4-.41,1.68.51a1.51,1.51,0,0,1-.9,1.77C73.58,113.44,71.36,113.65,68.69,113.63Z"/><path class="cls-18" d="M110.81,144.05c-.68-2.19-1.77-4-1.18-6.14.18-.64.32-1.56,1.31-1.38s1.13.89,1.09,1.77A18,18,0,0,1,110.81,144.05Z"/><path class="cls-17" d="M151.28,112.62c-3-.05-5.51-.31-7.79-1.73-.48-.3-1.21-.6-.88-1.36a1.46,1.46,0,0,1,1.68-.79A11.38,11.38,0,0,1,151.28,112.62Z"/><path class="cls-17" d="M174.1,112.71c-.25,1.27-.55,2.72-.82,4.18-.13.64-.48.7-1.07.6-2.55-.4-2.56-.38-1.93-2.92.23-.91.43-1.82.71-2.7s.91-1.55,2-1.27S174.17,111.62,174.1,112.71Z"/><path class="cls-17" d="M168.63,112a22.43,22.43,0,0,0-.53,2.64c-.12,1.49-.66,1.9-2.2,1.48-1.12-.31-1.31-.66-1-1.66s.49-2.14.87-3.16a1.35,1.35,0,0,1,1.74-.88A1.47,1.47,0,0,1,168.63,112Z"/><path class="cls-15" d="M90.55,162.38,86.39,161c-.48-.16-.45-.44-.37-.89.48-2.52.72-2.68,3.14-1.78a23.63,23.63,0,0,1,2.76,1.09,1.61,1.61,0,0,1,.81,2.11C92.44,162.37,91.72,162.48,90.55,162.38Z"/><path class="cls-17" d="M92.09,156.93c-.91-.24-2-.61-3-.8-1.38-.25-1.79-.83-1.25-2.21.36-.91.61-1.4,1.71-.95A30.18,30.18,0,0,0,93,154a1.27,1.27,0,0,1,1,1.76A1.55,1.55,0,0,1,92.09,156.93Z"/><path class="cls-15" d="M139,45.29a23.54,23.54,0,0,1-4.48-2c-.42-.2-.26-.51-.16-.83.74-2.45,1.17-2.66,3.41-1.54a8.08,8.08,0,0,1,2.53,1.49,1.56,1.56,0,0,1,.4,1.8A1.66,1.66,0,0,1,139,45.29Z"/><path class="cls-3" d="M64.81,136.45a4.74,4.74,0,0,1,4.31,4.22c0,2.21-2.65,4.69-5,4.62-1.93,0-4.19-2.43-4.21-4.42C59.9,138.61,62.32,136.43,64.81,136.45Z"/><path class="cls-19" d="M55.61,123.15a4.62,4.62,0,0,1,4.28,4.77c-.07,2-2.67,4-5.2,3.89a4.6,4.6,0,0,1-4-4.69C50.82,124.94,53.16,123.06,55.61,123.15Z"/><path class="cls-20" d="M104.56,156.33l2.19,6c-1.72-.11-3.31-.14-4.88-.35-.61-.08-.15-.62,0-.9C102.7,159.56,103.55,158.09,104.56,156.33Z"/><path class="cls-2" d="M138.27,68.54c-1.74,4.2-.73,8.9-2.83,12.93a3.66,3.66,0,0,0-.24,1.45,8.39,8.39,0,0,1-.71,3.21c-.87,1.83-1.52,2-3.16.89a48.29,48.29,0,0,1-5.83-5.14c-.38-.35-.53-.61,0-1a3.76,3.76,0,0,0,1.38-3.69,5.34,5.34,0,0,1,2.18-4.9c2.39-2.09,5.32-3.33,7.92-5.09C138.3,66.3,137.7,68.16,138.27,68.54Z"/><path class="cls-4" d="M93,77.5a2.55,2.55,0,0,0,1.17,3.38.65.65,0,0,1,.15,1c-.85,1.21-1.49,2.61-2.75,3.48a21.57,21.57,0,0,0-3.59,2.93c-.88.94-1.49.61-2.07-.23a3.19,3.19,0,0,1-.61-1.34c-.57-4.61-2.72-8.85-3-13.52-.11-1.64-.49-3.27-.73-4.91,0-.37-.16-.81.24-1a1,1,0,0,1,1.09.12A12.89,12.89,0,0,1,86,69.53a3.77,3.77,0,0,0,1.38,1.16c2.56.78,3.59,3.1,5.11,4.92A2.58,2.58,0,0,1,93,77.5Z"/><path class="cls-21" d="M100.29,99c-2.2-.44-4.39.61-6.59,0a11.06,11.06,0,0,1-1.9-.57c2.47.13,4.8-.75,7.22-.78,3,0,5.21,1.53,6.86,4,.35.5.53,1.1.08,1.5s-.87-.21-1.19-.5c-.94-.84-1.83-1.75-2.74-2.63C101.37,99.82,100.67,99.71,100.29,99Z"/><path class="cls-22" d="M103.9,116.41l-2.15,3c-.73-1.62.75-2.64.73-3.94,1.61-3.12.26-6.26-.13-9.4C103.84,109.38,105.55,112.68,103.9,116.41Z"/><path class="cls-23" d="M100.29,99a3.58,3.58,0,0,1,1.74,1c-.3.07-.23.26-.19.48.34,1.9-.31,2.53-2.51,2.44l0,0C98,101.17,98.05,100.91,100.29,99Z"/><path class="cls-23" d="M99.33,102.94c.78.86,1.94.5,2.94.87-2.26,1.55-5.24.25-8-3.56,2.1.5,3.16,2.54,5.15,2.72Z"/><path class="cls-24" d="M123.34,89.2c-1.88.9-3.6,1.72-5.33,2.53-.26.12-.59.48-.81,0a.91.91,0,0,1,.08-.77C118.16,89.57,121.57,88.52,123.34,89.2Z"/><path class="cls-25" d="M108.69,82.1c-.15-2.25-3.11-2.47-3.32-4.79C108.79,79,109.71,80.17,108.69,82.1Z"/><path class="cls-26" d="M111.44,82.38c-1.85-2-1.27-3.24,2.81-5.22C113.71,79.13,110.8,79.56,111.44,82.38Z"/><path class="cls-27" d="M97.07,88.85c1.37,1.15,3,1.11,4.08,2,.36.29,1.11.55.8,1.06s-.89,0-1.22-.27c-.56-.56-1.33-.44-2-.71A2.52,2.52,0,0,1,97.07,88.85Z"/><path class="cls-3" d="M136.53,69.25c-1,5-1.71,10-3.09,14.88-.43,1.52-1.06,1.75-2.24.77s-2.19-2.17-3.3-3.24c-.39-.38-.18-.7,0-1a5,5,0,0,0,.76-4c-.33-1.38.78-2.6,1.95-3.42C132.53,71.86,134.48,70.62,136.53,69.25Z"/><path class="cls-3" d="M83.29,69.72c2.52,1.67,4.31,3.48,6.41,4.88a4.35,4.35,0,0,1,1.77,3.6,4.1,4.1,0,0,0,.47,2.07c1.13,1.68.51,2.75-.9,3.82a30.47,30.47,0,0,0-2.31,2.37c-1,1-1.67.79-2.15-.56a1.3,1.3,0,0,1-.15-.64c.42-2.12-.66-3.77-1.6-5.52-.64-1.17-.46-2.59-.6-3.9A30.65,30.65,0,0,0,83.29,69.72Z"/></g></svg>