<svg xmlns="http://www.w3.org/2000/svg" xmlns:xlink="http://www.w3.org/1999/xlink" viewBox="0 0 220 200"><defs><style>.cls-1{fill:#fff;}.cls-2{fill:url(#linear-gradient);}.cls-3{fill:url(#linear-gradient-2);}.cls-4{fill:url(#linear-gradient-3);}</style><linearGradient id="linear-gradient" x1="104.87" y1="138.78" x2="70.88" y2="108.84" gradientUnits="userSpaceOnUse"><stop offset="0" stop-color="#9f0342"/><stop offset="0.22" stop-color="#a80345"/><stop offset="0.58" stop-color="#c2024d"/><stop offset="0.98" stop-color="#e50059"/></linearGradient><linearGradient id="linear-gradient-2" x1="66.56" y1="90.52" x2="113.75" y2="60.41" xlink:href="#linear-gradient"/><linearGradient id="linear-gradient-3" x1="108.01" y1="76.78" x2="128.43" y2="122.91" xlink:href="#linear-gradient"/></defs><g id="Layer_3" data-name="Layer 3"><rect class="cls-1" y="-0.16" width="220" height="200"/><path class="cls-2" d="M96.51,148.39c4.71-2,16.41-14,20.67-18.49-2.84,2.91-8.42,6.63-14.87,1.29-5.59-4.64-33.41-36.78-35.84-40C60.73,83.75,52.8,72.37,60.66,63.8a22.5,22.5,0,0,0-7.12,16.39v39.29a22.51,22.51,0,0,0,11.22,19.43l15.59,9A19.69,19.69,0,0,0,96.51,148.39Z"/><path class="cls-3" d="M140.93,52.5,121.22,41.12a22.48,22.48,0,0,0-22.44,0C61.46,62.67,63.18,61.44,60.66,63.8c-7.86,8.57.07,20,5.81,27.43,2.43,3.18,7.22,8.69,10.21,12a16.68,16.68,0,0,1,2.74-20.36,17.42,17.42,0,0,1,21-2.55,46.63,46.63,0,0,1,4.11,3.19,8.34,8.34,0,0,0,10.36.46c.76-.55,14.94-11.11,22.73-16.08,7.3-4.64,15.26-7.89,20.7-5.06C155.86,60.77,140.93,52.5,140.93,52.5Z"/><path class="cls-4" d="M158.3,62.88c-5.44-2.83-13.08.07-20.7,5.06-8.39,5.5-13.81,9.55-18.2,12.74,4.55-3.31,15.46-3.89,21.18,2.24,6.42,6.87,6.7,17.28,0,23.87,0,0-38.26,39.13-44.07,41.6a19.69,19.69,0,0,1-16.16-.48l18.43,10.64a22.48,22.48,0,0,0,22.44,0c35.82-20.68,34.43-19.83,35.65-20.68l0,0a22.49,22.49,0,0,0,9.56-18.36V80.19C166.46,73.45,163.44,66.44,158.3,62.88Z"/></g></svg>