<svg id="Layer_1" data-name="Layer 1" xmlns="http://www.w3.org/2000/svg" viewBox="0 0 220 200"><defs><style>.cls-1{fill:#1398b9;}.cls-2{fill:#f9fcfd;}.cls-3{fill:#1498b9;}</style></defs><rect class="cls-1" x="0.54" y="0.66" width="220" height="200"/><path class="cls-2" d="M70.73,96.55C84.82,99.35,97.3,93,110.62,93c13.1,0,25.51,5.1,38.77,3.53-4.17-1.32-7.88-3.27-10.42-6.88a15.2,15.2,0,0,1-2.68-12.2,15.58,15.58,0,0,1,14.76-12,15,15,0,0,1,15.39,11.08c2.13,7.75-1.23,14.31-9.86,19.06.78,1.62,2,1.37,3.44,1.11q5.4-.95,10.84-1.54c2.74-.3,5.57-.22,7.22,2.49,1.78,2.93,2.12,6.31,0,9-2.38,3.07-1.74,5.6-.32,8.68,2.25,4.89,4.24,9.92,6.16,15,1.58,4.15,2.52,8.49-1.69,11.73-4,3.06-8.06,2.39-11.67-.88-1.28-1.16-2.48-1-3.95-.7-10.1,1.92-20.2,2.21-30.29-.19-1.57-.38-3-.54-4.38.83-3.32,3.24-7.62,3.62-12,3.6q-9.3,0-18.61,0c-4.38,0-8.62-.52-12-3.69-1.4-1.33-2.83-1.16-4.41-.76-9.75,2.44-19.57,2.16-29.35.43a7.54,7.54,0,0,0-6.22,1.17C46,144.22,42.37,145,38.91,142s-3.86-6.71-2.14-10.81c2.15-5.12,4.15-10.3,6.43-15.36,1.22-2.7,1.29-5-.44-7.53-2-2.94-3.53-6.23-1.07-9.72s6-3.75,9.84-3.15c3.12.49,6.24,1.06,9.37,1.47.81.11,2,.49,2.36-.82.23-.93-.56-1.42-1.23-1.82a15.23,15.23,0,0,1-6.71-7.79c-3.19-8.24.52-16.94,8.55-20A15.72,15.72,0,0,1,84,75.16a15.16,15.16,0,0,1-8.79,19.92C74,95.6,72.6,96,70.73,96.55Zm74.53,11.75c7.52.36,15.56-.61,23.57-1.94,2.34-.39,5.35-.81,5-3.91-.36-3.64-3.44-1.86-5.34-1.61-13.3,1.71-26.63,2.58-39.83-.29-12-2.62-24-2.15-36-.15a80.29,80.29,0,0,1-14.18,1.51c-9-.1-18.12.14-27.13-1.14-1.94-.27-4.37-.1-4.66,2.09-.27,2,1.77,3.21,3.78,3.59,2.18.42,4.39.72,6.6,1a120.74,120.74,0,0,0,29.49,0c3.27-.38,4.54.63,4.41,4.08-.24,6.34-.14,12.7,0,19,.1,5.74,2.12,8.32,7.89,8.64a236.57,236.57,0,0,0,23.82.07c5.44-.25,7.54-3,7.62-8.38.09-6.35.15-12.7,0-19-.08-2.93.86-3.89,3.84-3.64C137.61,108.53,141.13,108.3,145.26,108.3Zm24,17.25c1.88,4.29,3,7,4.29,9.71.87,1.78,2.22,3.52,4.43,2.49,2-.93,2.13-2.83,1.26-4.88q-3.8-9-7.39-18a3.37,3.37,0,0,0-3.64-2.32q-14.76.06-29.53,0c-2.16,0-3.22.78-3.18,3,.07,4.75-.08,9.51.07,14.26.12,3.84,2.17,6.27,6.14,6.52s8.24.09,12.35.39C161.51,137.31,167.87,136.21,169.21,125.55Zm-117.59,1c1.66,5,3.61,9.06,8.77,9.72a79,79,0,0,0,19.92-.05c3.1-.39,5-2.16,5.08-5.29.19-4.74.18-9.49.24-14.23,0-2.21-.68-3.43-3.31-3.39a235.77,235.77,0,0,1-29-.87c-1.73-.19-3,.17-3.78,2-2.57,6.29-5.3,12.53-7.82,18.84-.72,1.81-.89,3.83,1.44,4.86s3.54-.61,4.38-2.38C48.9,132.93,50.08,130,51.62,126.52ZM79.68,80.67a10.56,10.56,0,0,0-10-10.18C64.35,70.42,59.34,75.62,59.5,81a10.09,10.09,0,0,0,20.18-.36Zm61.94.28a10,10,0,0,0,10.08,9.9c5.34-.07,10.14-4.88,10.06-10.09-.08-5.46-5.16-10.42-10.51-10.26S141.54,75.53,141.62,81Z"/><path class="cls-2" d="M128.8,74.46c0,10.08-7.52,17.69-17.69,17.8-10.43.1-18-7.4-18.12-17.85-.07-10.13,7.41-17.65,17.68-17.77C121.09,56.52,128.74,64.05,128.8,74.46Zm-18-12.7C104.09,61.81,98,67.93,98,74.51s6.24,12.68,13,12.63a12.69,12.69,0,1,0-.17-25.38Z"/><path class="cls-3" d="M145.26,108.3c-4.13,0-7.65.23-11.12-.07-3-.25-3.92.71-3.84,3.64.18,6.35.12,12.7,0,19-.08,5.43-2.18,8.13-7.62,8.38a236.57,236.57,0,0,1-23.82-.07c-5.77-.32-7.79-2.9-7.89-8.64-.1-6.35-.2-12.71,0-19,.13-3.45-1.14-4.46-4.41-4.08a120.74,120.74,0,0,1-29.49,0c-2.21-.28-4.42-.58-6.6-1-2-.38-4-1.6-3.78-3.59.29-2.19,2.72-2.36,4.66-2.09,9,1.28,18.08,1,27.13,1.14a80.29,80.29,0,0,0,14.18-1.51c12-2,23.93-2.47,36,.15,13.2,2.87,26.53,2,39.83.29,1.9-.25,5-2,5.34,1.61.32,3.1-2.69,3.52-5,3.91C160.82,107.69,152.78,108.66,145.26,108.3Z"/><path class="cls-3" d="M169.21,125.55c-1.34,10.66-7.7,11.76-15.2,11.22-4.11-.3-8.24-.14-12.35-.39s-6-2.68-6.14-6.52c-.15-4.75,0-9.51-.07-14.26,0-2.26,1-3,3.18-3q14.76.07,29.53,0a3.37,3.37,0,0,1,3.64,2.32q3.58,9,7.39,18c.87,2,.75,3.95-1.26,4.88-2.21,1-3.56-.71-4.43-2.49C172.2,132.6,171.09,129.84,169.21,125.55Z"/><path class="cls-3" d="M51.62,126.52c-1.54,3.52-2.72,6.41-4.07,9.22-.84,1.77-1.95,3.45-4.38,2.38s-2.16-3.05-1.44-4.86c2.52-6.31,5.25-12.55,7.82-18.84.74-1.84,2.05-2.2,3.78-2a235.77,235.77,0,0,0,29,.87c2.63,0,3.33,1.18,3.31,3.39-.06,4.74,0,9.49-.24,14.23-.13,3.13-2,4.9-5.08,5.29a79,79,0,0,1-19.92.05C55.23,135.58,53.28,131.49,51.62,126.52Z"/><path class="cls-3" d="M79.68,80.67A10.09,10.09,0,0,1,59.5,81c-.16-5.41,4.85-10.61,10.15-10.54A10.56,10.56,0,0,1,79.68,80.67Z"/><path class="cls-3" d="M141.62,81c-.08-5.42,4.41-10.3,9.63-10.45s10.43,4.8,10.51,10.26c.08,5.21-4.72,10-10.06,10.09A10,10,0,0,1,141.62,81Z"/><path class="cls-3" d="M110.82,61.76A12.69,12.69,0,1,1,111,87.14c-6.72,0-12.89-6-13-12.63S104.09,61.81,110.82,61.76Z"/></svg>