<svg width="220" height="200" viewBox="0 0 220 200" fill="none" xmlns="http://www.w3.org/2000/svg">
<g clip-path="url(#clip0_2_2)">
<rect width="220" height="200" fill="#DDAEB9"/>
<rect x="0.0236359" y="117.417" width="220" height="82.5828" fill="white"/>
<g clip-path="url(#clip1_2_2)">
<path fill-rule="evenodd" clip-rule="evenodd" d="M180.418 113.341C179.742 108.504 176.854 105.404 173.818 104.072C172.26 103.374 170.453 102.977 168.411 103.276C163.728 103.967 161.075 107.601 160.242 111.267C159.811 113.174 159.813 115.547 160.797 117.816C162.489 121.774 166.276 123.853 170.106 122.863C172.349 122.281 173.781 120.86 174.715 119.051C175.762 117.013 176.156 113.331 174.115 110.79C172.401 108.666 168.432 107.487 166.066 110.407C165.206 111.477 164.485 113.484 165.275 115.446C165.934 117.121 167.693 118.143 169.242 117.508C170.357 117.054 170.891 116.06 170.547 114.611C170.403 114.609 170.403 115.07 170.275 115.314C170.127 115.597 169.898 115.829 169.618 115.982C168.003 116.861 166.783 115.353 166.817 113.646C166.837 112.945 167.111 112.275 167.589 111.762C168.067 111.248 168.715 110.926 169.413 110.856C170.982 110.674 172.472 111.68 173.136 113.195C174.381 116.048 172.903 119.441 170.173 120.495C167.214 121.653 164.323 119.984 162.971 117.454C161.709 115.093 161.944 112.688 162.601 110.783C163.511 108.103 166.002 105.557 169.673 105.486C173.17 105.416 177.014 107.708 178.161 112.759C178.552 114.472 178.522 115.725 178.301 117.143C177.899 119.655 176.845 121.971 174.717 123.848C172.613 125.691 169.335 126.604 166.767 126.177C164.332 125.794 162.106 124.576 160.47 122.733C158.597 120.652 157.27 117.607 157.147 114.308C157.046 111.639 157.653 108.991 158.905 106.631C160.035 104.519 162.257 102.251 164.752 101.095L166.212 100.538C172.05 99.1444 176.907 100.965 180.171 105.352C181.969 107.756 183.26 111.103 183.447 114.328C183.459 114.675 181.378 115.549 180.427 113.341" fill="#D08565"/>
<path d="M89.6513 145.712C83.5398 145.712 83.647 139.986 83.647 132.172C83.647 124.343 83.5398 117.417 89.6513 117.417C95.7582 117.417 100.722 123.75 100.722 131.556C100.722 139.372 95.7582 145.712 89.6513 145.712ZM108.426 149.772C102.317 149.772 102.435 144.046 102.435 136.238C102.435 128.415 102.319 121.48 108.426 121.48C114.549 121.48 119.504 127.815 119.504 135.628C119.504 143.437 114.547 149.772 108.426 149.772V149.772ZM131.033 145.712C124.917 145.712 125.038 139.986 125.038 132.172C125.038 124.343 124.917 117.417 131.033 117.417C137.14 117.417 142.104 123.75 142.104 131.556C142.104 139.372 137.14 145.712 131.033 145.712Z" fill="#D08565"/>
<path d="M148.09 149.772C141.972 149.772 142.09 143.147 142.09 134.093C142.09 125.025 141.972 116.986 148.09 116.986C154.206 116.986 159.163 124.327 159.163 133.381C159.163 142.436 154.206 149.772 148.09 149.772Z" fill="#D08565"/>
<path d="M168.982 94.6344C168.982 117.267 145.515 135.624 116.57 135.624C87.605 135.624 64.1469 117.26 64.1469 94.6344C64.1469 71.9953 87.605 53.6403 116.57 53.6403C145.515 53.6403 168.982 72.0044 168.982 94.6344" fill="#DFAD92"/>
<path d="M109.024 94.6344C109.024 107.213 95.9909 117.415 79.8966 117.415C63.791 117.415 50.7582 107.211 50.7582 94.6344C50.7582 82.0487 63.7979 71.847 79.8966 71.847C96.0023 71.847 109.024 82.0487 109.024 94.6344" fill="#D08565"/>
<path d="M61.3067 50.5903C68.0843 50.8024 77.2253 71.7283 77.0907 76.9798C76.9538 82.2381 63.8823 75.903 56.3039 73.4096C48.5066 70.8341 33.9842 66.4769 37.8213 63.3607C41.9845 59.9799 54.5337 50.3736 61.3067 50.5903" fill="#D08565"/>
<path d="M66.1635 52.5362C72.0468 52.7255 79.9879 70.8774 79.8738 75.4628C79.7506 80.0161 68.3991 74.5252 61.82 72.3511C55.0515 70.1201 48.1097 68.2586 48.2169 63.6984C48.3355 59.1358 60.2824 52.356 66.1635 52.5453" fill="#EAC8B8"/>
<path d="M90.4109 51.2222C81.7444 54.0646 76.4748 84.5216 78.2861 91.2513C80.1042 97.981 94.9917 84.8501 103.989 78.7569C113.249 72.4903 130.627 61.3532 124.68 58.7891C118.27 56.006 99.0797 48.3775 90.4155 51.2222" fill="#D08565"/>
<path d="M84.7625 55.5588C77.2276 58.0317 72.6537 84.4805 74.2346 90.3183C75.8018 96.1628 88.7296 84.7634 96.5361 79.4709C104.582 74.0301 112.959 68.9886 111.389 63.1417C109.808 57.3063 92.2884 53.086 84.7625 55.5588" fill="#EAC8B8"/>
<path d="M43.5289 92.855C43.5289 106.173 57.0134 116.97 73.6893 116.97C90.3447 116.97 103.845 106.173 103.845 92.855C103.845 79.5416 90.347 46.6962 73.6893 46.6962C57.0134 46.6962 43.5289 79.5416 43.5289 92.855" fill="#DFAD92"/>
<path d="M62.8488 77.3083C62.8488 83.6274 59.7372 88.7602 55.9161 88.7602C52.0791 88.7602 48.9766 83.6342 48.9766 77.3083C48.9766 70.9824 52.0791 65.8564 55.9161 65.8564C59.7349 65.8564 62.8488 70.9847 62.8488 77.3083Z" fill="white"/>
<path d="M75.4094 88.7602C79.2382 88.7602 82.3421 83.633 82.3421 77.3083C82.3421 70.9836 79.2382 65.8564 75.4094 65.8564C71.5806 65.8564 68.4767 70.9836 68.4767 77.3083C68.4767 83.633 71.5806 88.7602 75.4094 88.7602Z" fill="white"/>
<path d="M60.3942 77.3083C60.3942 80.6229 58.3936 83.3034 55.9161 83.3034C53.4296 83.3034 51.4198 80.6229 51.4198 77.3083C51.4198 73.9913 53.4296 71.3086 55.9161 71.3086C58.3936 71.3086 60.3942 73.9936 60.3942 77.3083V77.3083ZM79.8966 77.3083C79.8966 80.6229 77.896 83.3034 75.4185 83.3034C72.932 83.3034 70.9222 80.6229 70.9222 77.3083C70.9222 73.9913 72.932 71.3086 75.4185 71.3086C77.896 71.3086 79.8966 73.9936 79.8966 77.3083Z" fill="#25333A"/>
<path d="M41.3732 92.7638C41.3732 83.3125 48.6686 83.4836 58.624 83.4836C68.5839 83.4836 77.4192 83.3125 77.4192 92.7638C77.4192 102.222 69.3481 109.887 59.3927 109.887C49.4511 109.887 41.3732 102.224 41.3732 92.7638" fill="#D08565"/>
<path d="M52.784 94.8853C52.784 98.3003 50.708 101.063 48.1599 101.063C45.6003 101.063 43.5289 98.3003 43.5289 94.8853C43.5289 91.4703 45.6003 88.6963 48.1599 88.6963C50.7103 88.6963 52.784 91.4703 52.784 94.8853ZM67.9497 95.5127C67.9497 99.279 65.6685 102.324 62.8534 102.324C60.0315 102.324 57.7388 99.279 57.7388 95.5127C57.7388 91.7486 60.0201 88.6963 62.8534 88.6963C65.6593 88.6963 67.9497 91.7486 67.9497 95.5127" fill="#784E3D"/>
</g>
</g>
<defs>
<clipPath id="clip0_2_2">
<rect width="220" height="200" fill="white"/>
</clipPath>
<clipPath id="clip1_2_2">
<rect width="146" height="146" fill="white" transform="translate(37 10)"/>
</clipPath>
</defs>
</svg>
