<svg xmlns="http://www.w3.org/2000/svg" viewBox="0 0 220 200"><defs><style>.cls-1{fill:#d71a22;}.cls-2{fill:#e4c384;}.cls-3{fill:#e3c383;}.cls-4{fill:#e9d4a2;}.cls-5{fill:#e7ca92;}.cls-6{fill:#c6af6a;}.cls-7{fill:#d5b56f;}.cls-8{fill:#31312f;}.cls-9{fill:#30302e;}.cls-10{fill:#1e1e1c;}.cls-11{fill:#a41a16;}.cls-12{fill:#c61618;}.cls-13{fill:#a51a17;}.cls-14{fill:#d11317;}.cls-15{fill:#ecd7ab;}.cls-16{fill:#b91918;}.cls-17{fill:#ebd8ac;}.cls-18{fill:#ebd3a5;}.cls-19{fill:#ebd6a7;}.cls-20{fill:#e9d3a0;}.cls-21{fill:#7f1c13;}.cls-22{fill:#bd1818;}.cls-23{fill:#c6161d;}.cls-24{fill:#a01a16;}.cls-25{fill:#ebdaae;}.cls-26{fill:#a31a1a;}.cls-27{fill:#ead6a7;}.cls-28{fill:#ad1917;}.cls-29{fill:#e7cd96;}.cls-30{fill:#e8d09d;}.cls-31{fill:#9d1a18;}.cls-32{fill:#7e1712;}.cls-33{fill:#edddb6;}.cls-34{fill:#edddb5;}.cls-35{fill:#f3ecd2;}.cls-36{fill:#0074b0;}.cls-37{fill:#01669d;}.cls-38{fill:#085081;}.cls-39{fill:#f6f1dd;}.cls-40{fill:#f1e4c2;}.cls-41{fill:#e3c283;}.cls-42{fill:#e1be83;}.cls-43{fill:#eee0ba;}.cls-44{fill:#f1e4c3;}.cls-45{fill:#f0e2c4;}.cls-46{fill:#eed5b2;}.cls-47{fill:#ecd9b3;}.cls-48{fill:#b22b2d;}.cls-49{fill:#ce1419;}.cls-50{fill:#0072af;}.cls-51{fill:#065283;}.cls-52{fill:#097dbd;}.cls-53{fill:#ecd8b1;}.cls-54{fill:#cf1417;}.cls-55{fill:#f6f0dd;}.cls-56{fill:#fcfbf8;}.cls-57{fill:#f5edd8;}.cls-58{fill:#dc0b24;}.cls-59{fill:#f4ebd6;}.cls-60{fill:#f5ebda;}.cls-61{fill:#f1dbd1;}.cls-62{fill:#cc151a;}.cls-63{fill:#f7f2e0;}.cls-64{fill:#eee1bc;}.cls-65{fill:#148ecf;}.cls-66{fill:#0276b1;}.cls-67{fill:#d21219;}.cls-68{fill:#d2121b;}.cls-69{fill:#d2121a;}.cls-70{fill:#d31c1f;}.cls-71{fill:#d41d22;}.cls-72{fill:#ebebec;}.cls-73{fill:#edeeee;}.cls-74{fill:#e8ebec;}.cls-75{fill:#dee5e9;}.cls-76{fill:#e9eced;}.cls-77{fill:#dee4e7;}.cls-78{fill:#e5e8ea;}.cls-79{fill:#ebedee;}.cls-80{fill:#eff0f1;}.cls-81{fill:#e3eaee;}</style></defs><g id="Layer_11" data-name="Layer 11"><rect class="cls-1" x="0.18" y="-0.03" width="220" height="200"/><path class="cls-2" d="M146.41,58c3.15,23-29.78,50.09-18.78,62.17-9.75.29-.61-10.42-11.08-8.39,1.25,2.44,4.06,4.06,5,6.55,6.65,13.47,25.74,46.46,4.8,54.81-.75.54-1.5-.2-.85-.93,1.15-1.19,1-3.21,2.55-3.95,6-4.23,3.84-12.6,2.62-18.7a86.86,86.86,0,0,0-20.78-39.43C103.39,102.68,98,93.2,98.63,83c.27-2.54,4.12.85,5.58.87-1.34,8.32,2.34,18.43,11.17,20.59.31-.27.05-.64-.07-.93-.87-1.85-1.34-5.68,1.18-6.3.32.28.27.67.28,1,.08,2.22,2.76,2.15,3.77.6,1.93,1-1.29,6.09,1.92,4.89,7.18-8.78,16.12-18.91,16-30.88,1.46-.68,1.71-2.52,2.87-3.36.62.64.55,1.78.64,2.25.64-4.64,3-8.79,3.6-13.41C145.74,58,146,57.69,146.41,58Z"/><path class="cls-3" d="M92.88,120.77c.58-3.11-5.2-.85-7.38-1.9,3.22-2.8,5.54-6,5.7-10.47a14.7,14.7,0,0,1-9.78,1c1.19-2.27,2.82-4.51,3.13-7.23,1.79-12.71-9-22.69-10.58-34.9-3-16.06,5.37-33.47,20.49-40.07-.29,1.91-3.82,3.16-4.93,5C87.67,34,86.74,36.35,84.77,38c.72.08,1.32-.68,2-.27C86.61,39,85.47,40,85.28,41.3a15,15,0,0,0-7.07,7.59c-5.06,9.73-1.75,34.17,13.3,28.9.85-.79,1.65-.24,2.26.52,1.12,1.13,2.88,1.64,3.8,2.88C94.2,85,87.87,85,83.38,83.06c3.89,7,7.37,16.2,3,23.65,3.62.1,6.45-2.63,8-5.76,2.49,4.19.91,10.54-1.79,14.55,8.72-.71,9.13-8.1,10.62-6.31,2.12,2.65,4.81,5.24,6.15,8.31-.79.92-2.37.41-3.21,1.45-1.64-.12-2.58-4.55-4.24-3.71A15.83,15.83,0,0,1,94.5,119C92.8,119.13,93.74,120.42,92.88,120.77Z"/><path class="cls-2" d="M127,169.33c.37,1.58-1.63,2.49-1.48,3.76,3.12-.92,6.69-3.16,8.33-6.29.38-.88,1.08-1.62,1.08-2.67,0-.3.29-.42.59-.43-2.87,16.45-42.48,15.75-49.61,3.16-1.88-5.14.17-10.88,1.12-16.06,2.34-9.58,4.27-19.29,5.77-29,1.25-.26,2.6.3,3.9-.33,2.2-.93.29,8.12.56,9.63-2.26,1.28-1.72,5-3.08,6.94-.73-.53-.31-1.27-.35-1.78-.74,5.79-2.45,11.64-3.72,17.45.79-.31.85-1.51,1.89-1.37a15,15,0,0,1,1,5.08c-.57.77-1.43.65-2.21.69-1.44.09-1.54.16-1.52,1.59-.14,2.79,3,3.36,5.21,3.08,1.28-.33,1.21.23,1.31,1.25a5.61,5.61,0,0,0,1.53,2.18c-2,1.22-4.7.85-7.18.5,4,3.22,8.8,4,13.68,4.35,0,.45,0,.45-.66.73a10.47,10.47,0,0,0,14.33.32C120.81,171.63,124,170.15,127,169.33Z"/><path class="cls-4" d="M146.41,58c-1.58.56-.9,6.34-2.82,7.69-.23-5.74.21-11.67-2.11-17.24a2,2,0,0,1-1-1.52,25.71,25.71,0,0,0-6.19-10.74c-7.7-8.07-20.65-10.77-31-6.88-2.62.95.47-2.12,1.24-2.2-1.74.2-4,1.25-6,1.43-.35-2.45,9.94-4.13,12-4.74C129,23.57,145.87,39.38,146.41,58Z"/><path class="cls-5" d="M110.43,23.81c-.05.43-.4.53-.72.56a31.4,31.4,0,0,0-9.94,2.94c-1.38.62-1.29,1.92-2.78,2.13-3.69,1.35-6.81,3.87-10,5.94,1.06-3.56,5.45-5.3,7.46-8.15C99.38,24.71,105,23.87,110.43,23.81Z"/><path class="cls-6" d="M121.56,118.34c-.42-1-7.24-7.24-4.86-6.88,1.56.34,4.19-.8,5.13.67,1.11,2.07.43,4.62,1.58,6.55a.29.29,0,0,1-.06.5C122.65,119.13,122.16,118.62,121.56,118.34Z"/><path class="cls-7" d="M97.53,122.44c0-.77-.27-1.07-1-.67a4.79,4.79,0,0,1-3.68,0l.06-1c0-1.47.55-2,2-2.11,1.23-.18,2.28-.89,3.49-1.12C98.74,118.16,98.18,122.09,97.53,122.44Z"/><path class="cls-8" d="M142.09,159.57l-2.13.14,0,.17c3,1.09,2.74,1.16-.15,2.23.88.32,1.72,0,2.35.7-3.27-.1-4.86-.45-.65-1.85-4.33-1.48-2.59-1.67.67-1.84Z"/><path class="cls-9" d="M139,165.79a4.69,4.69,0,0,1,0-2.7c.09,2.24,2.06.51,3.29,1.4C141.07,165.3,139.23,163.69,139,165.79Z"/><path class="cls-10" d="M116.51,97.27c-4.25,2,1.61,9-1.88,7.44-10.56-4-13.8-17.45-8.41-26.75,5.3-10,27.87-20,32.38-5.17.69,11.89-8.66,21.63-15.31,30.58-.53.58-1.36,1.33-2.16.78-1.29-1.39.5-3.61-.55-5.3C119.7,97.3,118.2,97,116.51,97.27Z"/><path class="cls-11" d="M109.23,117.53a80.32,80.32,0,0,0-6.72-8.72,11.77,11.77,0,0,1-10.64,7c3.43-4.55,4.06-9.51,2.51-14.84-1,3.89-4.85,5.85-8.7,6.24,5.17-7.8,1.22-17.42-3-24.83,3,2.32,7.75.61,9.16,2.63.5.54.82,1.35,1.77,1.28.79.6.63,1.5.72,2.4,1-.39,1.94-1.06,3-.26,0,.39-.54.22-.66.59.78.76,2.13.55,2.79,1.34,4.55,18.54,23.23,29.29,28,48-.75.08-1-.55-1.37-1a19.89,19.89,0,0,0-9.41-6.94C114.15,126.26,111.78,121.7,109.23,117.53Z"/><path class="cls-12" d="M116.65,130.31c4.69.8,7.66,4.95,10.8,8.07a69.73,69.73,0,0,1,3.43,11.12c.64,1.85-1.4,14.82-3.89,9.72-3.07,3-2,.37-1,4.6.56,1.28-5.39,6.75-5.19,4.12.92-1.81.42-3.6,0-5.39a38.18,38.18,0,0,0,.92-10.16C121.58,144.71,118.8,137.38,116.65,130.31Z"/><path class="cls-13" d="M128,160.46c2.56-2.8,2.39-7.32,2.86-11,4,12.25.47,21.63-13.36,22.72-.58.83-8.5.74-5.49-.71,4.37-1.41,6.93-5.17,8.91-8.88,1,2,.55,3.9,0,5.84,1.62-.17,3-2.24,4.3-3.34,1-1.11,0-2.93-.67-4,1-.41,1.76,1.14,1.92,2a2.83,2.83,0,0,1,2.07-1.75C128.46,161,127.9,160.94,128,160.46Z"/><path class="cls-14" d="M141.36,48.28c3.37,5.5,3.18,16.83.54,24-.7-5.88-5.54-9.72-10.6-11.56C137,58.19,140.69,55,141.36,48.28Z"/><path class="cls-15" d="M106.4,78.05a26.11,26.11,0,0,0-2.26,5.87c-1.8-.18-3.37-1.16-5-1.82-.55-.77.07-1.52,0-2.23-.52.4-.79,1.17-1.62,1.23-1.34-1-5.29-2.41-4.58-4.27,1.78-1.17,2.47-3.42,3.94-4.7,1,1.33,2.75,2,3.73,3.29-.58,1.81.79,2.26,1.56.56C103.47,76.84,105.38,76.92,106.4,78.05Z"/><path class="cls-16" d="M97.52,81.1a19.57,19.57,0,0,0,2-1.85,27.15,27.15,0,0,0,0,11.14c-1-.13-5.25-1.67-2.1-1.85a3.9,3.9,0,0,1-.85-3.26,3.86,3.86,0,0,1-2.74.86.26.26,0,0,0-.33.27c-.52,1-2.18-1.94-2.61-2.43A11.42,11.42,0,0,0,97.52,81.1Z"/><path class="cls-17" d="M136.73,63.3a10.51,10.51,0,0,1,4.48,6.21c-.32.87-1.67,3.71-2.61,3.28a8.35,8.35,0,0,0-4.07-5.48A16.14,16.14,0,0,0,136.73,63.3Z"/><path class="cls-18" d="M116.51,97.27c1.86-.9,3.52-.26,4.07,1.58C119.38,101.72,115.84,100.06,116.51,97.27Z"/><path class="cls-10" d="M96.9,72.19c-7,13.42-19.43,4.82-20.71-6.79-1.7-9.06.84-23.28,11.64-24.82C100.93,42.91,102.46,62.59,96.9,72.19Z"/><path class="cls-14" d="M87,35.38a35.38,35.38,0,0,1,18.25-8.58,15.52,15.52,0,0,0-3.15,2.63c-2.46,3.32-3.82,7.45-2.8,11.63.06.33.31.79-.14,1-4.51-3.2-6.48-4.52-12.39-4.24-.9.07-1.69.56-2.72.76A36.73,36.73,0,0,1,87,35.38Z"/><path class="cls-11" d="M97.53,122.44l.61-3.29c2-1.88,4.39-1.7,6.83-1.36,2.35,2.6,11.78,14.47,8.72,17.41-1-.16-.8-1.57-1-2.31-.22-4.08-4-6.1-5.45-9.6a3,3,0,0,0-1.82-1.78c-5.25-2.93-6.13,1.36-7.49,5.41C96.46,128.42,97.72,123.17,97.53,122.44Z"/><path class="cls-19" d="M86.77,37.81a11.2,11.2,0,0,1,7.73.94c-.82,1.13-1.74,2.2-2.46,3.41a8.59,8.59,0,0,0-6.87-.94C85.19,39.84,86.15,38.9,86.77,37.81Z"/><path class="cls-20" d="M109.23,123.6,106,118.92c.6-1.38,2.16-.89,3.23-1.39a49.07,49.07,0,0,1,3.79,5.88C111.91,124,110.47,123.24,109.23,123.6Z"/><path class="cls-21" d="M105,117.79c-1.94.59-4-.56-5.65.89a2.15,2.15,0,0,1-1.18.47l.18-1.61C102.46,115.09,101.79,112.81,105,117.79Z"/><path class="cls-22" d="M97.28,126.61c.31,1.55,1-1.77,1.23-2.22.68-5.19,6-5.06,8.74-1.66,1.28,3.75,5.27,5.78,5.63,9.9.23.85.05,1.83.79,2.52.31.7-.48,2.69-1.25,2.88-2.51-1.87-2.43-4.67-3.1-7.41,0-1.41-2.95-1.46-2.84-4.2-1.18-.06-1.74-2.09-3-2.59C99,120.56,97.87,138.4,101,139.37c-1.11,8.85-5.43-5.82-3.93-8.08C97.23,129.74,96.89,128.15,97.28,126.61Z"/><path class="cls-23" d="M104,171.22a22.11,22.11,0,0,1-6.53-.8c1.09-7.78,13.48-3.92,20.46-20.7,1.89-1.81,1.28,3,1.27,4-.18,1.19-1.52,1.53-2.07,2.51a2.29,2.29,0,0,1-1.68.82c.27.2.4-.13.6-.08,1,1.67-1.42,1.42-1.67,2.69-1,.32-1,1.6,0,1,.19-.13.35-.31.6-.3,1,.91-.75,2.62-1.75,2.18a1.58,1.58,0,0,0-1.71.27c-1.15-.08-2.14,1.68-1.28,2.39.63.48,1.76-.41,2.16.33.2.54-.38.89-.78,1.16a2.23,2.23,0,0,1-3.1-1c-.67-1.44-1.45,0-2.48-.07-2.42,1.53,1.14,3.76,1.75.65,1.81.9-.38,2.83.61,4.2A5.82,5.82,0,0,1,104,171.22Z"/><path class="cls-24" d="M95.67,162.92c-3.09.76-8-.45-6.63-4.55.15-.45.44-.51.85-.52,8.44-.88,15.66-6.57,21.42-12.44.43,3.15-3.8,5.47-5.22,8.16-1.94,2.56-5.86,2.37-7.55,5.41-.5.59-.84,1.31-1.35,1.89S97.19,163.58,95.67,162.92Z"/><path class="cls-25" d="M98.94,155.21a13.83,13.83,0,0,1-3.26,1.4c-2.2-5.63-1.79-12.7-1.44-18.61,3.54-14,2.21-3.4,4.22,2.22A30.44,30.44,0,0,0,98.94,155.21Z"/><path class="cls-26" d="M118.74,149.32c-1.85,1.42-2.39,3.92-3.54,5.86a38.4,38.4,0,0,1-5.43,6.09c-3.88,3.4-11,3.5-12.33,9.15a13.68,13.68,0,0,1-4.81-1.84c10.78-3.93,22.5-10.84,24.13-23.79C117,134.83,119.58,146.92,118.74,149.32Z"/><path class="cls-27" d="M104,171.22c2.3.13,4.18-1.05,6.26-1.55,2.55,1,5.34-1,7.28-2.55.44-.38.79-1.06,1.58-.8-1.88,3.07-4.76,4.57-8,5.88a27.93,27.93,0,0,0,6.46,0c-3.67,4.24-10.44,3.24-14.54.07C101.78,171.17,103.45,171.58,104,171.22Z"/><path class="cls-28" d="M94.24,138c-.16,3.17,1.68,12.72-3.43,11.92,1.11-5.06,2.29-9.75,2.94-15C94.29,136,93.85,137.08,94.24,138Z"/><path class="cls-29" d="M93.67,148.31c.42-.62.25-1.4.58-2.05.37,3.47.46,7,1.43,10.35a10,10,0,0,1-2.83.83C92.18,153.16,91,152.22,93.67,148.31Z"/><path class="cls-30" d="M100.73,165.08c-1.17.17-2.31,1.5-3.41,1.06-1.17-.26-2.25-2.38-1.65-3.22,1.21-.26,2.13-1.17,3.43-1.11C99.54,162.92,100.67,163.92,100.73,165.08Z"/><path class="cls-31" d="M97.32,166.14l1.19-.19c-1.45,1.9-3.82,2-5.88,2.63a15.54,15.54,0,0,1-3.3-2.22A17.73,17.73,0,0,0,97.32,166.14Z"/><path class="cls-32" d="M93.67,148.31a11.87,11.87,0,0,1-3.91,6.14,24.24,24.24,0,0,1,1-4.53C92.22,150.25,92.65,148.78,93.67,148.31Z"/><path class="cls-10" d="M109.43,27.81c12.8-3.41,35,9.64,27.87,24.27C126.4,62.45,105.61,50.62,103,37.42,102.09,33.32,105.15,28.18,109.43,27.81Z"/><path class="cls-33" d="M137.13,51.92c5.3-8.8-4.27-17.79-11.5-21.72,7.93,2.14,13.12,10.65,15.73,18.08A11.46,11.46,0,0,1,137.74,57C136.63,55.63,137.59,53.55,137.13,51.92Z"/><path class="cls-34" d="M109.43,27.81a8.84,8.84,0,0,0-6.07,5.9c-1.48.42-2.93,2.42-4.41,2,.41-4.81,4.16-7.61,8.75-8C108.24,27.66,108.88,27.14,109.43,27.81Z"/><path class="cls-35" d="M99,35.74c1.68-.24,2.69-2,4.41-2-2,14.71,22.8,29.08,33.77,18.21,1.09,1.3-.08,3.47.61,5.07a13.89,13.89,0,0,1-6.42,3.66c2,.78,3.86,1.19,5.41,2.65a5.69,5.69,0,0,1-2.2,4c-10.5-4.78-22.15,2-28.13,10.74-1.39-.67-3.12-.89-4.23-2-1.94-.79-4.24-1.93-5.27-3.83,4.37-9.53,4-23.2-4.86-30a6.51,6.51,0,0,1,2.46-3.41,14.28,14.28,0,0,1,4.73,3.38A15.3,15.3,0,0,1,99,35.74Z"/><path class="cls-36" d="M111.25,80.27c3.84-7.06,14.88-13.09,22.26-8.11,2,4.06-2.75,10.89-7.29,9,0-.87.82-.37,1.21-.64a2.9,2.9,0,0,1-.79-2.48,3.31,3.31,0,0,1-2.53.85c.7,1.1,1.06,2.11.48,3.23C122.87,82,111,82.68,111.25,80.27Z"/><path class="cls-37" d="M126.19,81.07c4.78,1.26,8.42-4.54,7.32-8.91,1.88,1.6,2.11,3.8,1.56,6.09-1.35,1.25-3.52,1.44-4.66,3.16-4,6.22-25.27,12.18-19.16-1.14.84,1.87,5.9.69,7.28,1.8-.28.81-1,1.73-.15,2.48,1.73,1.36,2.67-.64,2.15-2.2a4.37,4.37,0,0,1,4.08-.26C125,81.51,125.29,80.82,126.19,81.07Z"/><path class="cls-38" d="M110.88,87c10.6,4.28,16.23-4.68,24.19-8.7C132.34,86.74,117.76,94.79,110.88,87Z"/><path class="cls-39" d="M118.74,149.32a43.83,43.83,0,0,0-1.33-8.61c-.26.94,0,1.68-.28,2.36-.47-1.44-.83-3.18-2.12-4.11,0-1.2-1-1.72-1.74-2.4,1.88-3.29.07-6-1.62-8.91,6.78-3.94,10.9,22.88,10.3,27.77,0,1.75-3.84,9.92-5.6,8.37C118,159.19,119.47,154.25,118.74,149.32Z"/><path class="cls-40" d="M115.77,128.64c-1.28,0-3.16-2.16-4.12-1q-1.2-2-2.42-4.05c1.15-.93,2.51-.14,3.79-.19A48.19,48.19,0,0,1,115.77,128.64Z"/><path class="cls-41" d="M93.45,86.41a.83.83,0,0,1-.31-.67,3.12,3.12,0,0,0,3.39-.88c.36,1.1-.23,2.38.93,3.25.91.85-2.33-.4-3.36,1.33C94,88.29,94.4,87.19,93.45,86.41Z"/><path class="cls-42" d="M93.48,91.63c-.09.85-1.54.83-1.45-.09A.73.73,0,1,1,93.48,91.63Z"/><path class="cls-43" d="M116.47,163.84c1.93.54,4.15-6.18,5.33-7.23a17.27,17.27,0,0,1-2.71,9.71c-2,1.18-6.63,5.52-8.85,3.46,1.85-1.72,4.29-2.88,5.51-5.32C115.93,164.18,116.06,163.85,116.47,163.84Z"/><path class="cls-33" d="M128,160.46c.25.47.84.51,1.23,1a3.05,3.05,0,0,0-2.74,2.24c-.35-1.22-.66-2.28-1.91-2.59-.95-.69,2.15-.55,2.46-2.83C127.33,159.25,127.36,160,128,160.46Z"/><path class="cls-44" d="M126.73,155.42c-1.94,0-1.76-2.89,0-2.89A1.45,1.45,0,0,1,126.73,155.42Z"/><path class="cls-45" d="M126.65,148.49c0,1.39-2.22,1.23-2-.14A1,1,0,1,1,126.65,148.49Z"/><path class="cls-46" d="M125,143.68c-.11.82-1.46.83-1.36-.07S124.94,142.86,125,143.68Z"/><path class="cls-47" d="M138,61.05c-.07-.2-.72-.24-.12-.61a3.45,3.45,0,0,0,1.83-1.95,2.53,2.53,0,0,0,1.6,1.92c.79.33-.08.42-.08.63C138.64,63.82,140.42,63.32,138,61.05Z"/><path class="cls-48" d="M138,61.05c1.07.08,1.29,1,1.61,1.88.41-.86.62-1.73,1.62-1.89C139.5,64.31,139.64,64.28,138,61.05Z"/><path class="cls-49" d="M100.56,75.43a1,1,0,1,1,.81,1.9C100.22,77.62,99.74,76.1,100.56,75.43Z"/><path class="cls-50" d="M93.46,62.05c-6,26.75-20.82-6.58-8-14.78,2.13,6.87-.15,2.69-.46,6.1.26.82,1.25.74,2,.4,1.64.56,2.4,3.19,3.17,4.74-.14.6-.09,1.08.69,1.09C92.06,60,92.41,61.42,93.46,62.05Z"/><path class="cls-51" d="M85.37,47.28c-6.63,5.7-6.89,21.79,2.22,24.9-13.06,3.08-13.21-28.35-.19-25.73A5.23,5.23,0,0,1,85.37,47.28Z"/><path class="cls-52" d="M85.37,47.28c6.61-3.37,9.11,10.23,8.09,14.77-1.45-.07-1.4-2-2.7-2.26.08-.61-.35-.91-.75-1.22-.91-1.45-1.54-3.89-3-4.62a2.38,2.38,0,0,0-.82-2.43C86.14,50.06,85.11,48.79,85.37,47.28Z"/><path class="cls-53" d="M97.43,34.33a2.87,2.87,0,0,0-.79,3,3.09,3.09,0,0,0-3.12-.72,2.93,2.93,0,0,0,.77-3.13C95.65,34.41,95.65,34.41,97.43,34.33Z"/><path class="cls-54" d="M109.41,130.44a2.4,2.4,0,0,1,.63,1.75c-.84,2.75,2.46,4.36,2.39,6.61-1.51,2.51-4.85,7.17-8.11,5.46.17-2.21,3.59-4.06,2.05-6.7-2.37-2.86-4.18-.6-5.48,1.84-2.68-.78-1.29-5.27-2.1-7.47.08-5.06,2.84-13.53,7.44-5.42.29,1.73-1.58,2.71-3.07,3.2a4.71,4.71,0,0,1,2.9,3.34C107.05,131.05,108.09,130.26,109.41,130.44Z"/><path class="cls-55" d="M100.89,139.4c.48-2.81,3.65-4.92,5.67-2-2.77,4.32-4,9.54-2,14.38-1.24.68-5.53,4.71-6.21,2.72-.9-4.51-1.8-10,.08-14.26C99.61,143.18,100.71,141.75,100.89,139.4Z"/><path class="cls-56" d="M104.59,151.76c-2.63-3.4-1.12-11.26,2-14.38,1.38,2.41-.59,4.41-1.93,6.19-.43.53-.2.78.38.86,4.2-.09,6.58-4.54,8.26-7.87,1.31.44,2,1.4,1.83,2.45C113.86,144.3,108.77,148.4,104.59,151.76Z"/><path class="cls-57" d="M109.41,130.44c-1.67.38-2.3,1-3.42,3.42-.25-2.2-1.48-3.44-3.66-4.11,1.9-.62,3.51-1.25,3.9-3.24.68-1,.28,2.64,3.77,3.51C109.89,130.39,109.53,130.21,109.41,130.44Z"/><path class="cls-58" d="M116.47,163.84c-1.84,3-4.54,5.7-8,6.53A.61.61,0,0,0,108,170c-1.18-.2,1.21-2.27-.13-3.66-1.86-.3,0-2.78.6-1.3.56,1.81,2.73,2.57,3.88.56-.87-.24-1.74.46-2.5-.22-.45-.27-.52-.62,0-.88a2.44,2.44,0,0,0,2.41-.09.34.34,0,0,1,.27.25c-.09-.72-1-1.25-1.13-2,.52-.44,1-.9,1.78-.36s2.32-1,1.7-1.87a1.17,1.17,0,0,1-.63-.88c-.49-1.67,2.56-.72,1.67-2.57a.14.14,0,0,1-.11-.17,17.41,17.41,0,0,0,3-2.85A23.25,23.25,0,0,1,116.47,163.84Z"/><path class="cls-44" d="M107,165.35l.87,1C107.31,171.24,102.08,165.25,107,165.35Z"/><path class="cls-59" d="M112.18,164.46c-.88.93-1.37.93-2.3,0-.1-1.34.3-1.8,1.55-1.8l.85.8C112.34,163.83,112.56,164.18,112.18,164.46Z"/><path class="cls-60" d="M114.28,159.58a1.65,1.65,0,0,1,.63.88C113.91,162.53,112.05,159.56,114.28,159.58Z"/><path class="cls-61" d="M115.84,156.84l.11.17C115.61,158.81,114.1,156.2,115.84,156.84Z"/><path class="cls-62" d="M111.31,145.49A27.37,27.37,0,0,0,115.1,139c1.65,9.28-7,20.21-16,22.91l-2.43.71c-.36-2.39,2.22-4.32,3.76-5.9s3.92-1.17,5.09-2.84C107.28,150.93,110.7,149,111.31,145.49Z"/><path class="cls-56" d="M107.75,156.38A24.4,24.4,0,0,0,115.29,139c4.8,4.59-.66,14.5-4.43,18.82C109.76,158.06,107.9,157.72,107.75,156.38Z"/><path class="cls-63" d="M107.75,156.38c.69,1.2,1.94,1.13,3.11,1.45A22.54,22.54,0,0,1,104,163.5a3.4,3.4,0,0,1-2-2.86A38.35,38.35,0,0,0,107.75,156.38Z"/><path class="cls-64" d="M101.94,160.64a6.49,6.49,0,0,0,2,2.86,14.37,14.37,0,0,1-3.25,1.58c-.47-1.06-1.57-2-1.61-3.16Z"/><path class="cls-65" d="M131.67,48.27c-8.11,4.78-24.45-4.77-21.62-14.56C117.93,28.87,134.64,38.77,131.67,48.27Z"/><path class="cls-66" d="M131.67,48.27c1.63-10.19-12.85-18.35-21.62-14.56C116.14,23,141.58,38.92,131.67,48.27Z"/><path class="cls-14" d="M104.13,50.55A42,42,0,0,0,121.5,60.67c-6.52,1.63-12.29,4.54-16.88,9.59A35.22,35.22,0,0,0,104.13,50.55Z"/><path class="cls-67" d="M128.62,59.63c1.36.1,1.37,2.15,0,2.06S127.4,59.69,128.62,59.63Z"/><path class="cls-68" d="M101.73,44.86c0,1.34-2.12,1.39-2,0S101.64,43.6,101.73,44.86Z"/><path class="cls-69" d="M126.12,60.58c.06.92-1.3,1-1.32.13S126,59.8,126.12,60.58Z"/><path class="cls-70" d="M103.56,73.32c0,.89-1.43.91-1.38,0A.69.69,0,0,1,103.56,73.32Z"/><path class="cls-71" d="M102.93,47.62a.68.68,0,0,1-1.36.09C101.47,46.84,102.84,46.79,102.93,47.62Z"/><path class="cls-72" d="M120.53,82.35c2.36,4.18-5.28,3.32-2-.28A2.36,2.36,0,0,1,120.53,82.35Z"/><path class="cls-73" d="M126.19,81.07c-.74,0-1,.68-1.58,1a3.41,3.41,0,0,0-1.22-3.43c1.47.11,2.64,0,3.49-1.13a3.36,3.36,0,0,0,1.05,3.29C127.29,81,126.69,80.69,126.19,81.07Z"/><path class="cls-74" d="M119.64,78.87a3.42,3.42,0,0,0-2.1.66,2.94,2.94,0,0,0-1-2.1,2.62,2.62,0,0,0,2.41-.82A2.46,2.46,0,0,0,119.64,78.87Z"/><path class="cls-75" d="M124.39,75.09c0,.8-1.31.72-1.21-.08A.61.61,0,0,1,124.39,75.09Z"/><path class="cls-73" d="M89,64.89a4.19,4.19,0,0,0-4.48,1.65,4.38,4.38,0,0,0-1.63-4.74c2,.29,3.53.08,4.7-1.6C87.32,62.57,87.4,62.84,89,64.89Z"/><path class="cls-76" d="M86.17,51.52c1.28.68,1.44,1.15.82,2.43C84.81,55.7,83.36,51.53,86.17,51.52Z"/><path class="cls-77" d="M84.55,57.81a.65.65,0,1,1-1.29.08A.65.65,0,0,1,84.55,57.81Z"/><path class="cls-78" d="M90,58.57c1.06.1,1.17.28.75,1.22C89.69,59.81,89.53,59.54,90,58.57Z"/><path class="cls-23" d="M112.18,164.46l.1-1a2.12,2.12,0,0,1,.34,1.65C112.37,164.94,112.51,164.53,112.18,164.46Z"/><path class="cls-79" d="M128.44,43.38a3.79,3.79,0,0,0-3.7,1.81,3.74,3.74,0,0,0-2-3.53c1.68,0,2.86-.47,3.61-1.82A3.93,3.93,0,0,0,128.44,43.38Z"/><path class="cls-80" d="M116.12,41.09c1.44-.44,3.16-2.17,3.94.22.11.39.13.79.75,1.07a2,2,0,0,0-1.35.67C117.56,44.48,117.14,42.08,116.12,41.09Z"/><path class="cls-81" d="M116.24,36.19a.86.86,0,0,1-.1,1.72C115,37.88,115.14,36.18,116.24,36.19Z"/></g></svg>