<svg xmlns="http://www.w3.org/2000/svg" viewBox="0 0 220 200"><defs><style>.cls-1{fill:#29a737;}</style></defs><g id="Layer_8" data-name="Layer 8"><rect width="220" height="200"/><path class="cls-1" d="M110.15,160.66c16.09.14,30.07-5.42,42.27-15.77a4.25,4.25,0,0,0,1.78-4.38c-.79-5.28,2-8.67,7.23-8.93a4.36,4.36,0,0,0,4-2.61c12.11-22.46,11.76-44.67-1.48-66.51-4.28-7.07-4.47-7-10.29-1.26-4.09,4-4.09,4-1.08,8.82,18.89,30.24-.07,70-35.45,74.43A48.56,48.56,0,0,1,63.58,107.6a8.48,8.48,0,0,0-3.17-5.18,6.91,6.91,0,0,1-.12-11,8.21,8.21,0,0,0,2.82-5.08,45.89,45.89,0,0,1,14.78-26c1-.91,2-2.5,3.85-1.37,2.25,1.39,2.44,2.82.46,4.78-6.74,6.69-11.46,14.46-13.28,23.9a3.82,3.82,0,0,0,1.17,4c3.18,3.14,3.3,6.78.35,10.24a4.76,4.76,0,0,0-1,4.69c3.74,16,18.74,29.24,35.09,31.77,22.89,3.55,44.76-12.38,48.65-34.66a42.91,42.91,0,0,0-6.74-31.93c-1.25-1.91-2.11-1.87-3.6-.3a70.06,70.06,0,0,1-6.6,6.18c-1.93,1.56-1.79,2.84-.56,4.83,10.07,16.27.9,37.9-17.92,41.6-11.23,2.2-21-1.08-28-10.59-6.73-9.2-7.42-19.07-2.43-29.32,1.58-3.25,4.21-5.61,6.75-8.06,1.79-1.73,3-.55,4.35.62,1.82,1.55.43,2.5-.59,3.37a22.31,22.31,0,0,0-4.77,27.75c5.73,9.83,19.16,13.77,28.94,8.34,10.64-5.89,14.64-18.57,9.31-29.08-1.21-2.38-2.28-2.75-4.15-.7a49.73,49.73,0,0,1-4,3.65c-2.26,2-4,3.94-3.8,7.56.23,4.18-3.76,7.19-7.9,6.92s-7.07-3.62-6.91-8a7.08,7.08,0,0,1,7.71-7.12,5.9,5.9,0,0,0,5-2q19.29-18.46,38.68-36.84c3.66-3.48,3.93-3.45,7.2.45,12.2,14.52,18,31.27,17,50.2a66.32,66.32,0,0,1-10,31.93,8.23,8.23,0,0,0-1.41,5.34c.35,4.49-2.37,7.44-6.89,7.78a5.41,5.41,0,0,0-3.46,1.54c-15.39,14.28-33.66,20.33-54.49,19-30.45-2-57.82-27.18-62.64-57.58C37.47,85.9,43.7,65.71,59.57,48.46a69.13,69.13,0,0,1,5.19-4.59c1.46-1.31,2.67-1.3,4.1.23s.82,2.61-.42,3.78a74.84,74.84,0,0,0-13.12,15.7c-15.47,25.92-11.4,58.31,10.32,79.25C78,154.72,92.85,160.81,110.15,160.66Z"/></g></svg>