<svg xmlns="http://www.w3.org/2000/svg" viewBox="0 0 220 200"><defs><style>.cls-1{fill:#fff;}.cls-2{fill:#39939f;}.cls-3{fill:#e21154;}</style></defs><g id="Layer_4" data-name="Layer 4"><rect class="cls-1" x="0.26" y="-0.34" width="220" height="200"/><rect class="cls-2" x="78.62" y="55.64" width="62.68" height="1.82"/><rect class="cls-2" x="78.76" y="141.83" width="62.33" height="1.82"/><path class="cls-3" d="M116.42,51.75h-11.8l-4.54-11.11L89.24,37.46l.6-2.07,10.86,3.18L110,32.29,120.36,39Zm-10.35-2.16h8.75l3-9.7-7.8-5-7.79,5.27Z"/><path class="cls-3" d="M95.87,96.2,86.07,91V79.68l9.05-5.59,9.08,4.67,11.63-8.92,6.35,8.51h8.1l4.56-7.44-4.66-7.62-9.44.74-6.1-12.9,2-.92,5.46,11.55,9.28-.73,6,9.89-5.9,9.59H121.1l-5.69-7.62-10,7.71-.72,10Zm-7.64-6.52,7.54,4,6.79-4.31.62-8.72-8-4.1-7,4.31Z"/><rect class="cls-3" x="113.38" y="66.05" width="10.25" height="2.16" transform="translate(-3.71 127.24) rotate(-55.72)"/><path class="cls-3" d="M100.56,137.94H89.88L84,128.69,89.78,119h10.86l4.82,7.8,12.25-8.72,9,4.73,7.14-4.31v-8.66l-7.66-4.39-8.56,5.2-14.85-20,1.73-1.29,13.68,18.42,8-4.84,9.85,5.65v11.13l-9.23,5.57-8.87-4.67L106,129.1Zm-9.49-2.16h8.28l4.53-7.43-4.45-7.19H91l-4.46,7.49Z"/><rect class="cls-3" x="112.76" y="113.2" width="10.13" height="2.16" transform="translate(2.61 231.2) rotate(-89.55)"/><path class="cls-3" d="M111.8,167,101.88,160l3.69-11.06L99,137.39l1.88-1.07,6.47,11.39h10.74l3.82,11.89Zm-7.36-7.89,7.34,5.22,7.62-5.58-2.86-8.9h-9Z"/><rect class="cls-3" x="125.15" y="154.9" width="2.16" height="11.5" transform="translate(-61.19 241.99) rotate(-75.3)"/><path class="cls-2" d="M62.4,76.79a6,6,0,1,1,6-6A6,6,0,0,1,62.4,76.79Zm0-10.25a4.22,4.22,0,1,0,4.21,4.21A4.22,4.22,0,0,0,62.4,66.54Z"/><path class="cls-2" d="M57.27,91.2a6,6,0,1,1,6-6A6,6,0,0,1,57.27,91.2Zm0-10.25a4.22,4.22,0,1,0,4.21,4.21A4.22,4.22,0,0,0,57.27,81Z"/><path class="cls-2" d="M55.47,105.61a6,6,0,1,1,6-6A6,6,0,0,1,55.47,105.61Zm0-10.25a4.22,4.22,0,1,0,4.22,4.21A4.22,4.22,0,0,0,55.47,95.36Z"/><path class="cls-2" d="M57.27,120a6,6,0,1,1,6-6A6,6,0,0,1,57.27,120Zm0-10.25A4.22,4.22,0,1,0,61.48,114,4.22,4.22,0,0,0,57.27,109.77Z"/><path class="cls-2" d="M62.8,134.43a6,6,0,1,1,6-6A6,6,0,0,1,62.8,134.43Zm0-10.25A4.22,4.22,0,1,0,67,128.4,4.22,4.22,0,0,0,62.8,124.18Z"/><path class="cls-2" d="M73.49,62.59a6,6,0,1,1,6-6A6,6,0,0,1,73.49,62.59Zm0-10.26a4.22,4.22,0,1,0,4.21,4.22A4.23,4.23,0,0,0,73.49,52.33Z"/><path class="cls-2" d="M147.09,62.59a6,6,0,1,1,6-6A6,6,0,0,1,147.09,62.59Zm0-10.26a4.22,4.22,0,1,0,4.21,4.22A4.22,4.22,0,0,0,147.09,52.33Z"/><path class="cls-2" d="M157.82,76.83a6,6,0,1,1,6-6A6,6,0,0,1,157.82,76.83Zm0-10.25A4.22,4.22,0,1,0,162,70.8,4.22,4.22,0,0,0,157.82,66.58Z"/><path class="cls-2" d="M163.39,91.19a6,6,0,1,1,6-6A6,6,0,0,1,163.39,91.19Zm0-10.25a4.22,4.22,0,1,0,4.21,4.21A4.22,4.22,0,0,0,163.39,80.94Z"/><path class="cls-2" d="M165,105.55a6,6,0,1,1,6-6A6,6,0,0,1,165,105.55Zm0-10.25a4.22,4.22,0,1,0,4.22,4.21A4.22,4.22,0,0,0,165,95.3Z"/><path class="cls-2" d="M163.39,120a6,6,0,1,1,6-6A6,6,0,0,1,163.39,120Zm0-10.25A4.22,4.22,0,1,0,167.6,114,4.22,4.22,0,0,0,163.39,109.77Z"/><path class="cls-2" d="M157.77,134.27a6,6,0,1,1,6-6A6,6,0,0,1,157.77,134.27Zm0-10.25a4.22,4.22,0,1,0,4.21,4.22A4.22,4.22,0,0,0,157.77,124Z"/><path class="cls-2" d="M73.63,148.78a6,6,0,1,1,6-6A6,6,0,0,1,73.63,148.78Zm0-10.25a4.22,4.22,0,1,0,4.22,4.21A4.22,4.22,0,0,0,73.63,138.53Z"/><path class="cls-2" d="M147,148.78a6,6,0,1,1,6-6A6,6,0,0,1,147,148.78Zm0-10.25a4.22,4.22,0,1,0,4.22,4.21A4.23,4.23,0,0,0,147,138.53Z"/><rect class="cls-2" x="67.52" y="69.84" width="44.37" height="1.82"/><rect class="cls-2" x="60.6" y="98.84" width="38.3" height="1.82"/><rect class="cls-2" x="62.4" y="113.07" width="53.53" height="1.82"/><rect class="cls-2" x="105.76" y="84.24" width="52.5" height="1.82"/><rect class="cls-2" x="121.92" y="98.6" width="37.99" height="1.82"/><rect class="cls-2" x="109.58" y="127.32" width="43.06" height="1.82"/><rect class="cls-3" x="113.32" y="89.29" width="2.16" height="14.89" transform="translate(-35.07 86.49) rotate(-36.3)"/><rect class="cls-3" x="105.36" y="94.6" width="2.16" height="15.37" transform="translate(-39.87 82.62) rotate(-36.21)"/></g></svg>