<svg width="56" height="72" viewBox="0 0 56 72" fill="none" xmlns="http://www.w3.org/2000/svg">
<path d="M22.5961 13.587C21.1363 13.587 20.0846 14.6387 20.0846 16.0907C20.0846 17.5427 21.1442 18.5944 22.5961 18.5944C24.056 18.5944 25.1077 17.5427 25.1077 16.0907C25.1155 14.6465 24.056 13.587 22.5961 13.587ZM53.5117 21.153C52.4286 20.0699 50.9453 19.4656 49.3363 19.4656C49.0302 19.4656 48.7555 19.497 48.4965 19.5441V19.4656H48.2139C47.7823 17.0639 46.7541 14.7172 45.2236 12.6059C43.7559 10.5888 41.8487 8.84644 39.6668 7.51218L41.6368 4.70238V4.44338C41.6368 4.38059 41.6682 4.26286 41.6918 4.14513C41.7389 3.95677 41.8016 3.71346 41.8016 3.44661C41.8016 1.99462 40.7421 0.942907 39.2901 0.942907C38.5209 0.942907 37.7596 1.39028 37.2573 2.15159L34.9577 5.45585C32.6031 4.68668 30.0602 4.27856 27.5957 4.27856C25.1391 4.27856 22.5961 4.68668 20.2337 5.45585L17.9419 2.14374C17.4239 1.39028 16.6783 0.935059 15.9013 0.935059C14.4415 0.935059 13.3897 1.98677 13.3897 3.43876C13.3897 3.92537 13.586 4.44338 13.9156 4.80441L15.6894 7.33951C13.4368 8.67377 11.4904 10.4319 10.0227 12.4489C8.50007 14.5602 7.51115 16.9069 7.14227 19.3086H6.71059V19.3871C6.45944 19.34 6.18474 19.3086 5.8708 19.3086C4.27753 19.3086 2.79415 19.8973 1.70319 20.9804C0.620089 22.0635 0.0157471 23.539 0.0157471 25.1401V43.5843C0.0157471 45.1776 0.604391 46.6531 1.69534 47.7362C2.77845 48.8193 4.26968 49.4237 5.8708 49.4237C6.17689 49.4237 6.45159 49.3923 6.71059 49.3452V56.6836C6.71059 58.9754 8.58641 60.8512 10.886 60.8512H13.3897V65.4269C13.3897 67.0202 13.9784 68.4957 15.0693 69.5788C16.1524 70.6619 17.6437 71.2663 19.2448 71.2663C20.8381 71.2663 22.3214 70.6776 23.4124 69.5945C24.4955 68.5114 25.0998 67.0359 25.0998 65.4348V60.8669H30.1072V65.4269C30.1072 67.0202 30.6959 68.4957 31.7868 69.5788C32.8699 70.6619 34.3612 71.2663 35.9623 71.2663C37.5634 71.2663 39.0389 70.6776 40.1299 69.571C41.213 68.4879 41.8173 67.0123 41.8173 65.4112V60.8433H44.321C46.6207 60.8433 48.4965 58.9754 48.4965 56.6758V49.5021C48.7476 49.5492 49.0224 49.5806 49.3363 49.5806C50.9296 49.5806 52.4129 48.992 53.5039 47.9089C54.587 46.8258 55.1913 45.3502 55.1913 43.7491V25.3049C55.1835 23.7117 54.5948 22.244 53.5117 21.153ZM6.71844 43.757C6.71844 44.2907 6.41235 44.5889 5.87864 44.5889C5.34494 44.5889 5.03885 44.2907 5.03885 43.757V25.3049C5.03885 24.7712 5.34494 24.473 5.87864 24.473C6.41235 24.473 6.71844 24.7712 6.71844 25.3049V43.757ZM17.0079 12.6138C19.9512 10.4711 23.7028 9.29381 27.6035 9.29381C31.5043 9.29381 35.2559 10.4789 38.1991 12.6295C40.7421 14.4896 42.4531 16.8834 43.1202 19.497H12.0869C12.754 16.8755 14.4807 14.4739 17.0079 12.6138ZM20.0924 65.5682C20.0453 66.0077 19.7471 66.251 19.2683 66.251C18.7346 66.251 18.4285 65.9528 18.4285 65.4191V60.8512H20.0924V65.5682ZM35.9701 66.251C35.4364 66.251 35.1303 65.9528 35.1303 65.4191V60.8512H36.7942V65.5682C36.7472 66.0077 36.4568 66.251 35.9701 66.251ZM43.4891 55.8438H11.7337V24.4808H43.4891V55.8438ZM50.1761 43.757C50.1761 44.2907 49.87 44.5889 49.3363 44.5889C48.8026 44.5889 48.4965 44.2907 48.4965 43.757V25.3049C48.4965 24.7712 48.8026 24.473 49.3363 24.473C49.87 24.473 50.1761 24.7712 50.1761 25.3049V43.757ZM32.6266 13.587C31.1668 13.587 30.1151 14.6387 30.1151 16.0907C30.1151 17.5427 31.1746 18.5944 32.6266 18.5944C34.0865 18.5944 35.146 17.5427 35.146 16.0828C35.1382 14.623 34.0943 13.587 32.6266 13.587Z" fill="#008ECC"/>
</svg>
