<svg width="25" height="34" viewBox="0 0 25 34" fill="none" xmlns="http://www.w3.org/2000/svg">
<path d="M6.31522 0H9.85996V1.52717H7.79747V3.05433H9.85996V4.5815H6.31522V0Z" fill="#2F2F2F"/>
<path d="M10.5681 0H14.1142V1.32883H12.0517V1.59375H14.1142V4.64808H10.5681V3.25408H12.6306V2.98775H10.5681V0Z" fill="#2F2F2F"/>
<path d="M14.8237 0H18.3671V1.32883H16.3046V1.59375H18.3671V4.64808H14.8237V3.25408H16.8862V2.98775H14.8237V0Z" fill="#2F2F2F"/>
<path fill-rule="evenodd" clip-rule="evenodd" d="M12.4876 34.0002L2.93962 31.2689L0.125 6.68262H24.875L22.0618 31.266L12.4876 34.0002ZM5.68962 17.812L5.95225 20.8266H16.0956L15.756 24.7366L12.4918 25.6461H12.489L9.23025 24.7394L9.02125 22.3354H6.08288L6.49263 27.0699L12.4876 28.784L18.4922 27.0699L19.2237 18.6209L19.2952 17.812L19.8233 11.7075H5.163L5.42975 14.7236H16.6168L16.35 17.812H5.68962V17.812Z" fill="#2F2F2F"/>
</svg>
