<svg width="64" height="63" viewBox="0 0 64 63" fill="none" xmlns="http://www.w3.org/2000/svg">
<path d="M62.0288 15.9108C62.3449 15.5954 62.5956 15.2207 62.7667 14.8083C62.9378 14.3959 63.0258 13.9538 63.0258 13.5073C63.0258 13.0608 62.9378 12.6187 62.7667 12.2063C62.5956 11.7939 62.3449 11.4192 62.0288 11.1039L52.381 1.45597C52.0656 1.13993 51.6909 0.889194 51.2785 0.718118C50.8661 0.547043 50.424 0.458984 49.9775 0.458984C49.531 0.458984 49.0889 0.547043 48.6765 0.718118C48.2641 0.889194 47.8895 1.13993 47.5741 1.45597L32.267 16.763L19.0054 3.50146C16.3463 0.842323 12.0167 0.842323 9.35753 3.50146L2.88015 9.97884C0.221016 12.638 0.221016 16.9676 2.88015 19.6267L16.1417 32.8883L0.766479 48.2636V62.7183H15.2213L30.6306 47.309L43.8922 60.5706C47.1309 63.8093 51.4946 62.6161 53.5401 60.5706L60.0174 54.0932C62.6766 51.4341 62.6766 47.1045 60.0174 44.4453L46.7559 31.1837L62.0288 15.9108V15.9108ZM7.72114 14.7857L14.1644 8.30835L18.494 12.638L14.4712 16.6949L19.2781 21.5018L23.335 17.4449L27.426 21.5358L20.9486 28.0132L7.72114 14.7857V14.7857ZM46.0059 40.1498L41.949 44.2067L46.7559 49.0136L50.8128 44.9567L55.1424 49.2863L48.665 55.7637L35.4034 42.5021L41.8808 36.0247L46.0059 40.1498V40.1498ZM12.3917 55.9H7.58477V51.0931L40.3467 18.3312L44.7786 22.7631L45.1536 23.1381L12.3917 55.9ZM45.1536 13.4903L49.9605 8.68336L54.7674 13.4903L49.9605 18.2972L45.1536 13.4903Z" fill="#008ECC"/>
</svg>
