<svg width="45" height="44" viewBox="0 0 45 44" fill="none" xmlns="http://www.w3.org/2000/svg">
<circle cx="22.7168" cy="21.7871" r="21.7285" fill="#545454"/>
<path d="M28.5501 15.1206H16.8834C16.2204 15.1206 15.5845 15.384 15.1157 15.8528C14.6468 16.3217 14.3834 16.9576 14.3834 17.6206V25.9539C14.3834 26.617 14.6468 27.2529 15.1157 27.7217C15.5845 28.1905 16.2204 28.4539 16.8834 28.4539H28.5501C29.2131 28.4539 29.849 28.1905 30.3179 27.7217C30.7867 27.2529 31.0501 26.617 31.0501 25.9539V17.6206C31.0501 16.9576 30.7867 16.3217 30.3179 15.8528C29.849 15.384 29.2131 15.1206 28.5501 15.1206V15.1206ZM28.5501 16.7873L23.1334 20.5123C23.0067 20.5854 22.863 20.6239 22.7168 20.6239C22.5705 20.6239 22.4268 20.5854 22.3001 20.5123L16.8834 16.7873H28.5501Z" fill="white"/>
</svg>
