<svg width="29" height="39" viewBox="0 0 29 39" fill="none" xmlns="http://www.w3.org/2000/svg">
<path d="M25.3797 14.625L29 18.5479L23.909 20.1475L25.1157 25.3652L20.3264 24.2607L24.173 36.6387C24.173 37.4766 23.821 38.1367 23.117 38.6191L21.156 36.6387L18.8179 39C18.2648 38.873 17.8123 38.5874 17.4603 38.1431C17.1084 37.6987 16.9324 37.1973 16.9324 36.6387L14.4811 28.793L12.0676 36.6387C12.0676 37.1973 11.8916 37.6987 11.5397 38.1431C11.1877 38.5874 10.7352 38.873 10.1821 39L7.84395 36.6387L5.88297 38.6191C5.17902 38.1367 4.82705 37.4766 4.82705 36.6387L8.6736 24.2607L3.88427 25.3652L5.09103 20.1475L0 18.5479L3.62029 14.625L0 10.7021L5.09103 9.14062L3.88427 3.92285L9.05072 5.1416L10.5969 0L14.4811 3.65625L18.3654 0L19.9493 5.1416L25.1157 3.92285L23.909 9.14062L29 10.7021L25.3797 14.625ZM14.5 7.3125C12.5013 7.3125 10.7917 8.02979 9.37126 9.46436C7.9508 10.8989 7.24057 12.6255 7.24057 14.644C7.24057 16.6626 7.9508 18.3892 9.37126 19.8237C10.7917 21.2583 12.5013 21.9756 14.5 21.9756C16.4987 21.9756 18.2083 21.2583 19.6287 19.8237C21.0492 18.3892 21.7594 16.6626 21.7594 14.644C21.7594 12.6255 21.0492 10.8989 19.6287 9.46436C18.2083 8.02979 16.4987 7.3125 14.5 7.3125Z" fill="#008ECC"/>
</svg>
