<svg width="45" height="44" viewBox="0 0 45 44" fill="none" xmlns="http://www.w3.org/2000/svg">
<circle cx="22.3757" cy="22.0678" r="21.7285" fill="#545454"/>
<path d="M30.8404 13.958C30.1528 13.2959 29.3255 12.9653 28.3575 12.9653H16.6443C15.6763 12.9653 14.849 13.2959 14.1614 13.958C13.4738 14.6201 13.1305 15.4168 13.1305 16.349V27.6283C13.1305 28.5605 13.4738 29.3572 14.1614 30.0193C14.849 30.6814 15.6763 31.012 16.6443 31.012H19.3777C19.556 31.012 19.6901 31.0057 19.7802 30.994C19.8849 30.9738 19.9795 30.9199 20.0484 30.8413C20.1375 30.751 20.1826 30.62 20.1826 30.4484L20.176 29.649C20.1723 29.1395 20.1704 28.7367 20.1704 28.4386L19.889 28.4856C19.7107 28.5172 19.4856 28.5307 19.2127 28.5271C18.9281 28.5221 18.6445 28.4946 18.3647 28.4449C18.0668 28.3919 17.7863 28.2712 17.5467 28.0926C17.2958 27.9098 17.1086 27.6578 17.0102 27.37L16.8882 27.099C16.7854 26.8853 16.6563 26.6842 16.5036 26.5001C16.3292 26.2806 16.1519 26.1325 15.9727 26.0539L15.8883 25.9952C15.8294 25.9546 15.7759 25.9073 15.7288 25.8543C15.6839 25.8051 15.6469 25.7497 15.6191 25.6899C15.5947 25.6348 15.6153 25.5896 15.68 25.5544C15.7457 25.5183 15.863 25.5011 16.0346 25.5011L16.2785 25.5372C16.4408 25.568 16.6425 25.6619 16.8817 25.8182C17.1237 25.9771 17.3259 26.186 17.4736 26.4297C17.6612 26.7504 17.8863 26.9951 18.1508 27.1641C18.4153 27.3321 18.6817 27.417 18.95 27.417C19.2183 27.417 19.45 27.3971 19.646 27.3583C19.8356 27.3205 20.0198 27.2611 20.1948 27.1812C20.2679 26.6573 20.4668 26.2526 20.7923 25.9708C20.3705 25.931 19.9525 25.8603 19.5419 25.7594C19.1412 25.6534 18.7558 25.4996 18.3947 25.3015C18.0169 25.1034 17.6832 24.8358 17.4126 24.5138C17.1527 24.2004 16.9389 23.7894 16.7719 23.2808C16.6059 22.7714 16.5224 22.1833 16.5224 21.5176C16.5224 20.5701 16.8432 19.7634 17.4857 19.0968C17.1856 18.385 17.2137 17.5856 17.5711 16.7013C17.8075 16.63 18.1574 16.6832 18.6208 16.8594C19.0841 17.0355 19.4237 17.1864 19.6395 17.311C19.8552 17.4375 20.0278 17.5432 20.1582 17.629C20.9208 17.4246 21.7089 17.3219 22.5004 17.3237C23.3062 17.3237 24.0866 17.4257 24.8436 17.629L25.307 17.3472C25.6634 17.1411 26.0394 16.9681 26.4298 16.8305C26.8613 16.6733 27.1896 16.6309 27.4185 16.7013C27.7843 17.5865 27.8162 18.385 27.5151 19.0977C28.1577 19.7634 28.4794 20.5701 28.4794 21.5185C28.4794 22.1843 28.3959 22.7741 28.229 23.2863C28.0629 23.7993 27.8472 24.2103 27.5827 24.5201C27.3073 24.838 26.9722 25.1031 26.5949 25.3015C26.2009 25.5129 25.8182 25.6655 25.4477 25.7594C25.0371 25.8607 24.6191 25.9316 24.1973 25.9717C24.6194 26.324 24.8314 26.8795 24.8314 27.6392V30.4484C24.8314 30.5812 24.8511 30.6887 24.8924 30.7709C24.9114 30.8105 24.9384 30.846 24.9719 30.8753C25.0055 30.9047 25.0448 30.9272 25.0875 30.9416C25.1776 30.9723 25.2564 30.9922 25.3258 30.9994C25.3952 31.0084 25.4946 31.0111 25.6241 31.0111H28.3575C29.3255 31.0111 30.1528 30.6805 30.8404 30.0184C31.5271 29.3572 31.8713 28.5596 31.8713 27.6274V16.349C31.8713 15.4168 31.5271 14.6201 30.8395 13.958H30.8404Z" fill="white"/>
</svg>
