<svg width="27" height="28" viewBox="0 0 27 28" fill="none" xmlns="http://www.w3.org/2000/svg">
<path fill-rule="evenodd" clip-rule="evenodd" d="M0.237392 0.300534C0.321768 0.205669 0.424198 0.129982 0.538211 0.0782532C0.652225 0.0265247 0.775344 -0.000120605 0.899792 4.10371e-07H26.0998C26.2243 6.0556e-05 26.3475 0.0269189 26.4615 0.0788767C26.5755 0.130834 26.6779 0.206761 26.7621 0.301854C26.8464 0.396947 26.9107 0.509137 26.951 0.631328C26.9913 0.753519 27.0067 0.883052 26.9962 1.01173L25.1962 23.4117C25.1813 23.5935 25.1154 23.7667 25.0067 23.91C24.8979 24.0533 24.751 24.1604 24.5842 24.2181L13.7842 27.9515C13.5996 28.0154 13.4 28.0154 13.2154 27.9515L2.41539 24.2181C2.2483 24.1603 2.10125 24.0529 1.99246 23.9092C1.88368 23.7655 1.81794 23.5919 1.80339 23.4099L0.00339213 1.00987C-0.0070058 0.881281 0.00842044 0.751855 0.0486966 0.629765C0.0889728 0.507674 0.153224 0.39557 0.237392 0.300534V0.300534ZM19.7998 5.6H7.19979V13.0667H17.9998V17.0613L13.4998 18.6163L8.99979 17.0613V14.9333H7.19979V18.4053L13.4998 20.5837L19.7998 18.4053V11.2H8.99979V7.46667H19.7998V5.6Z" fill="#2F2F2F"/>
</svg>
