<svg id="Layer_1" data-name="Layer 1" xmlns="http://www.w3.org/2000/svg" viewBox="0 0 90 90"><defs><style>.cls-1{fill:#3c3c3b;}.cls-2{fill:#fff;}</style></defs><rect class="cls-1" width="90" height="90"/><path class="cls-2" d="M20.64,58.22c-2.6,0-5.19,0-7.78,0-1.81,0-3.25-.13-3.2-2.5s1.61-2.39,3.34-2.38c4.43,0,8.86.06,13.29,0,6.09-.09,9.69-3.64,9.82-9.67.06-3-.18-6.06.11-9a3.81,3.81,0,0,1,2.13-2.79c2-.48,2.41,1.15,2.4,2.85,0,3.67,0,7.35,0,11A12.46,12.46,0,0,1,28.42,58.19c-2.59.1-5.19,0-7.78,0Z"/><path class="cls-2" d="M69,30.76c2.49,0,5,0,7.46,0,2.14-.06,3.91.06,3.87,2.94,0,2.72-1.74,2.79-3.73,2.77-4.75,0-9.51-.05-14.27,0-6.15.07-9.88,3.78-10,9.9q-.09,5,0,10c0,2.11-1,2.91-3,2.88s-2.77-.88-2.75-2.78c.05-4.32-.16-8.65.1-13C47.14,37.15,54.11,31,60.9,30.77,63.6,30.69,66.31,30.75,69,30.76Z"/><path class="cls-2" d="M69.42,42.36c2.7,0,5.4,0,8.11,0,1.83,0,2.84.62,2.8,2.63s-.89,2.7-2.79,2.69c-5.51,0-11,0-16.54,0-1.88,0-2.74-.8-2.82-2.71-.08-2.07,1-2.62,2.81-2.6C63.8,42.39,66.61,42.36,69.42,42.36Z"/></svg>