<svg width="30" height="31" viewBox="0 0 30 31" fill="none" xmlns="http://www.w3.org/2000/svg">
<g clip-path="url(#clip0_102_4)">
<path d="M16.953 7.29294C16.1942 5.38294 16.3005 3.23419 17.3965 1.50544L18.2157 0.291687C16.7005 3.22919 18.1432 6.83669 20.4632 8.72794C21.084 9.23057 21.7761 9.63112 22.515 9.91544C22.7131 9.99044 22.9379 10.0704 23.1433 10.1242C25.7364 10.7992 27.8498 10.3329 29.1076 8.38794C29.069 8.44794 29.0194 8.54294 28.9566 8.66294C28.3959 9.73794 26.755 12.8842 21.9966 11.8967C21.906 11.8779 21.819 11.8467 21.732 11.8179L21.6546 11.7904L21.5991 11.7717C21.5734 11.7625 21.5476 11.7538 21.5217 11.7454C21.4512 11.7203 21.3811 11.6941 21.3115 11.6667C19.3963 10.9117 17.7541 9.32169 16.953 7.29294V7.29294Z" fill="#2F2F2F"/>
<path d="M10.6925 3.99919C8.83529 6.86794 8.93679 10.7092 10.3856 13.7442C10.6535 14.3089 10.9612 14.8525 11.3063 15.3704C11.5589 15.7617 11.8368 16.1954 12.1618 16.4979C12.296 16.6567 12.4361 16.8104 12.5787 16.9617L12.6609 17.0492L12.6887 17.0779C12.8329 17.2288 12.9808 17.3759 13.1321 17.5192L13.1333 17.5204L13.1358 17.5229C13.3184 17.6939 13.5058 17.8594 13.6976 18.0192L13.746 18.0592C13.9151 18.1992 14.0879 18.3367 14.2655 18.4679L14.2728 18.4729L14.2813 18.4792C14.338 18.5217 14.396 18.5629 14.454 18.6029L14.5181 18.6479C14.556 18.6739 14.5935 18.7006 14.6305 18.7279C14.7573 18.8154 14.8854 18.8992 15.0159 18.9817L15.0522 19.0029L15.0703 19.0154C15.2102 19.1018 15.3516 19.1855 15.4944 19.2667L15.5319 19.2867L15.5802 19.3142C15.643 19.3492 15.7059 19.3854 15.7711 19.4192L15.8074 19.4379C15.9943 19.5364 16.1837 19.6298 16.3753 19.7179L16.414 19.7342C16.5938 19.8161 16.7755 19.8936 16.9589 19.9667L16.9952 19.9804C17.1196 20.0304 17.2441 20.0754 17.3698 20.1204L17.4326 20.1429L17.5389 20.1792C17.586 20.1942 17.6332 20.2117 17.6791 20.2279C17.8108 20.2754 17.9425 20.3217 18.0803 20.3467C27.6672 22.0517 29.8808 14.1267 29.8808 14.1267C27.8859 17.2117 24.0216 18.6842 19.8988 17.5342C19.7162 17.4826 19.5349 17.4263 19.355 17.3654C19.3064 17.3499 19.258 17.3332 19.21 17.3154L19.1919 17.3092C19.0646 17.265 18.9381 17.2183 18.8125 17.1692L18.8089 17.1667C18.6004 17.0851 18.3941 16.9975 18.1902 16.9042L18.1225 16.8729C17.885 16.7618 17.6512 16.6422 17.4217 16.5142L17.371 16.4867L17.226 16.4067C17.0936 16.3302 16.9626 16.251 16.8333 16.1692C16.5777 16.0077 16.3278 15.8368 16.0841 15.6567C15.9081 15.5253 15.7353 15.3894 15.5657 15.2492L15.5234 15.2129C15.4987 15.1923 15.4742 15.1714 15.4497 15.1504C13.6445 13.6204 12.2138 11.5292 11.5347 9.15919C10.8218 6.69919 10.9753 3.93919 12.2102 1.69919L10.6925 3.99919Z" fill="#2F2F2F"/>
<path d="M2.72242 7.33794C0.155917 11.3004 0.474917 16.4567 2.43604 20.6667C2.47229 20.7479 2.51217 20.8279 2.55083 20.9067L2.57983 20.9667L2.61608 21.0404C2.64648 21.106 2.67871 21.1706 2.71275 21.2342L2.72846 21.2654L2.81304 21.4279L2.83117 21.4617C2.89158 21.5767 2.95442 21.6917 3.01846 21.8067L3.039 21.8442C3.13583 22.0189 3.23696 22.1911 3.34229 22.3604L3.36404 22.3979L3.43533 22.5142C3.53683 22.6767 3.64075 22.8404 3.7495 23.0017V23.0029C3.75207 23.0069 3.7549 23.0106 3.75796 23.0142L3.78696 23.0554L3.81112 23.0904C3.90537 23.2279 4.00083 23.3654 4.09871 23.5004L4.20746 23.6479C4.44431 23.9655 4.68928 24.2764 4.94212 24.5804L4.94937 24.5892L4.95542 24.5954L4.96387 24.6054C5.22023 24.9042 5.48538 25.1948 5.75896 25.4767L5.79521 25.5142L5.881 25.6017C6.01794 25.7402 6.15732 25.876 6.29908 26.0092L6.33896 26.0467L6.37037 26.0742C6.5216 26.2139 6.67467 26.3514 6.82954 26.4867L6.89721 26.5454C6.99992 26.6329 7.10383 26.7204 7.20896 26.8054L7.3745 26.9417C7.4905 27.0329 7.6065 27.1229 7.72371 27.2104L7.74304 27.2254L7.85179 27.3079L7.88562 27.3329C7.99196 27.4129 8.0995 27.4879 8.20825 27.5629L8.22517 27.5754C8.27393 27.6094 8.32227 27.644 8.37017 27.6792C8.57188 27.8162 8.77613 27.9491 8.98279 28.0779L9.04804 28.1179C9.231 28.2297 9.4159 28.3381 9.60267 28.4429L9.66671 28.4792L9.738 28.5192C9.80929 28.5592 9.87937 28.5992 9.95187 28.6379L9.98208 28.6529L10.0183 28.6717L10.0594 28.6929C10.0836 28.7054 10.109 28.7179 10.1343 28.7329C10.2842 28.8092 10.434 28.8842 10.5862 28.9579L10.643 28.9842L10.6817 29.0029C11.0593 29.1808 11.4434 29.3435 11.8332 29.4904L11.8453 29.4942L11.8961 29.5142C12.1716 29.6167 12.4496 29.7117 12.7298 29.7992C12.87 29.8479 13.0114 29.8954 13.1564 29.9242C25.5744 32.3567 29.1813 21.9117 29.1813 21.9117C26.152 26.1492 20.7749 27.2679 15.6794 26.0229C15.4876 25.9748 15.2981 25.9177 15.1115 25.8517L14.9689 25.8054C14.7852 25.7454 14.6027 25.6804 14.4215 25.6142L14.3466 25.5854C14.1835 25.5229 14.024 25.4604 13.8632 25.3929L13.7279 25.3354C13.5529 25.2613 13.3793 25.1838 13.2071 25.1029L13.1515 25.0779C12.9878 24.9993 12.8251 24.9185 12.6634 24.8354L12.6138 24.8079C12.588 24.7952 12.5622 24.7823 12.5365 24.7692L12.2779 24.6279L12.1957 24.5829C12.1689 24.5678 12.1419 24.5528 12.1148 24.5379L11.9698 24.4554C11.832 24.3767 11.6967 24.2929 11.5614 24.2092L11.5094 24.1779L11.4248 24.1279C11.2145 23.9937 11.0066 23.8553 10.8013 23.7129L10.7494 23.6754C10.2337 23.3197 9.73937 22.9319 9.26917 22.5142C9.12551 22.3885 8.98371 22.2606 8.84383 22.1304L8.8245 22.1117C8.64082 21.9369 8.46034 21.7585 8.28317 21.5767C8.18084 21.4721 8.08013 21.3659 7.98108 21.2579L7.94 21.2154C7.7835 21.0462 7.63041 20.8737 7.48083 20.6979L7.47358 20.6904L7.47117 20.6867C7.34308 20.5367 7.21742 20.3817 7.09417 20.2267L6.99508 20.1004C6.86859 19.9382 6.74492 19.7736 6.62412 19.6067C6.51779 19.4567 6.41267 19.3092 6.30996 19.1579C3.48246 15.0154 2.46625 9.30044 4.72704 4.60794L2.72242 7.33794Z" fill="#2F2F2F"/>
</g>
<defs>
<clipPath id="clip0_102_4">
<rect width="29" height="30" fill="white" transform="translate(0.880859 0.291687)"/>
</clipPath>
</defs>
</svg>
