<svg width="28" height="28" viewBox="0 0 28 28" fill="none" xmlns="http://www.w3.org/2000/svg">
<path d="M0.875 0.875V27.125H27.125V0.875H0.875ZM15.1603 21.3483C15.1603 23.9033 13.6623 25.0652 11.4765 25.0652C9.50425 25.0652 8.35887 24.0432 7.777 22.8112L9.786 21.595C10.1736 22.274 10.5263 22.855 11.3715 22.855C12.1818 22.855 12.6927 22.5461 12.6927 21.3063V12.9238H15.1603V21.3483V21.3483ZM20.993 25.0652C18.7023 25.0652 17.2218 23.9733 16.4999 22.5453L18.508 21.3841C19.0365 22.2399 19.7242 22.8804 20.9405 22.8804C21.9616 22.8804 22.6056 22.3694 22.6056 21.6589C22.6056 20.8136 21.9354 20.5126 20.8084 20.027L20.1959 19.7557C18.4161 18.9989 17.2357 18.0469 17.2357 16.037C17.2357 14.1881 18.6393 12.7776 20.8478 12.7776C22.4158 12.7776 23.5427 13.3245 24.3547 14.7499L22.4385 15.9792C22.0185 15.2267 21.5583 14.9205 20.853 14.9205C20.132 14.9205 19.67 15.3772 19.67 15.9792C19.67 16.7247 20.125 17.0188 21.1837 17.4755L21.7989 17.7467C23.8963 18.6392 25.0775 19.558 25.0775 21.623C25.0836 23.849 23.3398 25.0618 20.9956 25.0618L20.993 25.0652Z" fill="#2F2F2F"/>
</svg>
