<svg width="42" height="31" viewBox="0 0 42 31" fill="none" xmlns="http://www.w3.org/2000/svg">
<path d="M34.8942 2.86623C35.2311 2.86623 35.5541 3.00004 35.7923 3.23821C36.0304 3.47639 36.1643 3.79942 36.1643 4.13626V23.1867H5.68357V4.13626C5.68357 3.79942 5.81737 3.47639 6.05555 3.23821C6.29373 3.00004 6.61676 2.86623 6.9536 2.86623H34.8942ZM6.9536 0.326172C5.9431 0.326172 4.97399 0.727591 4.25946 1.44212C3.54493 2.15665 3.14351 3.12576 3.14351 4.13626V25.7267H38.7043V4.13626C38.7043 3.12576 38.3029 2.15665 37.5884 1.44212C36.8738 0.727591 35.9047 0.326172 34.8942 0.326172H6.9536ZM0.603455 26.9968H41.2444C41.2444 28.0073 40.8429 28.9764 40.1284 29.6909C39.4139 30.4054 38.4448 30.8069 37.4343 30.8069H4.41354C3.40304 30.8069 2.43393 30.4054 1.7194 29.6909C1.00487 28.9764 0.603455 28.0073 0.603455 26.9968H0.603455Z" fill="#008ECC"/>
</svg>
