<svg width="44" height="45" viewBox="0 0 44 45" fill="none" xmlns="http://www.w3.org/2000/svg">
<circle cx="21.7813" cy="22.5473" r="21.7285" fill="#008ECC"/>
<path fill-rule="evenodd" clip-rule="evenodd" d="M13.2205 15.4168C13.2205 15.0374 13.3712 14.6736 13.6394 14.4053C13.9077 14.137 14.2715 13.9863 14.6509 13.9863H28.9103C29.0983 13.986 29.2845 14.0228 29.4583 14.0946C29.6321 14.1663 29.79 14.2717 29.923 14.4045C30.056 14.5374 30.1615 14.6952 30.2335 14.8689C30.3054 15.0426 30.3424 15.2288 30.3423 15.4168V29.6762C30.3425 29.8642 30.3056 30.0505 30.2338 30.2242C30.162 30.398 30.0566 30.5559 29.9236 30.6889C29.7907 30.8219 29.6328 30.9274 29.4591 30.9994C29.2854 31.0713 29.0991 31.1083 28.9111 31.1082H14.6509C14.463 31.1082 14.2769 31.0712 14.1033 30.9992C13.9297 30.9273 13.772 30.8219 13.6392 30.6889C13.5063 30.556 13.401 30.3982 13.3291 30.2246C13.2573 30.051 13.2204 29.8649 13.2205 29.677V15.4168ZM19.9976 20.5144H22.3161V21.6787C22.6507 21.0094 23.5068 20.407 24.7933 20.407C27.2596 20.407 27.8441 21.7402 27.8441 24.1863V28.7174H25.3482V24.7435C25.3482 23.3504 25.0135 22.5644 24.1637 22.5644C22.9846 22.5644 22.4943 23.4119 22.4943 24.7435V28.7174H19.9976V20.5144ZM15.7171 28.6107H18.2138V20.407H15.7171V28.61V28.6107ZM18.571 17.7313C18.5757 17.9451 18.5377 18.1577 18.4592 18.3565C18.3806 18.5554 18.2631 18.7366 18.1136 18.8894C17.9641 19.0423 17.7855 19.1637 17.5884 19.2466C17.3914 19.3295 17.1797 19.3723 16.9659 19.3723C16.752 19.3723 16.5404 19.3295 16.3433 19.2466C16.1462 19.1637 15.9677 19.0423 15.8181 18.8894C15.6686 18.7366 15.5511 18.5554 15.4726 18.3565C15.394 18.1577 15.356 17.9451 15.3607 17.7313C15.3699 17.3117 15.5431 16.9124 15.8431 16.619C16.1431 16.3255 16.5462 16.1611 16.9659 16.1611C17.3856 16.1611 17.7886 16.3255 18.0886 16.619C18.3886 16.9124 18.5618 17.3117 18.571 17.7313Z" fill="white"/>
</svg>
