<svg width="73" height="50" viewBox="0 0 73 50" fill="none" xmlns="http://www.w3.org/2000/svg">
<path d="M72.2544 44.1116H1.53039C1.13347 44.1116 0.808716 44.4019 0.808716 44.7566V49.2713C0.808716 49.626 1.13347 49.9163 1.53039 49.9163H72.2544C72.6513 49.9163 72.9761 49.626 72.9761 49.2713V44.7566C72.9761 44.4019 72.6513 44.1116 72.2544 44.1116ZM5.65295 34.018L9.23426 37.2025C9.51391 37.4524 9.97397 37.4524 10.2536 37.2025L31.4257 18.3455L40.2301 26.1898C40.7726 26.6701 41.5053 26.9396 42.2689 26.9396C43.0325 26.9396 43.7652 26.6701 44.3076 26.1898L68.1409 4.97061C68.4205 4.72068 68.4205 4.30952 68.1409 4.0596L64.5596 0.867049C64.4239 0.74702 64.2408 0.679688 64.0499 0.679688C63.859 0.679688 63.6758 0.74702 63.5402 0.867049L42.2779 19.8127L33.4645 11.9684C32.922 11.4881 32.1893 11.2186 31.4257 11.2186C30.6621 11.2186 29.9294 11.4881 29.387 11.9684L5.65295 33.107C5.58547 33.1665 5.5319 33.2375 5.49533 33.3156C5.45876 33.3938 5.43993 33.4777 5.43993 33.5625C5.43993 33.6472 5.45876 33.7311 5.49533 33.8093C5.5319 33.8875 5.58547 33.9585 5.65295 34.018Z" fill="#008ECC"/>
</svg>
