<svg width="42" height="43" viewBox="0 0 42 43" fill="none" xmlns="http://www.w3.org/2000/svg">
<path d="M41.8837 21.5375C41.8837 33.0418 32.5576 42.3679 21.0532 42.3679C9.54889 42.3679 0.222778 33.0418 0.222778 21.5375C0.222778 10.0331 9.54889 0.707031 21.0532 0.707031C32.5576 0.707031 41.8837 10.0331 41.8837 21.5375Z" fill="#545454"/>
<path d="M12.5658 15.6195L15.1539 12.9776C15.3365 12.7902 15.5535 12.6415 15.7925 12.5401C16.0315 12.4387 16.2877 12.3865 16.5464 12.3866C17.0738 12.3866 17.5696 12.5977 17.9414 12.9776L20.7264 15.8231C20.9097 16.0096 21.0552 16.2314 21.1545 16.4755C21.2537 16.7197 21.3048 16.9815 21.3047 17.2459C21.3047 17.7847 21.0982 18.2912 20.7264 18.6711L18.6899 20.7519C19.1666 21.8254 19.8293 22.8021 20.6462 23.6347C21.461 24.4713 22.4167 25.1509 23.4676 25.6409L25.5041 23.5602C25.6867 23.3728 25.9037 23.2242 26.1427 23.1227C26.3816 23.0213 26.6378 22.9692 26.8966 22.9692C27.424 22.9692 27.9197 23.1803 28.2915 23.5602L31.079 26.4032C31.2626 26.5901 31.4082 26.8122 31.5074 27.0568C31.6067 27.3014 31.6576 27.5637 31.6573 27.8285C31.6573 28.3673 31.4508 28.8738 31.079 29.2537L28.4957 31.8932C27.9027 32.5015 27.0837 32.8467 26.2429 32.8467C26.0655 32.8467 25.8954 32.8318 25.7277 32.802C22.4518 32.2507 19.2026 30.4704 16.5805 27.7937C13.9607 25.1195 12.2207 21.8022 11.6739 18.4452C11.5087 17.4197 11.8416 16.3644 12.5658 15.6195Z" fill="white"/>
<path d="M41.8837 21.5375C41.8837 33.0418 32.5576 42.3679 21.0532 42.3679C9.54889 42.3679 0.222778 33.0418 0.222778 21.5375C0.222778 10.0331 9.54889 0.707031 21.0532 0.707031C32.5576 0.707031 41.8837 10.0331 41.8837 21.5375Z" fill="#545454"/>
<path d="M14.0833 16.7892L16.2388 14.5889C16.3908 14.4328 16.5716 14.309 16.7706 14.2246C16.9696 14.1401 17.183 14.0966 17.3985 14.0967C17.8377 14.0967 18.2506 14.2725 18.5603 14.5889L20.8797 16.9588C21.0324 17.1141 21.1536 17.2988 21.2363 17.5021C21.3189 17.7055 21.3615 17.9235 21.3614 18.1437C21.3614 18.5924 21.1894 19.0143 20.8797 19.3307L19.1836 21.0637C19.5807 21.9578 20.1326 22.7711 20.8129 23.4646C21.4915 24.1613 22.2875 24.7274 23.1628 25.1355L24.8588 23.4025C25.0109 23.2465 25.1916 23.1227 25.3906 23.0382C25.5897 22.9537 25.8031 22.9103 26.0186 22.9103C26.4578 22.9103 26.8706 23.0861 27.1803 23.4025L29.5018 25.7703C29.6547 25.926 29.776 26.111 29.8587 26.3147C29.9413 26.5184 29.9837 26.7368 29.9835 26.9573C29.9835 27.4061 29.8115 27.8279 29.5018 28.1443L27.3503 30.3426C26.8565 30.8492 26.1744 31.1367 25.4741 31.1367C25.3264 31.1367 25.1847 31.1243 25.045 31.0995C22.3167 30.6404 19.6107 29.1576 17.4268 26.9284C15.245 24.7012 13.7959 21.9384 13.3405 19.1425C13.2028 18.2885 13.4801 17.4096 14.0833 16.7892Z" fill="white"/>
</svg>
