<svg width="44" height="44" viewBox="0 0 44 44" fill="none" xmlns="http://www.w3.org/2000/svg">
<circle cx="22.2147" cy="22.0678" r="21.7285" fill="#545454"/>
<path d="M29.9203 16.2122L27.7237 14.0014C27.5687 13.8446 27.3845 13.7202 27.1817 13.6353C26.9789 13.5504 26.7614 13.5068 26.5418 13.5068C26.0942 13.5068 25.6735 13.6835 25.3579 14.0014L22.9942 16.3826C22.8386 16.5387 22.7151 16.7242 22.6308 16.9285C22.5466 17.1328 22.5033 17.3519 22.5033 17.5732C22.5033 18.0241 22.6786 18.4479 22.9942 18.7659L24.7226 20.5071C24.318 21.4055 23.7555 22.2227 23.0623 22.9195C22.3707 23.6196 21.5595 24.1883 20.6676 24.5983L18.9392 22.8571C18.7843 22.7003 18.6001 22.5759 18.3973 22.4911C18.1944 22.4062 17.977 22.3625 17.7574 22.3626C17.3098 22.3626 16.889 22.5392 16.5734 22.8571L14.2077 25.2362C14.0519 25.3926 13.9283 25.5785 13.844 25.7832C13.7598 25.9879 13.7165 26.2073 13.7168 26.4289C13.7168 26.8798 13.8921 27.3037 14.2077 27.6216L16.4002 29.8304C16.9035 30.3394 17.5985 30.6282 18.3122 30.6282C18.4628 30.6282 18.6071 30.6158 18.7495 30.5908C21.5298 30.1296 24.2874 28.6397 26.5129 26.3998C28.7364 24.162 30.2132 21.386 30.6772 18.5768C30.8175 17.7186 30.5349 16.8355 29.9203 16.2122V16.2122Z" fill="white"/>
</svg>
