<svg width="43" height="24" viewBox="0 0 43 24" fill="none" xmlns="http://www.w3.org/2000/svg">
<path d="M21.5 0.625C9.44387 0.625 0 5.62125 0 12C0 18.3787 9.44387 23.375 21.5 23.375C33.5561 23.375 43 18.3787 43 12C43 5.62125 33.5561 0.625 21.5 0.625ZM19.2676 4.125H21.6147L20.8693 7.625H22.9656C24.295 7.625 25.1872 7.807 25.6961 8.26025C26.1924 8.70825 26.3429 9.44325 26.144 10.4443L25.2123 14.625H22.8258L23.684 10.7593C23.788 10.229 23.7468 9.85975 23.564 9.6655C23.383 9.47125 22.9835 9.375 22.3851 9.375H20.5056L19.3715 14.625H17.0208L19.2676 4.125V4.125ZM8.95833 7.625H13.7349C16.0121 7.625 17.3917 9.116 16.8524 11.3403C16.2253 13.925 14.5483 14.625 11.4595 14.625H9.98317L9.51554 17.25H7.14158L8.95833 7.625ZM27.7708 7.625H32.5474C34.8246 7.625 36.2042 9.116 35.6649 11.3403C35.0378 13.925 33.359 14.625 30.272 14.625H28.7957L28.328 17.25H25.9541L27.7708 7.625ZM10.9919 9.375L10.3164 12.875H11.8483C13.1741 12.875 14.4068 12.728 14.6128 10.796C14.6899 10.0488 14.371 9.375 12.8391 9.375H10.9919ZM29.8044 9.375L29.1289 12.875H30.6608C31.9866 12.875 33.2193 12.728 33.4253 10.796C33.5024 10.0488 33.1852 9.375 31.6516 9.375H29.8044V9.375Z" fill="#2F2F2F"/>
</svg>
