<svg width="37" height="37" viewBox="0 0 37 37" fill="none" xmlns="http://www.w3.org/2000/svg">
<g clip-path="url(#clip0_102_2)">
<path d="M18.4897 0.291687C28.3897 0.291687 36.4897 8.39169 36.4897 18.2917C36.4897 28.1917 28.3897 36.2917 18.4897 36.2917C8.58975 36.2917 0.489746 28.1917 0.489746 18.2917C0.489746 8.39169 8.58975 0.291687 18.4897 0.291687ZM14.8897 24.2542C15.1147 25.2667 15.1147 26.1667 14.8897 26.9542L14.7772 27.2917C14.7772 27.4042 14.6647 27.5167 14.6647 27.5167C14.4397 27.9667 14.2147 28.3042 13.8772 28.7542C12.8647 29.8792 11.4022 30.3292 10.7272 29.9917C10.0522 29.6542 10.3897 27.9667 11.6272 26.7292C12.9772 25.3792 14.7772 24.4792 14.7772 24.4792L14.8897 24.2542V24.2542ZM29.7397 7.94169C28.9522 4.79169 23.6647 3.66669 18.6022 5.46669C15.6772 6.59169 12.4147 8.27919 10.0522 10.4167C7.23975 13.0042 6.90225 15.2542 7.01475 16.1542C7.68975 19.4167 12.1897 21.6667 14.1022 23.2417C13.5397 23.4667 9.48975 25.4917 8.58975 27.6292C7.57725 29.8792 8.70225 31.4542 9.48975 31.5667C11.8522 32.2417 14.3272 31.0042 15.5647 29.0917C16.8022 27.1792 16.6897 24.8167 16.1272 23.5792C17.0024 23.3089 17.9327 23.2702 18.8272 23.4667C21.9772 23.8042 22.6522 25.8292 22.4272 26.6167C22.2022 27.4042 21.6397 27.8542 21.4147 28.0792C21.1897 28.1917 21.0772 28.3042 21.1897 28.3042C21.1897 28.4167 21.3022 28.4167 21.5272 28.4167C21.7522 28.4167 23.2147 27.7417 23.2147 26.1667C23.3272 24.2542 21.4147 22.1167 18.1522 22.1167C16.8022 22.1167 15.9022 22.2292 15.3397 22.4542C15.3397 22.3417 15.2272 22.3417 15.2272 22.3417C13.2022 20.2042 9.48975 18.6292 9.60225 15.7042C9.60225 14.6917 10.0522 11.8792 16.8022 8.50419C22.3147 5.69169 26.8147 6.47919 27.6022 8.16669C28.7272 10.5292 25.2397 15.0292 19.5022 15.7042C17.2522 15.9292 16.1272 15.1417 15.9022 14.8042C15.5647 14.4667 15.5647 14.4667 15.4522 14.4667C15.2272 14.5792 15.3397 14.8042 15.4522 15.0292C15.6772 15.4792 16.3522 16.2667 17.5897 16.7167C18.6022 17.0542 21.1897 17.2792 24.3397 16.0417C27.8272 14.6917 30.5272 10.9792 29.7397 7.82919V7.94169Z" fill="#2F2F2F"/>
</g>
<defs>
<clipPath id="clip0_102_2">
<rect width="36" height="36" fill="white" transform="translate(0.489746 0.291687)"/>
</clipPath>
</defs>
</svg>
