<svg width="61" height="63" viewBox="0 0 61 63" fill="none" xmlns="http://www.w3.org/2000/svg">
<path d="M44.4583 40.5077C48.12 35.4047 49.76 29.0778 49.0503 22.7929C48.3406 16.5079 45.3334 10.7285 40.6304 6.61066C35.9274 2.49287 29.8754 0.340467 23.6852 0.584061C17.495 0.827655 11.6231 3.44929 7.2443 7.92446C2.8655 12.3996 0.302686 18.3983 0.0685968 24.7204C-0.165493 31.0425 1.9464 37.2217 5.98177 42.0218C10.0171 46.8219 15.6784 49.889 21.8329 50.6093C27.9874 51.3296 34.1812 49.6502 39.1753 45.9069H39.1716C39.285 46.0614 39.406 46.2081 39.5422 46.351L54.1014 61.22C54.8105 61.9447 55.7724 62.3521 56.7756 62.3524C57.7787 62.3528 58.7409 61.9462 59.4505 61.222C60.1601 60.4978 60.5589 59.5154 60.5593 58.4909C60.5597 57.4664 60.1615 56.4837 59.4524 55.7591L44.8932 40.89C44.7579 40.7503 44.6126 40.6212 44.4583 40.5038V40.5077ZM45.4339 25.6618C45.4339 28.4513 44.8959 31.2135 43.8507 33.7906C42.8055 36.3677 41.2734 38.7094 39.3421 40.6818C37.4107 42.6543 35.1178 44.2189 32.5944 45.2864C30.071 46.3539 27.3663 46.9033 24.635 46.9033C21.9036 46.9033 19.199 46.3539 16.6756 45.2864C14.1521 44.2189 11.8593 42.6543 9.92791 40.6818C7.99655 38.7094 6.46452 36.3677 5.41927 33.7906C4.37403 31.2135 3.83605 28.4513 3.83605 25.6618C3.83605 20.0282 6.02736 14.6254 9.92791 10.6418C13.8285 6.6583 19.1188 4.42036 24.635 4.42036C30.1512 4.42036 35.4415 6.6583 39.3421 10.6418C43.2426 14.6254 45.4339 20.0282 45.4339 25.6618V25.6618Z" fill="#008ECC"/>
</svg>
