<svg width="73" height="73" viewBox="0 0 73 73" fill="none" xmlns="http://www.w3.org/2000/svg">
<path d="M25.7025 68.4602H19.6191C19.278 68.4542 18.9439 68.3634 18.6478 68.1961C18.3517 68.0289 18.1031 67.7906 17.9252 67.5035C17.7473 67.2163 17.6457 66.8895 17.6299 66.5533C17.6141 66.2171 17.6845 65.8824 17.8347 65.5802L29.8189 42.4602H16.5369C16.1715 42.4633 15.812 42.3688 15.4965 42.1869C15.181 42.005 14.9213 41.7423 14.7447 41.4268C14.5681 41.1112 14.4812 40.7544 14.4933 40.3942C14.5054 40.0339 14.6159 39.6836 14.8133 39.3802L36.47 5.38024C36.6475 5.10695 36.8898 4.88038 37.176 4.7201C37.4621 4.55981 37.7835 4.47063 38.1125 4.46024H65.3455C65.7504 4.44135 66.1518 4.54258 66.4978 4.75087C66.8438 4.95917 67.1186 5.26496 67.2866 5.62878C67.4547 5.9926 67.5083 6.39776 67.4407 6.79195C67.373 7.18615 67.1871 7.55129 66.9069 7.84024L48.5352 28.4602H59.4447C59.8309 28.4683 60.2068 28.585 60.5281 28.7966C60.8494 29.0082 61.1027 29.3059 61.2582 29.6547C61.4137 30.0035 61.465 30.3888 61.4059 30.7654C61.3469 31.142 61.18 31.4941 60.925 31.7802L27.203 67.7802C27.0153 67.9911 26.7846 68.1606 26.5261 68.2777C26.2676 68.3949 25.987 68.4571 25.7025 68.4602V68.4602ZM22.9852 64.4602H24.8305L54.7808 32.4602H44.0944C43.6895 32.4791 43.2881 32.3779 42.9421 32.1696C42.5961 31.9613 42.3214 31.6555 42.1533 31.2917C41.9852 30.9279 41.9316 30.5227 41.9993 30.1285C42.067 29.7343 42.2529 29.3692 42.533 29.0802L60.9047 8.46024H39.2277L20.1261 38.4602H33.1647C33.5059 38.4663 33.84 38.5571 34.1361 38.7244C34.4322 38.8916 34.6807 39.1299 34.8586 39.417C35.0365 39.7042 35.1381 40.031 35.1539 40.3672C35.1698 40.7034 35.0993 41.0381 34.9491 41.3402L22.9852 64.4602Z" fill="#008ECC"/>
</svg>
