<svg width="42" height="39" viewBox="0 0 42 39" fill="none" xmlns="http://www.w3.org/2000/svg">
<path d="M41.3644 8.70855V10.0766C41.3644 10.2581 41.2924 10.432 41.1641 10.5603C41.0358 10.6886 40.8618 10.7607 40.6804 10.7607H38.6283V11.7867C38.6283 12.3534 38.1689 12.8128 37.6022 12.8128H4.08408C3.51743 12.8128 3.05801 12.3534 3.05801 11.7867V10.7607H1.00588C0.824462 10.7607 0.650473 10.6886 0.52219 10.5603C0.393907 10.432 0.321838 10.2581 0.321838 10.0766V8.70855C0.321839 8.57322 0.361981 8.44093 0.437185 8.32842C0.512389 8.21591 0.619276 8.12824 0.744321 8.07649L20.5816 0.552011C20.7491 0.482663 20.9372 0.482663 21.1047 0.552011L40.942 8.07649C41.067 8.12824 41.1739 8.21591 41.2491 8.32842C41.3243 8.44093 41.3644 8.57322 41.3644 8.70855V8.70855ZM39.3123 34.7022H2.37397C1.24059 34.7022 0.321838 35.621 0.321838 36.7543V38.1224C0.321838 38.3038 0.393907 38.4778 0.52219 38.6061C0.650473 38.7344 0.824462 38.8065 1.00588 38.8065H40.6804C40.8618 38.8065 41.0358 38.7344 41.1641 38.6061C41.2924 38.4778 41.3644 38.3038 41.3644 38.1224V36.7543C41.3644 35.621 40.4457 34.7022 39.3123 34.7022ZM7.16227 14.1809V30.5979H4.08408C3.51743 30.5979 3.05801 31.0574 3.05801 31.624V33.3341H38.6283V31.624C38.6283 31.0574 38.1689 30.5979 37.6022 30.5979H34.524V14.1809H29.0517V30.5979H23.5793V14.1809H18.107V30.5979H12.6346V14.1809H7.16227Z" fill="#008ECC"/>
</svg>
