<svg width="32" height="32" viewBox="0 0 32 32" fill="none" xmlns="http://www.w3.org/2000/svg">
<path d="M25.266 15.3064C25.266 13.6104 24.656 12.4364 24.134 11.5224L23.974 11.2624C23.34 10.2424 22.786 9.34642 22.786 8.30242C22.786 7.04242 23.742 5.86642 25.09 5.86642C25.13 5.86642 25.168 5.87042 25.206 5.87242L25.268 5.87842C22.7403 3.5567 19.4321 2.27025 16 2.27442C13.7253 2.27326 11.4861 2.83807 9.48411 3.91796C7.48213 4.99786 5.7803 6.5589 4.53197 8.46042C4.85197 8.47042 5.15797 8.47842 5.41597 8.47842C6.84997 8.47842 9.07197 8.30442 9.07197 8.30442C9.81197 8.26042 9.89997 9.34642 9.15997 9.43442C9.15997 9.43442 8.41797 9.52242 7.58997 9.56442L12.59 24.4324L15.59 15.4204L13.45 9.56242C12.712 9.51842 12.012 9.43242 12.012 9.43242C11.272 9.38842 11.36 8.25642 12.098 8.30042C12.098 8.30042 14.366 8.47442 15.714 8.47442C17.15 8.47442 19.374 8.30042 19.374 8.30042C20.114 8.25642 20.2 9.34442 19.46 9.43242C19.46 9.43242 18.716 9.51842 17.89 9.56242L22.85 24.3164L24.218 19.7424L24.326 19.3964C24.866 17.6764 25.264 16.4064 25.264 15.3044L25.266 15.3064ZM2.27397 16.0004C2.27383 18.5779 2.99932 21.1034 4.36743 23.2878C5.73553 25.4722 7.69096 27.2274 10.01 28.3524L3.45997 10.4124C2.67563 12.1708 2.27148 14.075 2.27397 16.0004V16.0004Z" fill="#2F2F2F"/>
<path d="M12.122 29.1661L16.242 17.2001L20.46 28.7601C20.488 28.8261 20.52 28.8881 20.558 28.9481C17.8389 29.906 14.887 29.9823 12.122 29.1661V29.1661ZM28.042 9.41406C28.102 9.85206 28.136 10.3201 28.136 10.8261C28.136 12.2181 27.876 13.7841 27.092 15.7421L22.9 27.8621C25.9935 26.0648 28.2625 23.1303 29.2234 19.6841C30.1843 16.2379 29.7611 12.5527 28.044 9.41406H28.042Z" fill="#2F2F2F"/>
<path fill-rule="evenodd" clip-rule="evenodd" d="M0 16C0 7.178 7.178 0 16 0C24.82 0 32 7.178 32 16C32 24.822 24.82 32 16 32C7.178 32 0 24.822 0 16ZM0.734 16C0.734 24.418 7.582 31.266 16 31.266C24.416 31.266 31.264 24.418 31.264 16C31.264 7.58 24.416 0.734 16 0.734C7.58 0.734 0.734 7.58 0.734 16Z" fill="#2F2F2F"/>
</svg>
